<?xml version="1.0" encoding="UTF-8"?>
<svg width="40px" height="36px" viewBox="0 0 40 36" version="1.1" xmlns="http://www.w3.org/2000/svg" xmlns:xlink="http://www.w3.org/1999/xlink">
    <!-- Generator: Sketch 51.2 (57519) - http://www.bohemiancoding.com/sketch -->
    <title>Group 12</title>
    <desc>Created with Sketch.</desc>
    <defs>
        <polygon id="path-1" points="2.86320255e-05 0.0456893617 39.0923828 0.0456893617 39.0923828 36 2.86320255e-05 36"></polygon>
    </defs>
    <g id="Page-1" stroke="none" stroke-width="1" fill="none" fill-rule="evenodd">
        <g id="Keto_cycle2" transform="translate(-48.000000, -345.000000)">
            <g id="Group-12" transform="translate(48.000000, 345.000000)">
                <g id="Group-3">
                    <mask id="mask-2" fill="white">
                        <use xlink:href="#path-1"></use>
                    </mask>
                    <g id="Clip-2"></g>
                    <path d="M37.5664867,28.3415936 C37.5664867,29.3345617 36.7611633,30.1427426 35.7710679,30.1427426 L31.4960201,30.1427426 C30.5061156,30.1427426 29.7008876,29.3345617 29.7008876,28.3415936 L29.7008876,25.1700511 C29.7008876,24.747434 29.3590212,24.4048596 28.9377487,24.4048596 C28.5164761,24.4048596 28.1749915,24.747434 28.1749915,25.1700511 L28.1749915,28.3415936 C28.1749915,29.3345617 27.3692863,30.1427426 26.3794772,30.1427426 L22.1044295,30.1427426 C21.1142386,30.1427426 20.3090106,29.3345617 20.3090106,28.3415936 L20.3090106,7.70373191 C20.3090106,6.71076383 21.1142386,5.90258298 22.1044295,5.90258298 L26.3794772,5.90258298 C27.3692863,5.90258298 28.1749915,6.71076383 28.1749915,7.70373191 L28.1749915,19.3156468 C28.1749915,19.7383596 28.5164761,20.081317 28.9377487,20.081317 C29.3590212,20.081317 29.7008876,19.7386468 29.7008876,19.3156468 L29.7008876,7.70373191 C29.7008876,6.71076383 30.5061156,5.90258298 31.4960201,5.90258298 L35.7710679,5.90258298 C36.7611633,5.90258298 37.5664867,6.71076383 37.5664867,7.70373191 L37.5664867,28.3415936 Z M32.2401665,34.4692532 L35.0269215,34.4692532 L35.0269215,31.6732213 L32.2401665,31.6732213 L32.2401665,34.4692532 Z M22.8481941,34.4692532 L25.6353309,34.4692532 L25.6353309,31.6732213 L22.8481941,31.6732213 L22.8481941,34.4692532 Z M22.8481941,4.37210426 L25.6353309,4.37210426 L25.6353309,1.57607234 L22.8481941,1.57607234 L22.8481941,4.37210426 Z M32.240071,4.37210426 L35.0268261,4.37210426 L35.0268261,1.57607234 L32.240071,1.57607234 L32.240071,4.37210426 Z M18.7831145,28.3415936 C18.7831145,29.3345617 17.9777911,30.1427426 16.987982,30.1427426 L12.7125525,30.1427426 C11.7227434,30.1427426 10.9175154,29.3345617 10.9175154,28.3415936 L10.9175154,16.729583 C10.9175154,16.306966 10.575649,15.9642957 10.1543765,15.9642957 C9.73300848,15.9642957 9.39152386,16.306966 9.39152386,16.729583 L9.39152386,28.3415936 C9.39152386,29.3345617 8.58629586,30.1427426 7.59610498,30.1427426 L3.32105726,30.1427426 C2.33124814,30.1427426 1.52592471,29.3345617 1.52592471,28.3415936 L1.52592471,7.70373191 C1.52592471,6.71076383 2.33124814,5.90258298 3.32105726,5.90258298 L7.5963913,5.90258298 C8.58629586,5.90258298 9.39152386,6.71076383 9.39152386,7.70373191 L9.39152386,10.8752745 C9.39152386,11.2978915 9.73300848,11.640466 10.1543765,11.640466 C10.575649,11.640466 10.9175154,11.2978915 10.9175154,10.8752745 L10.9175154,7.70373191 C10.9175154,6.71076383 11.7227434,5.90258298 12.7129343,5.90258298 L16.987982,5.90258298 C17.9777911,5.90258298 18.7831145,6.71076383 18.7831145,7.70373191 L18.7831145,28.3415936 Z M13.4566988,34.4692532 L16.2438356,34.4692532 L16.2438356,31.6732213 L13.4566988,31.6732213 L13.4566988,34.4692532 Z M4.06520361,34.4692532 L6.8523404,34.4692532 L6.8523404,31.6732213 L4.06520361,31.6732213 L4.06520361,34.4692532 Z M4.06510817,4.37210426 L6.85224496,4.37210426 L6.85224496,1.57607234 L4.06510817,1.57607234 L4.06510817,4.37210426 Z M13.4566988,4.37210426 L16.2438356,4.37210426 L16.2438356,1.57607234 L13.4566988,1.57607234 L13.4566988,4.37210426 Z M36.5528176,4.46641277 L36.5528176,0.810880851 C36.5528176,0.38826383 36.211333,0.0456893617 35.7900604,0.0456893617 L31.4773139,0.0456893617 C31.0560414,0.0456893617 30.714175,0.38826383 30.714175,0.810880851 L30.714175,4.46602979 C30.0073457,4.63808298 29.3877487,5.03676383 28.9377487,5.58164681 C28.4877487,5.03676383 27.8681516,4.63808298 27.1613224,4.46602979 L27.1613224,0.810880851 C27.1613224,0.38826383 26.8197423,0.0456893617 26.3984698,0.0456893617 L22.0854369,0.0456893617 C21.6641644,0.0456893617 21.3226797,0.38826383 21.3226797,0.810880851 L21.3226797,4.46602979 C20.6158505,4.63808298 19.996158,5.03676383 19.5462534,5.58164681 C19.0962534,5.03676383 18.476561,4.63808298 17.7698271,4.46602979 L17.7698271,0.810880851 C17.7698271,0.38826383 17.4282471,0.0456893617 17.0065928,0.0456893617 L12.6939417,0.0456893617 C12.2726691,0.0456893617 11.9311845,0.38826383 11.9311845,0.810880851 L11.9311845,4.46602979 C11.2239735,4.63808298 10.604281,5.03676383 10.1543765,5.58164681 C9.70437646,5.03676383 9.08506575,4.63808298 8.37775928,4.46602979 L8.37775928,0.810880851 C8.37775928,0.38826383 8.0363701,0.0456893617 7.61509756,0.0456893617 L3.30244645,0.0456893617 C2.88117391,0.0456893617 2.53921209,0.38826383 2.53921209,0.810880851 L2.53921209,4.46602979 C1.08413256,4.81980638 2.86320255e-05,6.1370617 2.86320255e-05,7.70373191 L2.86320255e-05,28.3415936 C2.86320255e-05,29.9086468 1.08413256,31.2255191 2.53921209,31.5792 L2.53921209,35.2344447 C2.53921209,35.6570617 2.88117391,36.0000191 3.30244645,36.0000191 L7.61509756,36.0000191 C8.0363701,36.0000191 8.37775928,35.6570617 8.37775928,35.2344447 L8.37775928,31.5792 C9.08506575,31.4072426 9.70437646,31.008466 10.1543765,30.4636787 C10.604281,31.008466 11.2239735,31.4072426 11.9311845,31.5792 L11.9311845,35.2344447 C11.9311845,35.6570617 12.2726691,36.0000191 12.6939417,36.0000191 L17.0065928,36.0000191 C17.4278653,36.0000191 17.7698271,35.6570617 17.7698271,35.2344447 L17.7698271,31.5792 C18.476561,31.4072426 19.0962534,31.008466 19.5462534,30.4636787 C19.996158,31.008466 20.6158505,31.4072426 21.3226797,31.5792 L21.3226797,35.2344447 C21.3226797,35.6570617 21.6641644,36.0000191 22.0854369,36.0000191 L26.3984698,36.0000191 C26.819456,36.0000191 27.1613224,35.6570617 27.1613224,35.2344447 L27.1613224,31.5792 C27.8681516,31.4072426 28.4877487,31.008466 28.9377487,30.4636787 C29.3877487,31.008466 30.0073457,31.4072426 30.714175,31.5792 L30.714175,35.2344447 C30.714175,35.6570617 31.0560414,36.0000191 31.4773139,36.0000191 L35.7900604,36.0000191 C36.211333,36.0000191 36.5528176,35.6570617 36.5528176,35.2344447 L36.5528176,31.5792 C38.0078971,31.2255191 39.0923828,29.9086468 39.0923828,28.3415936 L39.0923828,7.70373191 C39.0923828,6.1370617 38.0078971,4.81980638 36.5528176,4.46641277 Z" id="Fill-1" fill="#08D9D6" mask="url(#mask-2)"></path>
                </g>
                <path d="M10.1737662,12.5217391 C9.74156689,12.5217391 9.39130435,12.8639123 9.39130435,13.2860342 L9.39130435,13.3222789 C9.39130435,13.7447834 9.74156689,14.0869565 10.1737662,14.0869565 C10.6058676,14.0869565 10.9565217,13.7447834 10.9565217,13.3222789 L10.9565217,13.2860342 C10.9565217,12.8639123 10.6058676,12.5217391 10.1737662,12.5217391" id="Fill-4" fill="#08D9D6"></path>
                <path d="M28.9565217,21.9130435 C28.5242852,21.9130435 28.173913,22.2552166 28.173913,22.6773385 L28.173913,22.7139658 C28.173913,23.1360877 28.5242852,23.4782609 28.9565217,23.4782609 C29.3887583,23.4782609 29.7391304,23.1360877 29.7391304,22.7139658 L29.7391304,22.6773385 C29.7391304,22.2552166 29.3887583,21.9130435 28.9565217,21.9130435" id="Fill-6" fill="#08D9D6"></path>
                <path d="M7.04333142,17.2173913 C6.61123,17.2173913 6.26086957,17.5116045 6.26086957,17.8748895 L6.26086957,21.2558742 C6.26086957,21.6188303 6.61123,21.9130435 7.04333142,21.9130435 C7.47543284,21.9130435 7.82608696,21.6188303 7.82608696,21.2558742 L7.82608696,17.8748895 C7.82608696,17.5116045 7.47543284,17.2173913 7.04333142,17.2173913" id="Fill-8" fill="#08D9D6"></path>
                <path d="M25.8262828,12.5217391 C25.3941543,12.5217391 25.0434783,12.8159575 25.0434783,13.1789199 L25.0434783,16.5599638 C25.0434783,16.9229263 25.3937627,17.2173913 25.8262828,17.2173913 C26.2584112,17.2173913 26.6086957,16.9229263 26.6086957,16.5599638 L26.6086957,13.1789199 C26.6086957,12.8159575 26.2584112,12.5217391 25.8262828,12.5217391" id="Fill-10" fill="#08D9D6"></path>
            </g>
        </g>
    </g>
</svg>