<?xml version="1.0" encoding="UTF-8"?>
<svg width="40px" height="40px" viewBox="0 0 40 40" version="1.1" xmlns="http://www.w3.org/2000/svg" xmlns:xlink="http://www.w3.org/1999/xlink">
    <!-- Generator: Sketch 51.2 (57519) - http://www.bohemiancoding.com/sketch -->
    <title>Group 16</title>
    <desc>Created with Sketch.</desc>
    <defs>
        <polygon id="path-1" points="9.53875529e-06 0.101818182 39.9775385 0.101818182 39.9775385 39.9999728 9.53875529e-06 39.9999728"></polygon>
    </defs>
    <g id="Page-1" stroke="none" stroke-width="1" fill="none" fill-rule="evenodd">
        <g id="Group-16">
            <g id="Group-3">
                <mask id="mask-2" fill="white">
                    <use xlink:href="#path-1"></use>
                </mask>
                <g id="Clip-2"></g>
                <path d="M38.6646462,31.7681662 C38.6666974,33.7109195 37.8605436,35.5648416 36.4439282,36.8749714 L36.3469026,36.9565299 C35.1421846,38.0615688 33.5744923,38.672374 31.9494667,38.6705039 L27.9454667,38.6705039 C26.5256718,38.6687377 25.1438256,38.2025558 24.0072103,37.340426 L22.8453641,36.4552312 C21.5553128,35.4731013 20.6257744,34.0827636 20.2039282,32.5047896 C19.4210564,29.6114909 19.5397231,26.5437506 20.5432103,23.7211013 L25.3750051,10.0778805 L29.5276205,10.0778805 L31.0877231,16.7215169 C31.7508,19.5420883 33.1029026,22.148426 35.020441,24.3014649 L36.9743897,26.4958545 C38.0612615,27.7187117 38.6630051,29.3055169 38.6646462,30.9508156 L38.6646462,31.7681662 Z M19.0380821,38.6705039 C17.6176718,38.6687377 16.236441,38.2020364 15.0998256,37.340426 L13.937159,36.4552312 C12.6457744,35.4735169 11.7152103,34.0834909 11.2925436,32.5047896 C10.5100821,29.6114909 10.6282359,26.5442701 11.6309026,23.7211013 L16.4676205,10.0778805 L23.9799282,10.0778805 L19.3063897,23.272374 C18.2098769,26.3602701 18.0830051,29.7166338 18.9425949,32.8805818 C19.4443385,34.7345039 20.5400308,36.3664 22.0575692,37.5198545 L23.2186974,38.4041143 C23.3420821,38.4979325 23.4715179,38.584374 23.6001333,38.6705039 L19.0380821,38.6705039 Z M14.5877231,38.6705039 C13.1674154,38.6687377 11.7860821,38.2020364 10.6490564,37.340426 L9.48085128,36.4560623 C8.19264615,35.4702961 7.26515897,34.0786078 6.84382564,32.5003221 C6.56413333,31.4804779 6.39777436,30.4322701 6.34885128,29.3749195 L5.03613333,29.4415169 C5.09100513,30.6055688 5.27490256,31.7596468 5.58362051,32.8819325 C6.08495385,34.7340883 7.17818462,36.3659844 8.69233846,37.5218286 L9.86064615,38.4041143 C9.98392821,38.4979325 10.1133641,38.584374 10.2418769,38.6705039 L9.56618462,38.6705039 C8.14577436,38.6687377 6.76444103,38.2025558 5.62741538,37.340426 L4.46556923,36.4552312 C3.17582564,35.4731013 2.24587692,34.0827636 1.82454359,32.5047896 C1.04156923,29.6114909 1.15992821,26.5437506 2.16392821,23.7211013 L6.99562051,10.0778805 L15.0692615,10.0778805 L10.3957231,23.272374 C9.30003077,26.3606857 9.1733641,29.7166338 10.0327487,32.8805818 C10.5343897,34.7340883 11.6298769,36.3659844 13.1466974,37.5198545 L14.3117231,38.4041143 C14.4359282,38.4979325 14.5653641,38.584374 14.6939795,38.6705039 L14.5877231,38.6705039 Z M10.7102872,2.09897143 C10.8641333,1.59891948 11.3893641,1.32058182 11.8829026,1.47642597 C12.2699795,1.59933506 12.5352103,1.96068571 12.5397231,2.37128312 C12.541159,2.46863377 12.5269026,2.56608831 12.4976718,2.65855584 L10.6194154,8.74832208 L8.66669744,8.74832208 L10.7102872,2.09897143 Z M19.6046462,2.09897143 C19.7290564,1.70614026 20.0880308,1.43819221 20.4952103,1.43372468 C21.0116205,1.43268571 21.4318256,1.85502338 21.4338769,2.37814026 C21.4326462,2.4731013 21.4182872,2.56764675 21.3914154,2.65855584 L19.5140821,8.74832208 L17.5544923,8.74832208 L19.6046462,2.09897143 Z M29.0897744,2.09897143 C29.2439282,1.59891948 29.7688513,1.32058182 30.2623897,1.47642597 C30.6494667,1.59933506 30.9145949,1.96068571 30.9190051,2.37128312 C30.9206462,2.46863377 30.9061846,2.56608831 30.8769538,2.65855584 L28.9992103,8.74832208 L27.0460821,8.74832208 L29.0897744,2.09897143 Z M37.9506974,25.6042182 L35.9943897,23.409413 C34.2243385,21.4224 32.9755179,19.0171013 32.3630051,16.4134649 L30.6826974,9.2596987 C30.6369538,9.07455584 30.5139795,8.91871169 30.3461846,8.83268571 L32.1241333,3.06603636 C32.1966462,2.84203636 32.233159,2.60743896 32.2319282,2.37128312 C32.2263897,1.1131013 31.2151077,0.0977246753 29.973159,0.103542857 C28.9939795,0.10801039 28.1301846,0.753620779 27.8373641,1.70001039 L25.6678256,8.74832208 L20.8890564,8.74832208 L22.6482359,3.04307532 C22.7119282,2.82707532 22.745159,2.60338701 22.7468,2.37814026 C22.7459795,1.12047792 21.7388,0.101464935 20.497159,0.101776623 C19.5144923,0.102607792 18.6457744,0.749464935 18.3526462,1.70001039 L16.1795179,8.74832208 L11.9948,8.74832208 L13.7468,3.06603636 C13.8184923,2.84203636 13.8541846,2.60743896 13.8525436,2.37128312 C13.8469026,1.1131013 12.8356205,0.0977246753 11.5937744,0.103542857 C10.6145949,0.10801039 9.75069744,0.753620779 9.45746667,1.70001039 L7.28844103,8.74832208 L6.53326154,8.74832208 C6.25644103,8.74832208 6.00915897,8.92442597 5.91592821,9.18821818 L0.927107692,23.272374 C-0.169405128,26.3602701 -0.296584615,29.7166338 0.563312821,32.8805818 C1.06444103,34.7345039 2.1602359,36.3664 3.67777436,37.5198545 L4.83941538,38.4041143 C6.20341538,39.4381922 7.86126154,39.9978805 9.5653641,39.9999584 L31.9490564,39.9999584 C33.8882359,40.0036987 35.7596205,39.2771532 37.2003385,37.9621403 L37.2968513,37.8809974 C39.0019795,36.3180883 39.9755179,34.0977247 39.9775692,31.7681662 L39.9775692,30.9504 C39.9763385,28.9759584 39.2543897,27.0717506 37.9506974,25.6042182 Z" id="Fill-1" fill="#08D9D6" mask="url(#mask-2)"></path>
            </g>
            <polygon id="Fill-4" fill="#08D9D6" points="6 23.5552088 8.61610014 17 10 17.444379 7.38344051 24"></polygon>
            <polygon id="Fill-6" fill="#08D9D6" points="9.69763924 13 9 14.6067885 10.3003079 15 11 13.388632"></polygon>
            <path d="M17.2359243,35 L16,35.8872038 C16.5844542,36.6940758 17.2893703,37.4063981 18.0904654,38 L19,36.7864929 C18.3234139,36.2849526 17.7287228,35.682346 17.2359243,35" id="Fill-8" fill="#08D9D6"></path>
            <path d="M16,23.4670711 L14.8570393,23 C13.844784,26.2140381 13.7262196,29.7065641 14.5172812,33 L15.1070679,32.8350303 L15.68699,32.6272747 C14.9629884,29.6099437 15.0722574,26.4112868 16,23.4670711" id="Fill-10" fill="#08D9D6"></path>
            <path d="M35.7141836,32.2601649 C35.7129793,33.4999642 35.2194458,34.6809647 34.3559126,35.5116313 L34.287673,35.5800517 C33.5844027,36.2595519 32.6682849,36.6357573 31.7185489,36.6345813 L27.7886451,36.6345813 C26.9549166,36.6349021 26.1434664,36.346788 25.4766241,35.8131087 L24.3398312,34.9031172 C23.5530677,34.2796362 22.9827645,33.395623 22.7173321,32.3896291 C22.4448751,31.355198 22.2994644,30.287305 22.2846122,29.2128906 C22.2983605,28.1103598 22.9007765,27.1127046 23.8369648,26.6421004 C24.1826792,26.4596104 24.564119,26.3656392 24.9497736,26.3685257 L29.0152536,26.3685257 C30.0242978,26.3672428 31.0270199,26.5284584 31.9906045,26.8475755 L32.6228252,27.0588235 C33.287259,27.2831142 33.8835535,27.6910709 34.3511961,28.2411069 L34.7161781,28.6707657 C35.3574305,29.4254215 35.7129793,30.4068269 35.7141836,31.4249013 L35.7141836,32.2601649 Z M35.6718348,27.7567118 L35.3045447,27.3265184 C34.6835635,26.59442 33.891381,26.0515467 33.0089815,25.7525281 L32.3731482,25.5412801 C31.28613,25.1808969 30.1540536,24.9984069 29.0152536,25.0000105 L24.9497736,25.0000105 C24.3551851,24.9988345 23.7687251,25.1478627 23.2383622,25.4348008 C21.8741705,26.1420969 21.0062219,27.6143118 21,29.2304234 C21.0160564,30.4226491 21.1772225,31.6069637 21.4789824,32.75493 C21.8208834,34.0508554 22.5554636,35.1900553 23.5684216,35.9947435 L24.7071213,36.9051627 C25.5958429,37.6171626 26.6781445,38.001386 27.7898493,37.9999962 L31.7204556,37.9999962 C32.9898142,38.001386 34.2140142,37.4981753 35.1536146,36.589039 L35.2210514,36.5208324 C36.352325,35.4310235 36.9987958,33.8820494 37,32.2567438 L37,31.4249013 C36.997993,30.0693218 36.524831,28.7627057 35.6718348,27.7567118 Z" id="Fill-12" fill="#08D9D6"></path>
            <path d="M29.4274785,21.4074 C29.2673539,21.5726079 29.0488441,21.6661493 28.8207228,21.6669826 L25.4504375,21.6669826 C25.2387786,21.6661493 25.0342772,21.5859412 24.8769133,21.4415666 L24.6025747,21.2013589 C24.3357004,20.9613595 24.2390735,20.5796938 24.3593203,20.2383405 L27.1077168,12.4433609 C27.1280647,12.380236 27.1847116,12.336382 27.2502543,12.3334653 C27.3241816,12.3302362 27.389213,12.381486 27.4052664,12.454715 L28.452518,16.941995 C28.7364682,18.1484502 29.1287019,19.3260513 29.6235953,20.4591733 C29.6671541,20.5606314 29.689547,20.6696936 29.689138,20.7802141 C29.6851502,21.0159427 29.5912841,21.2409421 29.4274785,21.4074 M30.8194172,19.9136539 C30.3577553,18.8549066 29.9914933,17.755847 29.725846,16.6294958 L28.6790033,12.1475283 C28.5244003,11.4721134 27.931244,10.9955522 27.2502543,11.0000313 C26.6343984,11.0045105 26.0863346,11.3988844 25.8759027,11.9880496 L23.1274039,19.7883417 C22.8262756,20.6452145 23.069939,21.6030245 23.7421351,22.2036479 L24.016985,22.4473973 C24.4132064,22.8029172 24.9228239,22.9995833 25.4504375,23 L28.8207228,23 C30.0225775,22.99625 30.9960042,22.0046901 30.999992,20.7802141 C31.00081,20.4816732 30.939255,20.1862573 30.8194172,19.9136539" id="Fill-14" fill="#08D9D6"></path>
        </g>
    </g>
</svg>