<?xml version="1.0" encoding="UTF-8"?>
<svg width="33px" height="40px" viewBox="0 0 33 40" version="1.1" xmlns="http://www.w3.org/2000/svg" xmlns:xlink="http://www.w3.org/1999/xlink">
    <!-- Generator: Sketch 51.2 (57519) - http://www.bohemiancoding.com/sketch -->
    <title>Group 10</title>
    <desc>Created with Sketch.</desc>
    <defs>
        <polygon id="path-1" points="1.94647202e-05 0.0387542579 32.4554745 0.0387542579 32.4554745 39.9025985 1.94647202e-05 39.9025985"></polygon>
    </defs>
    <g id="Page-1" stroke="none" stroke-width="1" fill="none" fill-rule="evenodd">
        <g id="Keto_cycle4" transform="translate(-49.000000, -315.000000)">
            <g id="Group-4" transform="translate(0.000000, 171.000000)">
                <g transform="translate(25.000000, 7.000000)" id="Group-10">
                    <g transform="translate(24.000000, 137.000000)">
                        <g id="Group-3" transform="translate(0.000000, 0.058589)">
                            <mask id="mask-2" fill="white">
                                <use xlink:href="#path-1"></use>
                            </mask>
                            <g id="Clip-2"></g>
                            <path d="M16.2279513,38.3142774 C7.74522628,38.3142774 1.58834063,31.3784136 1.58834063,21.8225012 C1.58834063,16.8338881 3.18240389,11.7316983 5.96147932,7.82464234 C8.80478832,3.82795134 12.4506277,1.62707543 16.2279513,1.62707543 C20.004983,1.62707543 23.6511144,3.82795134 26.4940341,7.82464234 C29.2734988,11.7316983 30.867562,16.8338881 30.867562,21.8225012 C30.867562,31.3784136 24.7106764,38.3142774 16.2279513,38.3142774 M27.788146,6.90386375 C26.2903358,4.79846229 24.5628418,3.13179562 22.6528662,1.9506764 C20.6017713,0.681965937 18.4398248,0.0387542579 16.2279513,0.0387542579 C14.0157859,0.0387542579 11.8541314,0.681965937 9.80274453,1.9506764 C7.89276886,3.13179562 6.16527494,4.79846229 4.6673674,6.90386375 C1.70123601,11.0735961 1.94647202e-05,16.5115523 1.94647202e-05,21.8225012 C1.94647202e-05,24.4871241 0.424642336,26.9886326 1.26220925,29.2574404 C2.0669781,31.4385596 3.23486131,33.3607007 4.73315815,34.9699465 C7.69432603,38.1507737 11.7761752,39.9025985 16.2279513,39.9025985 C20.6793382,39.9025985 24.7612847,38.1507737 27.7223552,34.9703358 C29.2206521,33.3607007 30.3885353,31.4385596 31.1936934,29.2574404 C32.030871,26.9886326 32.4554939,24.4875134 32.4554939,21.8228905 C32.4554939,16.5115523 30.7542774,11.0735961 27.788146,6.90386375" id="Fill-1" fill="#08D9D6" mask="url(#mask-2)"></path>
                        </g>
                        <path d="M16.2055669,32.6577713 C11.4792409,32.6577713 7.77714842,28.604438 7.77714842,23.4299367 C7.77714842,18.1299854 11.6370024,13.6527105 16.2055669,13.6527105 C20.798365,13.6527105 24.6787543,18.1299854 24.6787543,23.4299367 C24.6787543,28.604438 20.9569051,32.6577713 16.2055669,32.6577713 M16.2055669,12.064292 C13.517781,12.064292 10.9865888,13.2821022 9.07846229,15.4926131 C7.21490998,17.6517372 6.18882725,20.470618 6.18882725,23.4299367 C6.18882725,29.4947543 10.5889246,34.2460925 16.2055669,34.2460925 C18.9142774,34.2460925 21.4457616,33.1341703 23.3337421,31.1157762 C25.2250316,29.0936837 26.2666861,26.3640487 26.2666861,23.4299367 C26.2666861,20.4725645 25.2319416,17.6532944 23.3534988,15.490764 C21.4335961,13.2812263 18.8952019,12.064292 16.2055669,12.064292" id="Fill-4" fill="#08D9D6"></path>
                        <path d="M16.2134988,15.6732749 C15.6010414,15.6732749 14.9927689,15.7675815 14.4054209,15.9538589 C13.9872214,16.0865109 13.7556886,16.532837 13.8883406,16.9510365 C13.9955912,17.2890414 14.3084866,17.5052944 14.6452263,17.5052944 C14.7247397,17.5052944 14.8053236,17.493129 14.885129,17.4676302 C15.3170511,17.3307932 15.7637664,17.2615961 16.2134988,17.2615961 C16.6518443,17.2615961 17.0072701,16.905781 17.0072701,16.4674355 C17.0072701,16.0287007 16.6518443,15.6732749 16.2134988,15.6732749" id="Fill-6" fill="#08D9D6"></path>
                        <path d="M11.9528856,18.4713285 C11.5910365,18.2238345 11.0968273,18.3169732 10.8493333,18.6789197 C9.93342092,20.0185791 9.429382,21.6716204 9.429382,23.3333236 C9.429382,23.7720584 9.78480779,24.1274842 10.2235426,24.1274842 C10.6618881,24.1274842 11.0177032,23.7720584 11.0177032,23.3333236 C11.0177032,21.9883114 11.4233479,20.6535182 12.1604769,19.5749781 C12.4079708,19.2130316 12.3148321,18.7188224 11.9528856,18.4713285" id="Fill-8" fill="#08D9D6"></path>
                    </g>
                </g>
            </g>
        </g>
    </g>
</svg>