<?xml version="1.0" encoding="UTF-8"?>
<svg width="39px" height="40px" viewBox="0 0 39 40" version="1.1" xmlns="http://www.w3.org/2000/svg" xmlns:xlink="http://www.w3.org/1999/xlink">
    <!-- Generator: Sketch 51.2 (57519) - http://www.bohemiancoding.com/sketch -->
    <title>Group 12</title>
    <desc>Created with Sketch.</desc>
    <defs>
        <polygon id="path-1" points="4.6875e-05 0 38.1173438 0 38.1173438 39.9999766 4.6875e-05 39.9999766"></polygon>
    </defs>
    <g id="Page-1" stroke="none" stroke-width="1" fill="none" fill-rule="evenodd">
        <g id="Keto_cycle4" transform="translate(-46.000000, -251.000000)">
            <g id="Group-4" transform="translate(25.000000, 178.000000)">
                <g id="Group-12">
                    <g transform="translate(21.000000, 73.000000)">
                        <path d="M5.89494531,7.5883125 C5.54994531,7.32917188 5.06025781,7.3989375 4.80119531,7.74385938 C3.42947656,9.5701875 2.73408594,11.7470625 2.73408594,14.2137813 C2.73408594,15.01925 2.94955469,15.8137813 3.35713281,16.5113594 C3.50228906,16.7600313 3.76377344,16.898625 4.03244531,16.898625 C4.16627344,16.898625 4.30182031,16.86425 4.42572656,16.7918281 C4.79830469,16.57425 4.92385156,16.0958125 4.70619531,15.7232344 C4.43822656,15.2645625 4.29658594,14.7426094 4.29658594,14.2137813 C4.29658594,12.093 4.88674219,10.23175 6.05057031,8.68198438 C6.30955469,8.3370625 6.23994531,7.84745313 5.89494531,7.5883125" id="Fill-1" fill="#08D9D6"></path>
                        <g id="Group-5">
                            <mask id="mask-2" fill="white">
                                <use xlink:href="#path-1"></use>
                            </mask>
                            <g id="Clip-4"></g>
                            <path d="M32.5005938,26.4333359 C32.4133281,26.2737266 32.3144219,26.0928672 32.1655156,25.9077891 C31.9530156,25.6438828 31.5944219,25.5467734 31.277625,25.6679453 C30.9609063,25.7891953 30.7585625,26.1008359 30.7769219,26.4393516 C30.8752031,28.2719297 31.3666094,29.8226328 31.8002813,31.1907578 C32.1490313,32.2910703 32.450125,33.2413047 32.4397344,34.0316172 C32.421375,35.4048203 31.0386406,36.5219297 29.3573125,36.5219297 C27.6759063,36.5219297 26.2931719,35.4048203 26.2748906,34.0316953 C26.2643438,33.2413047 26.5655156,32.2910703 26.9142656,31.1907578 C27.3479375,29.8226328 27.8392656,28.2720078 27.9377031,26.4394297 C27.9559063,26.1009141 27.7536406,25.7891953 27.437,25.6680234 C27.3459063,25.6331797 27.2514531,25.6163828 27.1579375,25.6163828 C26.9261406,25.6163828 26.7005938,25.7196641 26.5490313,25.9078672 C26.4002031,26.0929453 26.3012188,26.2738047 26.2140313,26.4334141 C26.0141875,26.7988047 25.9130938,26.9834922 25.012,27.0281016 L24.822,27.0281016 C24.1037188,27.0281016 23.451375,26.7459141 22.9719219,26.2888047 C22.9640313,26.2803672 22.9569219,26.2712266 22.9486406,26.2630234 C22.6309063,25.9521641 22.4023906,25.5782578 22.2755156,25.1708359 C22.2741875,25.1665391 22.2730938,25.1621641 22.2716875,25.1578672 C22.26075,25.1219297 22.2504375,25.0857578 22.2409844,25.0493516 C22.2380156,25.0379453 22.2355938,25.0263828 22.2327813,25.0149766 C22.2255156,24.9851328 22.2184063,24.9552891 22.2122344,24.9251328 C22.2087969,24.9083359 22.2060625,24.8913047 22.2029375,24.8743516 C22.1983281,24.8490391 22.1933281,24.8238047 22.1895,24.7982578 C22.1862969,24.7772422 22.1839531,24.7559141 22.1812969,24.7347422 C22.1784844,24.7129453 22.1752813,24.6910703 22.1730156,24.6691172 C22.1702813,24.6429453 22.1687969,24.6163828 22.1669219,24.5899766 C22.1656719,24.5727891 22.1637969,24.5556016 22.1630156,24.5381797 C22.1606719,24.4942734 22.1595781,24.4499766 22.1595781,24.4056016 C22.1595781,24.3322422 22.1610625,24.2602891 22.1633281,24.1888047 C22.1645,24.1523984 22.1662188,24.1161484 22.1680156,24.0798203 C22.1695,24.0489609 22.1710625,24.0183359 22.1728594,23.9878672 C22.1759063,23.9390391 22.1792656,23.8902109 22.18325,23.8416172 C22.1842656,23.8304453 22.1852813,23.8193516 22.1862969,23.8081797 C22.191375,23.7512266 22.1968438,23.6944297 22.2034063,23.6380234 C22.2037188,23.6360703 22.2037188,23.6341172 22.203875,23.6322422 C22.3329375,22.5154453 22.7365313,21.6369297 23.2499688,20.9516953 C23.2558281,20.9445078 23.262,20.9377109 23.2675469,20.9302891 C24.7424688,18.9798203 27.7196563,17.9421641 30.6761406,18.3480234 C30.6836406,18.3490391 30.6910625,18.3487266 30.6985625,18.3494297 C31.5885625,18.4741953 32.4527031,18.7274766 33.2343438,19.1131016 C35.3758281,20.1695078 36.5552031,22.0491172 36.5552031,24.4056016 C36.5552031,25.8516172 35.3609063,27.0281016 33.8927813,27.0281016 L33.7028594,27.0281016 C32.8014531,26.9834141 32.7003594,26.7988047 32.5005938,26.4333359 M33.6837188,28.5904453 L33.8924688,28.5904453 C36.2220781,28.5904453 38.1173906,26.7131016 38.1173906,24.4056016 C38.1173906,21.4226328 36.6285625,19.0455234 33.9252031,17.7118516 C33.3036406,17.4052109 32.6386406,17.1670859 31.9448125,16.9981016 C32.3097344,16.1172422 32.5006719,15.1716172 32.5006719,14.2137266 C32.5006719,13.7823203 32.1508281,13.4325547 31.7195,13.4325547 C31.2880156,13.4325547 30.93825,13.7823203 30.93825,14.2137266 C30.93825,15.0895859 30.7358281,15.9531797 30.3492656,16.7385703 C30.2612188,16.7309922 30.1729375,16.7247422 30.0843438,16.7193516 C30.0673906,16.7182578 30.0505156,16.7171641 30.0335625,16.7161484 C29.9722344,16.7126328 29.91075,16.7095859 29.8491875,16.7070859 C29.7767656,16.7039609 29.7045,16.7016953 29.6322344,16.6999766 C29.6175469,16.6996641 29.6027031,16.6991953 29.5880156,16.6989609 C28.3605938,16.6745078 27.1659844,16.8538828 26.0708281,17.2130234 C26.0522344,17.2191953 26.0337188,17.2253672 26.0152031,17.2314609 C25.9448125,17.2551328 25.8748125,17.2794297 25.8052813,17.3044297 C25.7723125,17.3162266 25.7393438,17.3280234 25.7066875,17.3401328 C25.655125,17.3594297 25.603875,17.3792734 25.5527031,17.3993516 C25.5078594,17.4168516 25.4629375,17.4341953 25.4184844,17.4523203 C25.3954375,17.4617734 25.3727813,17.4717734 25.3498906,17.4813828 C24.9020781,17.6683359 24.4741875,17.8865391 24.0717656,18.1367734 C23.4516094,18.5223203 22.9089531,18.9720859 22.4477031,19.4765391 C22.4474688,19.4768516 22.4471563,19.4770859 22.4469219,19.4773984 C22.1008281,19.2274766 21.9234063,18.9030234 21.7012969,18.4967734 C21.5496563,18.2197422 21.3790313,17.9082578 21.136375,17.6031016 C21.1320781,17.5973984 21.1280938,17.5914609 21.1235625,17.5858359 C21.0379375,17.4793516 20.9469219,17.3789609 20.8502813,17.2841953 C20.8471563,17.2811484 20.8437969,17.2780234 20.8405938,17.2749766 C20.8095,17.2446641 20.7777031,17.2148203 20.7453594,17.1856797 C20.7331719,17.1747422 20.7205938,17.1639609 20.7081719,17.1529453 C20.6829375,17.1309922 20.6574688,17.1091172 20.6315313,17.0877891 C20.6173906,17.0761484 20.6030156,17.0644297 20.5884063,17.0527891 C20.5598125,17.0299766 20.5305938,17.0076328 20.5010625,16.9856016 C20.4895,16.9769297 20.4781719,16.9681016 20.466375,16.9595078 C20.422625,16.9277891 20.3781719,16.8967734 20.3325469,16.8667734 C20.331375,16.8659922 20.3302031,16.8652891 20.3291094,16.8645859 C20.2816094,16.8333359 20.2327031,16.8032578 20.1830938,16.7738828 C20.1810625,16.7727109 20.1792656,16.7714609 20.1773125,16.7702891 C20.175125,16.7690391 20.1729375,16.7679453 20.1708281,16.7666953 C19.3898906,16.3084922 18.3384063,16.0718516 16.8995,16.0193516 C16.8966094,16.0192734 16.8937188,16.0191953 16.8908281,16.0190391 C16.80075,16.0158359 16.708875,16.0134141 16.61575,16.0116172 C16.5934063,16.0111484 16.5711406,16.0107578 16.5484844,16.0102891 C16.4506719,16.0087266 16.3516094,16.0077891 16.2502813,16.0077891 C16.148875,16.0077891 16.0499688,16.0087266 15.952,16.0102891 C15.9295,16.0107578 15.9071563,16.0111484 15.8848125,16.0116172 C15.7912969,16.0134141 15.6991094,16.0158359 15.6087188,16.0191172 C15.6062969,16.0191953 15.6037969,16.0192734 15.601375,16.0193516 C14.1623125,16.0717734 13.11075,16.3084141 12.3297344,16.7666953 C12.3277031,16.7679453 12.3253594,16.7690391 12.32325,16.7702891 C12.3212969,16.7714609 12.3195,16.7727109 12.3175469,16.7738828 C12.2675469,16.8034922 12.2184063,16.8337266 12.1705938,16.8651328 C12.1698125,16.8656016 12.1690313,16.8661484 12.16825,16.8666172 C12.1223125,16.8968516 12.0774688,16.9280234 12.0335625,16.9599766 C12.0225469,16.9680234 12.0120781,16.9761484 12.0012188,16.9841953 C11.9706719,17.0069297 11.9405938,17.0300547 11.9109844,17.0535703 C11.8972344,17.0646641 11.8836406,17.0757578 11.870125,17.0868516 C11.8430156,17.1091172 11.816375,17.1318516 11.7900469,17.1549766 C11.7787969,17.1649766 11.7673125,17.1748203 11.7562188,17.1848203 C11.7214531,17.2160703 11.6873906,17.2479453 11.6540313,17.2805234 C11.6530938,17.2814609 11.6520781,17.2823203 11.6511406,17.2832578 C11.5541875,17.3784141 11.4627813,17.4791172 11.3769219,17.5859141 C11.3720781,17.5918516 11.3677813,17.5982578 11.3631719,17.6043516 C11.1210625,17.9091172 10.9506719,18.2201328 10.7992656,18.4968516 C10.34575,19.3261484 10.0179375,19.9260703 7.8435625,20.0314609 L7.4573125,20.0314609 C4.20676563,20.0314609 1.56223438,17.4216172 1.56223438,14.2137266 C1.56223438,6.60333594 7.46121875,2.84114844 12.9817656,1.85802344 C19.6423906,0.671929687 27.6936406,3.02583594 30.1930156,9.82067969 C30.2164531,9.88411719 30.2393438,9.94810156 30.2616875,10.0124766 C30.4034844,10.4198984 30.8489531,10.6355234 31.2561406,10.4934922 C31.6637188,10.3516953 31.8791094,9.90646094 31.7372344,9.49896094 C31.7117656,9.42599219 31.6858281,9.35341406 31.6592656,9.28130469 C30.3811406,5.80661719 27.7144219,3.11950781 23.9475469,1.51083594 C20.54575,0.0578671875 16.553875,-0.365023438 12.7078594,0.319820312 C9.15145313,0.953179687 6.08707813,2.46169531 3.84559375,4.68224219 C1.32973438,7.17458594 4.6875e-05,10.4705234 4.6875e-05,14.2138047 C4.6875e-05,18.2832578 3.34535938,21.5939609 7.45746875,21.5939609 L7.86239063,21.5939609 C7.87457813,21.5939609 7.88684375,21.5937266 7.89910938,21.5930234 C9.34160938,21.5252891 10.2506719,21.2307578 10.8830156,20.7995078 C10.5072344,22.9413828 9.8904375,24.8927109 9.32551563,26.6750547 C8.58942188,28.9977891 7.95364063,31.0038047 7.97903125,32.9067734 C8.0045,34.8221641 8.89004688,36.6159141 10.4725469,37.9574766 C12.0264531,39.2745859 14.0783281,39.9999766 16.2504375,39.9999766 C16.6234844,39.9999766 16.9991875,39.9781797 17.3669219,39.9350547 C17.7953594,39.8849766 18.1020781,39.4968516 18.052,39.0684141 C18.0016875,38.6398984 17.6139531,38.3329453 17.1852031,38.3833359 C16.8775469,38.4193516 16.5630156,38.4376328 16.2504375,38.4376328 C12.5916875,38.4376328 9.582,35.9471641 9.54121875,32.8860703 C9.51926563,31.2353672 10.1196563,29.3407578 10.8149688,27.1470859 C11.6191094,24.6097422 12.5272344,21.7436484 12.7481719,18.4085703 C12.9359063,18.2252891 13.1773125,18.0628672 13.5130938,17.9308359 C13.9994219,17.7450547 14.713875,17.6063047 15.8009844,17.5764609 C15.8318438,17.5756797 15.862625,17.5748203 15.8941094,17.5741953 C15.9309063,17.5734141 15.9680938,17.5727109 16.00575,17.5721641 C16.08575,17.5710703 16.1666094,17.5702109 16.2504375,17.5702109 C16.3341875,17.5702109 16.4150469,17.5710703 16.495125,17.5721641 C16.5325469,17.5727109 16.5695781,17.5734141 16.6061406,17.5741172 C16.6380156,17.5747422 16.6691094,17.5756016 16.7003594,17.5764609 C17.7885625,17.6063828 18.5033281,17.7454453 18.9895781,17.9315391 C19.3243438,18.0633359 19.565125,18.2253672 19.7524688,18.4082578 C19.8612969,20.0569297 20.1441094,21.7213828 20.6354375,23.6084141 C20.6343438,23.6197422 20.6337188,23.6312266 20.6325469,23.6426328 C20.6298906,23.6720859 20.6274688,23.7016953 20.6250469,23.7312266 C20.6215313,23.7742734 20.61825,23.8173984 20.6154375,23.8606016 C20.6133281,23.8939609 20.6112188,23.9273203 20.6094219,23.9608359 C20.6070781,24.0056016 20.6052031,24.0502891 20.6035625,24.0951328 C20.6023906,24.1240391 20.6012188,24.1530234 20.6004375,24.1821641 C20.5983281,24.2566172 20.5971563,24.3311484 20.5971563,24.4056016 C20.5971563,24.4748984 20.5990313,24.5438828 20.6023906,24.6126328 C20.6034844,24.6331016 20.6053594,24.6532578 20.6067656,24.6737266 C20.6098906,24.7222422 20.6131719,24.7706797 20.6178594,24.8188047 C20.620125,24.8409922 20.6231719,24.8629453 20.6256719,24.8849766 C20.6309844,24.9313828 20.6366875,24.9776328 20.6434844,25.0236484 C20.6467656,25.0449766 20.6505156,25.0660703 20.6540313,25.0872422 C20.6617656,25.1338828 20.6699688,25.1804453 20.6793438,25.2266953 C20.68325,25.2463828 20.687625,25.2659922 20.692,25.2855234 C20.7021563,25.3329453 20.7130938,25.3801328 20.7249688,25.4270078 C20.7295781,25.4452109 20.7345,25.4631016 20.7392656,25.4811484 C20.7520781,25.5290391 20.76575,25.5765391 20.7802813,25.6238828 C20.7855156,25.6407578 20.7908281,25.6577109 20.796375,25.6745859 C20.8115313,25.7219297 20.827625,25.7687266 20.8445,25.8153672 C20.8505938,25.8323203 20.8568438,25.8491953 20.8631719,25.8659922 C20.8802031,25.9110703 20.8980938,25.9557578 20.9167656,26.0002109 C20.9243438,26.0184922 20.932,26.0369297 20.9398906,26.0551328 C20.957625,26.0958359 20.9762188,26.1360703 20.9952813,26.1763047 C21.0056719,26.1981016 21.0159063,26.2200547 21.0266094,26.2416953 C21.04325,26.2752109 21.0606719,26.3083359 21.0783281,26.3414609 C21.0931719,26.3696641 21.1080156,26.3977109 21.1234844,26.4253672 C21.1364531,26.4484922 21.150125,26.4713828 21.1635625,26.4942734 C21.1852813,26.5315391 21.2070781,26.5685703 21.2299688,26.6050547 C21.2359844,26.6145859 21.2423906,26.6240391 21.2484844,26.6335703 C21.3855938,26.8485703 21.541375,27.0506016 21.7145,27.2368516 C22.397625,29.3924766 22.9812969,31.2578672 22.9597344,32.8858359 C22.9402031,34.3501328 22.2447344,35.7329453 21.0012969,36.7797422 C20.6711406,37.0575547 20.6287969,37.5503672 20.9066875,37.8803672 C21.1845,38.2105234 21.6773125,38.2527891 22.0074688,37.9749766 C23.6033281,36.6316172 24.496375,34.8316172 24.522,32.9066953 C24.5405156,31.5045859 24.1998906,30.0459922 23.7249688,28.4464609 C24.0750469,28.5398203 24.442625,28.5903672 24.8220781,28.5903672 L25.0309063,28.5903672 C25.0430938,28.5903672 25.0553594,28.5901328 25.067625,28.5895859 C25.4661406,28.5707578 25.7964531,28.5199766 26.0737969,28.4439609 C25.8887188,29.2556016 25.6487188,30.0131016 25.4250469,30.7186484 C25.0516094,31.8968516 24.6989531,33.0097422 24.7127813,34.0523984 C24.7423906,36.2754453 26.8259844,38.0841953 29.3574688,38.0841953 C31.888875,38.0841953 33.9725469,36.2754453 34.0021563,34.0523203 C34.0159844,33.0097422 33.6633281,31.8969297 33.2899688,30.7187266 C33.0662969,30.0131016 32.8262969,29.2556797 32.6411406,28.4439609 C32.9184063,28.5199766 33.2487969,28.5707578 33.6473125,28.5895859 C33.6593438,28.5901328 33.6714531,28.5904453 33.6837188,28.5904453" id="Fill-3" fill="#08D9D6" mask="url(#mask-2)"></path>
                        </g>
                        <path d="M7.26274219,5.78392187 C7.69414844,5.78392187 8.04391406,6.1336875 8.04391406,6.56517187 C8.04391406,6.99657812 7.69414844,7.34634375 7.26274219,7.34634375 C6.83133594,7.34634375 6.48149219,6.99657812 6.48149219,6.56517187 C6.48149219,6.1336875 6.83133594,5.78392187 7.26274219,5.78392187" id="Fill-6" fill="#08D9D6"></path>
                        <path d="M31.479625,11.0179141 C31.9110313,11.0179141 32.2607969,11.3676797 32.2607969,11.7990859 C32.2607969,12.2304922 31.9110313,12.5803359 31.479625,12.5803359 C31.0482188,12.5803359 30.6984531,12.2304922 30.6984531,11.7990859 C30.6984531,11.3676797 31.0482188,11.0179141 31.479625,11.0179141" id="Fill-8" fill="#08D9D6"></path>
                        <path d="M19.6836641,37.5783516 C20.1150703,37.5783516 20.4648359,37.9281953 20.4648359,38.3596016 C20.4648359,38.7910078 20.1150703,39.1407734 19.6836641,39.1407734 C19.2522578,39.1407734 18.9024141,38.7910078 18.9024141,38.3596016 C18.9024141,37.9281953 19.2522578,37.5783516 19.6836641,37.5783516" id="Fill-10" fill="#08D9D6"></path>
                    </g>
                </g>
            </g>
        </g>
    </g>
</svg>