<?xml version="1.0" encoding="UTF-8"?>
<svg width="25px" height="40px" viewBox="0 0 25 40" version="1.1" xmlns="http://www.w3.org/2000/svg" xmlns:xlink="http://www.w3.org/1999/xlink">
    <!-- Generator: Sketch 51.2 (57519) - http://www.bohemiancoding.com/sketch -->
    <title>Group 15</title>
    <desc>Created with Sketch.</desc>
    <defs>
        <polygon id="path-1" points="0.00506801855 0.0490794786 7.98584452 0.0490794786 7.98584452 3 0.00506801855 3"></polygon>
        <polygon id="path-3" points="3.65057482e-06 0 24.991433 0 24.991433 39.9955469 3.65057482e-06 39.9955469"></polygon>
    </defs>
    <g id="Page-1" stroke="none" stroke-width="1" fill="none" fill-rule="evenodd">
        <g id="Keto_cycle9" transform="translate(-50.000000, -1022.000000)">
            <g id="Group-15" transform="translate(50.000000, 1022.000000)">
                <g id="Group-3" transform="translate(9.000000, 37.000000)">
                    <mask id="mask-2" fill="white">
                        <use xlink:href="#path-1"></use>
                    </mask>
                    <g id="Clip-2"></g>
                    <path d="M7.46776907,0.112702941 C7.04517113,-0.0687088235 6.56492371,0.151085294 6.3953567,0.603467647 C6.25374845,0.981379412 5.89473814,1.23532059 5.5019134,1.23532059 L2.48896495,1.23532059 C2.09630515,1.23532059 1.73721237,0.981379412 1.59552165,0.603467647 C1.42611959,0.151085294 0.945954639,-0.0682676471 0.523109278,0.112702941 C0.100346392,0.294114706 -0.104931959,0.807732353 0.0644701031,1.26002647 C0.460676289,2.31699706 1.41226392,3.00002647 2.48896495,3.00002647 L5.5019134,3.00002647 C6.57877938,3.00002647 7.53036701,2.31699706 7.92640825,1.26002647 C8.09589278,0.807732353 7.89053196,0.294114706 7.46776907,0.112702941" id="Fill-1" fill="#08D9D6" mask="url(#mask-2)"></path>
                </g>
                <g id="Group-6">
                    <mask id="mask-4" fill="white">
                        <use xlink:href="#path-3"></use>
                    </mask>
                    <g id="Clip-5"></g>
                    <path d="M22.9479128,35.5665625 L21.2801558,37.7044531 C20.699081,38.4492187 19.6452648,38.6542187 18.8287539,38.1814062 C18.012243,37.7085156 17.6623209,36.6904687 18.0148131,35.8132031 L19.0265732,33.2953906 C19.2743146,32.6789844 19.7756386,32.2011719 20.4020405,31.9845312 C20.6446417,31.9007031 20.8965109,31.8592187 21.1474455,31.8592187 C21.5444081,31.8592187 21.9390343,31.9630469 22.2905919,32.1666406 C22.8644237,32.4989844 23.2658255,33.0638281 23.3920717,33.7163281 C23.5180841,34.3688281 23.3562461,35.0432031 22.9479128,35.5665625 M6.16278816,38.1814844 C5.34643302,38.654375 4.29246106,38.4494531 3.71138629,37.7045313 L2.0435514,35.5666406 C1.63521807,35.0432812 1.47338006,34.3689062 1.59954829,33.7164062 C1.72571651,33.0639062 2.12719626,32.4990625 2.70102804,32.1667187 C3.27478193,31.8344531 3.96317757,31.7682031 4.58957944,31.9846875 C5.21598131,32.2013281 5.7173053,32.6792187 5.96504673,33.2955469 L6.97680685,35.8134375 C7.32922118,36.6905469 6.97922118,37.7085938 6.16278816,38.1814844 M2.07065421,27.4575781 C2.51652648,24.4846875 4.49253894,22.0283594 7.26660436,20.9571094 C8.73794393,22.0253906 10.5446417,22.65625 12.4957321,22.65625 C14.4468224,22.65625 16.2535202,22.0253906 17.7248598,20.9571094 C20.4989252,22.0283594 22.4749377,24.4846875 22.92081,27.4575781 C23.021433,28.12875 22.826028,28.80875 22.384595,29.3232031 C21.9939408,29.7785156 21.4465888,30.0614844 20.8567913,30.120625 L20.8567913,29.0174219 C20.8567913,28.2235938 20.3805452,27.5396094 19.6997819,27.2367969 L19.6997819,26.2890625 C19.6997819,25.8576563 19.3511059,25.5078125 18.9209657,25.5078125 C18.4908255,25.5078125 18.1421495,25.8576563 18.1421495,26.2890625 L18.1421495,27.0703125 L6.85445483,27.0703125 L6.85445483,26.2890625 C6.85445483,25.8576563 6.50577882,25.5078125 6.07563863,25.5078125 C5.64549844,25.5078125 5.29682243,25.8576563 5.29682243,26.2890625 L5.29682243,27.2344531 C4.61325545,27.5360938 4.13459502,28.2215625 4.13459502,29.0174219 L4.13459502,30.120625 C3.54479751,30.0614844 2.99752336,29.7785156 2.60679128,29.3232031 C2.16543614,28.80875 1.97003115,28.12875 2.07065421,27.4575781 M12.4957321,6.28617187 C16.5653583,6.28625 19.8764174,9.60757812 19.8764174,13.69 C19.8764174,17.7724219 16.565514,21.09375 12.4957321,21.0938281 C8.42602804,21.09375 5.11496885,17.7724219 5.11496885,13.69 C5.11504673,9.60757812 8.42610592,6.28625 12.4957321,6.28617187 M24.9210436,33.4189062 C24.7095171,32.3248437 24.0375545,31.3776562 23.0770405,30.8182812 C23.251729,30.6751562 23.4155919,30.516875 23.5651246,30.3425781 C24.3027414,29.4829687 24.6293769,28.3466406 24.4610748,27.2251562 C24.1877882,25.4029687 23.4146573,23.7003906 22.2253271,22.3014062 C21.3348287,21.2539844 20.2402804,20.4099219 19.0152804,19.8167969 C20.5144237,18.2125781 21.4340498,16.0571094 21.4340498,13.69 C21.433972,9.59359375 18.6810903,6.12992187 14.9336604,5.0628125 C15.4440966,4.45148437 15.7226012,3.68773437 15.7226012,2.88070312 C15.7226791,1.29226562 14.4343614,0 12.8508723,0 L12.8507165,0 C12.2115421,0 11.612866,0.208515625 11.1651246,0.58703125 C10.6702648,1.0053125 10.397757,1.59320312 10.3976791,2.24234375 C10.3976791,2.67375 10.7463551,3.02359375 11.1764953,3.02359375 C11.6065576,3.02359375 11.9553115,2.67382812 11.9553115,2.24234375 C11.9553115,2.05648437 12.0271184,1.9015625 12.1688629,1.78171875 C12.3361526,1.6403125 12.5782866,1.56242187 12.8507944,1.56242187 L12.8508723,1.56242187 C13.5754829,1.56242187 14.1650467,2.15367187 14.1650467,2.88054687 C14.1650467,3.37289062 13.9739252,3.83570312 13.6268847,4.18382812 C13.2798442,4.531875 12.8184735,4.72359375 12.3278972,4.72359375 L12.3277414,4.72359375 C12.3086604,4.72359375 12.2899688,4.72507812 12.2712773,4.72648437 C7.44604361,4.84648437 3.55749221,8.82125 3.55741433,13.6899219 C3.55741433,16.0570312 4.4770405,18.2125 5.9761838,19.8167187 C4.75126168,20.4098437 3.6567134,21.2538281 2.76621495,22.3013281 C1.57688474,23.7003125 0.803753894,25.4028906 0.530389408,27.2250781 C0.362165109,28.3465625 0.688722741,29.4828906 1.42633956,30.3425 C1.57587227,30.5167969 1.7397352,30.6751562 1.91442368,30.8182031 C0.953909657,31.3775781 0.281869159,32.3247656 0.0704205607,33.4188281 C-0.14165109,34.5157031 0.13046729,35.6495312 0.816838006,36.5294531 L2.4846729,38.6673437 C3.15850467,39.5310937 4.1821028,39.9955469 5.22034268,39.9955469 C5.80975078,39.9955469 6.40398754,39.8458594 6.94152648,39.5345312 C8.42602804,38.6747656 9.06216511,36.8238281 8.42127726,35.2291406 L7.40951713,32.7113281 C7.34191589,32.543125 7.26200935,32.3817969 7.17283489,32.2267969 L12.8851402,32.2267969 C13.3152804,32.2267969 13.6639564,31.8769531 13.6639564,31.4455469 C13.6639564,31.0141406 13.3152804,30.6642969 12.8851402,30.6642969 L5.6923053,30.6642969 L5.6923053,29.0173437 C5.6923053,28.8052344 5.86426791,28.6327344 6.07571651,28.6327344 L18.9158255,28.6327344 C19.1271963,28.6327344 19.2992368,28.8052344 19.2992368,29.0173437 L19.2992368,30.7723437 C18.5264953,31.1972656 17.9164486,31.8788281 17.5818692,32.7113281 L16.570109,35.2290625 C15.9292212,36.8238281 16.5653583,38.6747656 18.0498598,39.5345312 C18.5874766,39.8458594 19.1814798,39.9955469 19.7710436,39.9955469 C20.8092056,39.9955469 21.8329595,39.5310156 22.5067913,38.6673437 L24.1745483,36.5294531 C24.8610748,35.6495312 25.1331153,34.5157812 24.9210436,33.4189062" id="Fill-4" fill="#08D9D6" mask="url(#mask-4)"></path>
                </g>
                <path d="M16.707,32.7069 C16.893,32.521 17,32.263 17,32 C17,31.737 16.893,31.479 16.707,31.2929 C16.521,31.107 16.263,31 16,31 C15.737,31 15.479,31.1069 15.293,31.2929 C15.107,31.4791 15,31.737 15,32 C15,32.2639 15.107,32.521 15.293,32.7069 C15.479,32.8939 15.737,33 16,33 C16.263,33 16.521,32.8939 16.707,32.7069" id="Fill-7" fill="#08D9D6"></path>
                <path d="M10.1784239,17.080899 C10.7490254,17.6650458 11.5952552,18 12.5,18 C13.4047448,18 14.2510545,17.6649795 14.8215761,17.080899 C15.0996025,16.7962874 15.046923,16.3786227 14.7039065,16.1480018 C14.36097,15.9173145 13.8575968,15.961157 13.5795705,16.245636 C13.3139346,16.517579 12.920397,16.6735151 12.5,16.6735151 C12.079603,16.6735151 11.6859855,16.5175126 11.4204295,16.245636 C11.1424831,15.9610244 10.6391099,15.9174472 10.2960935,16.1480018 C9.95307704,16.3786227 9.90039752,16.7962874 10.1784239,17.080899" id="Fill-9" fill="#08D9D6"></path>
                <path d="M9.32123059,14.7546413 C9.41975524,14.6480037 9.58019639,14.6480037 9.67879843,14.7546413 C9.82995211,14.9181579 10.0280075,15 10.226063,15 C10.4241184,15 10.6222512,14.9181579 10.7733275,14.7546413 C11.0755575,14.4275243 11.0755575,13.8971006 10.7733275,13.5698998 C10.0712717,12.8100334 8.92891211,12.8100334 8.2267015,13.5698998 C7.92447153,13.8970168 7.92439414,14.4273568 8.2267015,14.7545575 C8.52893146,15.0817583 9.01900063,15.0817583 9.32123059,14.7546413" id="Fill-11" fill="#08D9D6"></path>
                <path d="M14.7739445,15 C14.9720793,15 15.1701366,14.9181554 15.3212143,14.7546336 C15.4197399,14.6480764 15.5801827,14.6479089 15.6787857,14.7546336 C15.9810185,15.0818446 16.4710924,15.0817609 16.7733253,14.7545498 C17.0755582,14.4274226 17.0755582,13.8970659 16.7733253,13.5698549 C16.0711853,12.8100484 14.9287373,12.8100484 14.2266747,13.5698549 C13.9244418,13.8969821 13.9244418,14.4274226 14.2266747,14.7546336 C14.3777524,14.9182391 14.5758872,15 14.7739445,15" id="Fill-13" fill="#08D9D6"></path>
            </g>
        </g>
    </g>
</svg>