<?xml version="1.0" encoding="UTF-8"?>
<svg width="39px" height="39px" viewBox="0 0 39 39" version="1.1" xmlns="http://www.w3.org/2000/svg" xmlns:xlink="http://www.w3.org/1999/xlink">
    <!-- Generator: Sketch 51.2 (57519) - http://www.bohemiancoding.com/sketch -->
    <title>Group 12</title>
    <desc>Created with Sketch.</desc>
    <defs></defs>
    <g id="Page-1" stroke="none" stroke-width="1" fill="none" fill-rule="evenodd">
        <g id="Keto_cycle2" transform="translate(-156.000000, -341.000000)" fill="#08D9D6" stroke="#08D9D6" stroke-width="0.3">
            <g id="Group-12" transform="translate(157.000000, 342.000000)">
                <path d="M6.16461103,11.5297097 C6.22806466,11.551973 6.29259621,11.5625 6.35633728,11.5625 C6.59297692,11.5625 6.81474124,11.4164018 6.89810048,11.1829577 L6.90478359,11.1641086 C7.01006056,10.8676445 6.85289965,10.5428001 6.55338128,10.4385966 C6.25357546,10.3344643 5.92567183,10.4900226 5.82046672,10.7864867 L5.81428664,10.8034153 C5.70843478,11.0998794 5.86538011,11.4250084 6.16461103,11.5297097" id="Fill-1"></path>
                <path d="M11.9457758,33.4984623 C12.0092153,33.5206527 12.0737325,33.53125 12.1374594,33.53125 C12.3743337,33.53125 12.5957614,33.3853056 12.6793894,33.1517375 L12.6860711,33.1327477 C12.7913246,32.8363069 12.6339113,32.5116303 12.3347469,32.407364 C12.0350078,32.3031687 11.7071771,32.458857 11.601708,32.7552978 L11.5955293,32.7725096 C11.489701,33.0686658 11.6466114,33.3939114 11.9457758,33.4984623" id="Fill-3"></path>
                <path d="M35.3184389,26.5960877 C35.001869,26.5679435 34.720842,26.7971882 34.6923644,27.1076915 L34.6901294,27.1322383 C34.6599936,27.4422477 34.8923564,27.7177647 35.209431,27.7472491 C35.2280315,27.7491536 35.2466321,27.75 35.2649443,27.75 C35.55866,27.75 35.8098396,27.5311947 35.8383172,27.2391721 L35.8414173,27.208277 C35.8698228,26.8980559 35.6355135,26.6238792 35.3184389,26.5960877" id="Fill-5"></path>
                <g id="Group-9">
                    <path d="M11.413751,5.83270707 C11.3005851,4.43076805 11.04709,2.9907461 10.8434095,2.39820463 C10.6836778,1.93462171 10.6971241,1.56444122 10.8758071,1.4982022 C11.0083754,1.4484778 11.2519437,1.5056022 11.3439924,1.73752902 C11.5198778,2.17782902 11.787812,3.09118756 11.994651,4.14668024 L11.9982607,4.1642778 C12.1018607,4.69554366 12.189668,5.26128268 12.242551,5.82214854 C12.1321827,5.81682415 12.0208217,5.81366561 11.9069339,5.81366561 C11.7370046,5.81366561 11.5727607,5.82070463 11.413751,5.83270707 M16.3133632,2.48348512 C17.4611754,2.26527537 18.6713461,2.37239488 19.6879437,2.76585829 C19.1116461,3.37220707 18.2166071,3.82586317 17.1625583,4.02611439 C16.0143851,4.24432415 14.8045754,4.13711439 13.7883388,3.7441022 C14.3642754,3.13739244 15.2596754,2.68373634 16.3133632,2.48348512 M35.6823217,28.6778607 C35.3026656,28.55549 34.8962071,28.7639534 34.7735656,29.1432485 C33.8055193,32.1442193 31.4119802,34.4221559 28.3703998,35.2370583 C25.9874193,35.8754437 23.4986729,35.5480388 21.3624193,34.3142241 C20.7596802,33.9666046 20.2058534,33.5584315 19.7063534,33.098368 C19.6844241,33.0750851 19.6618632,33.0536973 19.6379485,33.0338437 C18.9702339,32.4056559 18.403051,31.6837046 17.9514705,30.8873924 C17.9444315,30.874668 17.9373924,30.8617632 17.9296315,30.8493095 C17.5556607,30.1823168 17.2620071,29.4642461 17.0589583,28.7063778 C16.4204827,26.3234876 16.7483388,23.834651 17.9817924,21.6984876 C18.7115046,20.434712 19.7067144,19.3837315 20.8911656,18.6037534 C20.9193217,18.5885022 20.9464851,18.5709046 20.9729266,18.5511412 C21.7692388,18.0389168 22.6487559,17.6472583 23.5896388,17.3952071 C25.333151,16.9281046 26.7389705,15.7084583 28.0990363,14.5288802 C30.3364534,12.5877339 31.8123924,11.458151 33.8721193,12.6472046 C35.9072095,13.82209 35.6862022,15.5138924 35.1203729,18.403412 C34.7844851,20.1212046 34.4033851,22.0678559 34.9011705,23.9258876 C34.9737266,24.1980632 35.0350924,24.475112 35.082651,24.7497241 C35.1506949,25.1425559 35.5243949,25.4055266 35.9170461,25.3378437 C36.3097876,25.2697095 36.5731193,24.8960095 36.5050754,24.5034485 C36.4501168,24.1864217 36.3799071,23.8663266 36.2957095,23.552368 C35.8846485,22.0170485 36.2163851,20.3210949 36.5374729,18.6808217 C36.8079339,17.3010827 37.0631437,15.9975095 36.9076534,14.7664924 C36.7218412,13.2905534 35.9650559,12.1882241 34.5940705,11.3965144 C33.210451,10.5980363 31.8511973,10.502468 30.4382485,11.1052973 C29.2654388,11.6055193 28.1913559,12.5371973 27.152829,13.4382827 C25.9169388,14.5105607 24.6387241,15.619568 23.2162998,16.000668 C22.3208998,16.2407168 21.4735095,16.58969 20.6881168,17.0361266 C20.5707095,16.9080705 20.4514973,16.7829022 20.3306607,16.6616144 C19.0530778,15.3841217 18.4196559,13.5369193 17.807712,11.7507217 C17.2972022,10.2627802 16.8152998,8.85732171 15.9816266,7.75779 C15.3633656,6.94315829 14.6128071,6.38933146 13.7125339,6.08719488 C13.6931315,5.79958756 13.6638924,5.50773878 13.6278851,5.21579976 C14.3692388,5.45485585 15.1736729,5.57957293 15.9844241,5.57957293 C16.4688534,5.57957293 16.955629,5.53517293 17.4322071,5.44456805 C19.246651,5.09983634 20.7338705,4.11951683 21.4106998,2.82271195 C21.588751,2.48168024 21.4681851,2.06150463 21.1368095,1.8665778 C19.7143851,1.02911439 17.8105095,0.729685122 16.0440754,1.0653022 C14.8775827,1.28703146 13.8468168,1.77173146 13.0790217,2.43412171 C12.9429339,1.92893634 12.8047705,1.50172171 12.6856485,1.20310463 C12.3186266,0.282346098 11.2819046,-0.192156341 10.3738705,0.144543659 C9.5648339,0.44451439 8.97436805,1.40335585 9.47847049,2.8678339 C9.63775098,3.33231927 9.89088512,4.74779488 9.98889,6.13339976 C8.35213634,6.7351461 7.50501683,8.07292171 6.97979732,9.14529 C6.8046339,9.50346805 6.9526339,9.9356461 7.31081195,10.1111705 C7.66899,10.2867851 8.10116805,10.1383339 8.27669244,9.78051683 C8.95424366,8.39590463 9.7364778,7.6453461 10.8419656,7.37497537 C10.8786046,7.37001195 10.91389,7.36125829 10.9488144,7.35097049 C11.2441827,7.28789 11.5624729,7.25756805 11.9072949,7.25756805 C14.6040534,7.25756805 15.3872802,9.14285341 16.44169,12.2189071 C17.0765559,14.0702607 17.7960705,16.1687924 19.3097315,17.6825437 C19.3629754,17.7357876 19.4154973,17.7900241 19.4680193,17.844712 C18.37309,18.686868 17.4432168,19.7440754 16.7318241,20.9765363 C15.3051583,23.4469632 14.9265851,26.324751 15.66469,29.0800778 C15.8564583,29.7963437 16.1187973,30.4821071 16.4441266,31.1298778 C15.8449071,31.6858705 14.8310168,32.1391656 14.0484217,32.1638924 C13.6497241,32.1761656 13.3371193,32.5093461 13.3493924,32.9080437 C13.3617559,33.2989802 13.6825729,33.6071632 14.0706217,33.6071632 C14.0780217,33.6071632 14.0861437,33.6071632 14.0935437,33.6068022 C15.128912,33.5742241 16.3331266,33.0804998 17.1897217,32.3897729 C17.4654168,32.7899144 17.769268,33.1700217 18.0981168,33.5284705 C13.9903046,36.5428876 8.16217293,36.1459046 4.50440707,32.4877778 C0.422675366,28.4061363 0.423036341,21.7646363 4.50440707,17.6825437 C5.60989488,16.5770559 6.25712415,15.1161876 6.69778512,13.9670217 C6.84019,13.5947656 6.65410707,13.1773876 6.28185098,13.0346217 C5.90959488,12.8918559 5.49221683,13.0779388 5.34981195,13.4501949 C4.96022902,14.4661607 4.39656561,15.7489778 3.48356805,16.6616144 C-1.16119537,21.3063778 -1.16119537,28.8639437 3.48356805,33.5087973 C5.61909976,35.644329 8.45645829,36.88049 11.473312,36.9897754 C11.6192363,36.9950998 11.76489,36.9979876 11.9108144,36.9979876 C14.5440412,36.9979876 17.0818802,36.1346241 19.1595656,34.5363144 C19.619268,34.9163315 20.1134437,35.2603412 20.640468,35.5649144 C22.2860656,36.514912 24.1120607,36.9999729 25.9627827,36.9999729 C26.8902193,36.9999729 27.8244241,36.8781437 28.7440998,36.6315973 C32.2608144,35.689451 35.0287754,33.0553217 36.1476193,29.5862559 C36.26999,29.207051 36.0616168,28.8001412 35.6823217,28.6778607" id="Fill-7"></path>
                </g>
                <path d="M29.3104506,27.8765702 C28.802526,28.7682071 27.9819048,29.4060378 27.0004408,29.6723089 C26.6715116,29.7614196 26.3414479,29.8042952 26.0166205,29.8042952 C24.3366292,29.8042952 22.7954009,28.6670736 22.340276,26.9472735 C22.0774119,25.952735 22.2124221,24.9143484 22.7206958,24.0224462 C23.2286204,23.1311629 24.0488925,22.4933322 25.0307056,22.2267075 L28.7056538,21.2295169 L29.6905214,24.9520082 C29.9537346,25.9465467 29.8187244,26.9849333 29.3104506,27.8765702 Z M29.8739677,20.1803451 C29.8258807,19.9994717 29.7089358,19.8450309 29.5487039,19.7510581 C29.3885593,19.6571737 29.1976076,19.6318903 29.0189612,19.6802469 L24.6693111,20.8610515 C23.3274999,21.2249199 22.2059639,22.0968429 21.5115384,23.3154841 C20.817113,24.5342136 20.6322703,25.9537958 20.9920066,27.313352 C21.6138215,29.664441 23.7205742,31.21875 26.0166205,31.21875 C26.4611854,31.21875 26.9124704,31.160669 27.3618353,31.0384954 C28.7036465,30.6744501 29.8251825,29.8024388 30.519608,28.5837976 C31.2143826,27.3651564 31.3988761,25.9452207 31.0392271,24.586018 L29.8739677,20.1803451 Z" id="Fill-10"></path>
            </g>
        </g>
    </g>
</svg>