<?xml version="1.0" encoding="UTF-8"?>
<svg width="46px" height="40px" viewBox="0 0 46 40" version="1.1" xmlns="http://www.w3.org/2000/svg" xmlns:xlink="http://www.w3.org/1999/xlink">
    <!-- Generator: Sketch 51.2 (57519) - http://www.bohemiancoding.com/sketch -->
    <title>Group 14</title>
    <desc>Created with Sketch.</desc>
    <defs>
        <polygon id="path-1" points="0 0.0895723418 45.9862103 0.0895723418 45.9862103 35.9493671 0 35.9493671"></polygon>
    </defs>
    <g id="Page-1" stroke="none" stroke-width="1" fill="none" fill-rule="evenodd">
        <g id="Keto_cycle2" transform="translate(-45.000000, -173.000000)">
            <g id="Group-4" transform="translate(25.000000, 165.000000)">
                <g id="Group-14" transform="translate(20.000000, 8.000000)">
                    <path d="M10.6329114,27.3417722 C11.1918987,27.3417722 11.6455696,26.8881013 11.6455696,26.3291139 C11.6455696,25.7701266 11.1918987,25.3164557 10.6329114,25.3164557 C10.0739241,25.3164557 9.62025316,25.7701266 9.62025316,26.3291139 C9.62025316,26.8881013 10.0739241,27.3417722 10.6329114,27.3417722" id="Fill-1" fill="#08D9D6"></path>
                    <g id="Group-5" transform="translate(0.000000, 3.544304)">
                        <mask id="mask-2" fill="white">
                            <use xlink:href="#path-1"></use>
                        </mask>
                        <g id="Clip-4"></g>
                        <path d="M41.8137803,32.9520347 C41.3139506,33.7032866 40.4758713,34.1519347 39.5723156,34.1519347 L6.4137991,34.1519347 C5.51015363,34.1519347 4.67225395,33.7032866 4.17197513,32.9514056 L2.57647188,30.556998 L43.4097327,30.556998 L41.8137803,32.9520347 Z M6.64444829,27.8295195 C7.15155319,27.2782359 7.87251156,26.9620613 8.6223909,26.9620613 C9.79324095,26.9620613 10.791643,27.7134929 11.1624062,28.7595296 L6.0823756,28.7595296 C6.20317902,28.4181904 6.39260236,28.1016562 6.64444829,27.8295195 Z M18.3477394,28.7595296 L13.2677088,28.7595296 C13.638472,27.7134929 14.6367843,26.9620613 15.8077241,26.9620613 C16.978664,26.9620613 17.9769762,27.7134929 18.3477394,28.7595296 Z M25.5330727,28.7595296 L20.4530421,28.7595296 C20.8238053,27.7134929 21.8221175,26.9620613 22.9930574,26.9620613 C24.1639074,26.9620613 25.1623095,27.7134929 25.5330727,28.7595296 Z M32.7184059,28.7595296 L27.6383753,28.7595296 C28.0091385,27.7134929 29.0074507,26.9620613 30.1783906,26.9620613 C31.3493305,26.9620613 32.3476427,27.7134929 32.7184059,28.7595296 Z M22.9930574,12.5823144 C23.3207086,12.5823144 23.6483598,12.5913916 23.9754721,12.6077486 C21.7940049,15.076122 21.8774446,18.8475701 24.2450119,21.2153752 C26.7016773,23.6747613 30.6789389,23.6753904 33.136233,21.2155549 C33.8488385,20.5025891 34.7935301,19.2217132 35.7088518,17.7428461 C37.8123581,19.9739537 39.0142847,22.6919056 39.1469439,25.5357701 C38.5890028,25.2941005 37.982381,25.1645929 37.3637238,25.1645929 C35.8962992,25.1645929 34.5910834,25.8724359 33.7710572,26.9648473 C32.9510311,25.8724359 31.6458153,25.1645929 30.1783906,25.1645929 C28.7109659,25.1645929 27.4057501,25.8724359 26.585724,26.9648473 C25.7656978,25.8724359 24.460482,25.1645929 22.9930574,25.1645929 C21.5256327,25.1645929 20.2204169,25.8724359 19.4003908,26.9648473 C18.5803646,25.8724359 17.2751488,25.1645929 15.8077241,25.1645929 C14.3402995,25.1645929 13.0350837,25.8724359 12.2150575,26.9648473 C11.3950314,25.8724359 10.0898156,25.1645929 8.6223909,25.1645929 C8.00382353,25.1645929 7.39720177,25.2941005 6.83961991,25.5355904 C7.17328882,18.3458967 14.290541,12.5823144 22.9930574,12.5823144 Z M38.6941781,5.4868081 C39.3012489,4.87935367 39.5049531,3.97846253 39.2532868,3.01645747 C39.1717333,2.70252962 39.2592147,2.37898532 39.4871694,2.15088658 C39.8376341,1.80011063 40.4052754,1.79894228 40.7569975,2.15088658 L43.2980007,4.69340557 C43.6457709,5.04148532 43.6515191,5.61002456 43.2985396,5.96331696 C43.0699562,6.19168532 42.7473348,6.2793119 42.4343237,6.19779671 C41.4722076,5.94749924 40.5735918,6.15052329 39.9686766,6.75465241 C39.5536338,7.16959797 39.1177535,7.60557392 38.7257936,7.9975119 C38.6014873,7.70542329 38.432632,7.45018278 38.2172516,7.23466633 C38.0020509,7.01923975 37.7470614,6.85036759 37.4554267,6.72589291 L38.6941781,5.4868081 Z M37.1557084,9.84414101 C36.9929606,11.2804081 36.1164398,13.4662195 34.750957,15.8423828 C34.7508672,15.8424727 34.7507774,15.8425625 34.7506876,15.8427423 C34.7487116,15.8461575 34.7469153,15.8495727 34.7449393,15.8529878 C34.7449393,15.8530777 34.7449393,15.8530777 34.7448495,15.8531676 C33.764321,17.5586056 32.6073925,19.2028397 31.8657763,19.9447448 C30.1110281,21.7013208 27.2706659,21.70186 25.5150195,19.9445651 C23.7593732,18.1885284 23.7591037,15.3461916 25.5150195,13.5899752 C27.2165064,11.8879524 32.6593964,8.63174861 35.6099636,8.29679038 C36.0024625,8.25185367 36.6673752,8.22614987 36.9467949,8.50583595 C37.1562473,8.71515114 37.2303461,9.19013215 37.1557084,9.84414101 Z M39.3434628,27.831317 C39.5943207,28.1025549 39.7833848,28.41846 39.9039188,28.7595296 L34.8237085,28.7595296 C35.1944717,27.7134929 36.192784,26.9620613 37.3637238,26.9620613 C38.1136032,26.9620613 38.8345616,27.2782359 39.3434628,27.831317 Z M45.0879571,28.7595296 L41.7633932,28.7595296 C41.6280395,28.0937473 41.3440392,27.4672397 40.9276491,26.9255727 C40.946331,26.641303 40.9563905,26.3527195 40.9563905,26.0633271 C40.9563905,22.3982891 39.4317526,18.8976296 36.6482443,16.1324043 C37.4798568,14.6142625 38.5876555,12.3161992 38.8959063,10.3690916 C39.3241522,9.94057519 40.3308174,8.9333638 41.2378759,8.02654101 C41.4333169,7.83160557 41.788452,7.88705747 41.982007,7.93729671 C42.9028074,8.17743848 43.8936649,7.90871696 44.5680982,7.23502582 C45.6211088,6.18126 45.6212884,4.47627139 44.5680982,3.4224157 L42.0271847,0.879896709 C40.9740843,-0.173869114 39.2699927,-0.173869114 38.2168923,0.879896709 C37.5438063,1.55349797 37.2748053,2.54552076 37.5151547,3.47022835 C37.5658113,3.66390557 37.621318,4.0184562 37.4239908,4.2159081 L35.0854343,6.55504354 C32.1306456,7.02130684 28.1182657,9.34642203 25.8694361,10.9796018 C24.922499,10.8504537 23.95688,10.7848461 22.9930574,10.7848461 C18.2234332,10.7848461 13.7325999,12.3556537 10.347769,15.2076967 C6.91838912,18.0973068 5.02972428,21.952517 5.02972428,26.0633271 C5.02972428,26.3528992 5.03978375,26.6414828 5.05855543,26.9257524 C4.64198574,27.4678689 4.35807526,28.0941967 4.22281136,28.7595296 L0.898157673,28.7595296 C0.566913811,28.7595296 0.262525131,28.9419727 0.106244134,29.2341511 C-0.0500368643,29.5264195 -0.0328818812,29.8808803 0.150883016,30.1567916 L2.67706655,33.9481916 C3.51083465,35.2012068 4.90775325,35.949403 6.4137991,35.949403 L39.5723156,35.949403 C41.0783615,35.949403 42.4752801,35.2012068 43.3088686,33.948641 L45.8353215,30.1567916 C46.0190864,29.8809701 46.0362414,29.5264195 45.8799604,29.2341511 C45.7235896,28.9419727 45.4192009,28.7595296 45.0879571,28.7595296 Z" id="Fill-3" fill="#08D9D6" mask="url(#mask-2)"></path>
                    </g>
                    <path d="M13.1473442,23.5261641 C14.7596327,21.8280556 17.0395519,20.5767373 19.5671856,20.0022926 C20.0390771,19.8951958 20.3367546,19.4157288 20.2322787,18.9316834 C20.1278029,18.4475483 19.6607239,18.1421473 19.1888325,18.2492441 C16.3321085,18.8982886 13.7412992,20.3274432 11.8938086,22.2733198 C11.5565808,22.628454 11.5638434,23.1967943 11.9100838,23.5428616 C12.2558867,23.8883004 12.8097663,23.8817472 13.1473442,23.5261641" id="Fill-6" fill="#08D9D6"></path>
                    <path d="M7.87955318,10.8871096 C6.15225213,12.1121097 6.14745669,14.8210361 7.87955318,16.0494995 C8.27183746,16.327656 8.80378898,16.2168309 9.06702448,15.7965886 C9.32931803,15.3777135 9.22287635,14.8118311 8.82930758,14.5327632 C8.12078104,14.0301313 8.10947749,12.9145892 8.82930758,12.4040281 C10.5566086,11.179028 10.5614041,8.47010159 8.82930758,7.24163815 C8.43573881,6.96257034 7.90412982,7.07585619 7.64183628,7.49454905 C7.37954273,7.91342419 7.48598441,8.47930663 7.87955318,8.75837445 C8.58807972,9.26091524 8.59938327,10.3764574 7.87955318,10.8871096" id="Fill-8" fill="#08D9D6"></path>
                    <path d="M19.0187937,7.34280576 C17.2914926,8.56780591 17.2866972,11.2767323 19.0187937,12.5051957 C19.411078,12.7833522 19.9430295,12.6725271 20.206265,12.2522848 C20.4685585,11.8334097 20.3621169,11.2675273 19.9685481,10.9884594 C19.2600215,10.4858275 19.248718,9.37028537 19.9685481,8.85972433 C21.6958491,7.63472418 21.7006446,4.92579779 19.9685481,3.69733435 C19.5749793,3.41826654 19.0433703,3.53155239 18.7810768,3.95024525 C18.5187832,4.36912039 18.6252249,4.93500284 19.0187937,5.21407065 C19.7273202,5.71661145 19.7386238,6.83215358 19.0187937,7.34280576" id="Fill-10" fill="#08D9D6"></path>
                    <path d="M13.4491734,3.79848816 C11.7218724,5.0234915 11.7170769,7.73242492 13.4491734,8.96089154 C13.8414577,9.23904869 14.3734092,9.1282233 14.6366447,8.70797999 C14.8989383,8.28910376 14.7924966,7.72321985 14.3989278,7.44415131 C13.6904013,6.94151807 13.6790977,5.82597303 14.3989278,5.31541068 C16.1262289,4.09040734 16.1310243,1.38147392 14.3989278,0.153007293 C14.0054447,-0.126061244 13.4737501,-0.0126839547 13.2114565,0.405918851 C12.949163,0.824795075 13.0556047,1.39067899 13.4491734,1.66974753 C14.1577,2.17228963 14.1690035,3.28783466 13.4491734,3.79848816" id="Fill-12" fill="#08D9D6"></path>
                </g>
            </g>
        </g>
    </g>
</svg>