<?xml version="1.0" encoding="UTF-8"?>
<svg width="44px" height="40px" viewBox="0 0 44 40" version="1.1" xmlns="http://www.w3.org/2000/svg" xmlns:xlink="http://www.w3.org/1999/xlink">
    <!-- Generator: Sketch 51.2 (57519) - http://www.bohemiancoding.com/sketch -->
    <title>Group 18</title>
    <desc>Created with Sketch.</desc>
    <defs>
        <polygon id="path-1" points="0 0.0169620253 43.2067511 0.0169620253 43.2067511 39.9156118 0 39.9156118"></polygon>
    </defs>
    <g id="Page-1" stroke="none" stroke-width="1" fill="none" fill-rule="evenodd">
        <g id="Keto_cycle4" transform="translate(-45.000000, -154.000000)">
            <g id="Group-4" transform="translate(25.000000, 146.000000)">
                <g id="Group-18" transform="translate(20.000000, 8.000000)">
                    <path d="M10.4544557,32.055519 C7.80247257,31.0182194 4.64129114,28.8516371 4.64129114,24.4204979 C4.64129114,23.9544219 4.26348523,23.576616 3.79740928,23.576616 C3.33133333,23.576616 2.95361181,23.9544219 2.95361181,24.4204979 C2.95361181,28.6207511 5.39909705,31.8905401 9.83968776,33.6273333 C9.94070042,33.666827 10.0445823,33.6854768 10.1468608,33.6854768 C10.4841603,33.6854768 10.8027257,33.4817637 10.9329367,33.1488523 C11.1027257,32.7147595 10.8884641,32.2252236 10.4544557,32.055519" id="Fill-1" fill="#08D9D6"></path>
                    <path d="M12.519654,32.6925485 C12.5064051,32.6890886 12.4886835,32.685038 12.4753502,32.6822532 C12.0187257,32.5884979 11.5726498,32.8821688 11.4786414,33.3386245 C11.3860675,33.7880759 11.6696118,34.227654 12.1140844,34.3307764 C12.1797384,34.3463882 12.2453924,34.3538987 12.3101181,34.3538987 C12.6860675,34.3538987 13.0289367,34.1007342 13.126827,33.7199747 C13.2428608,33.2685823 12.9710464,32.8085823 12.519654,32.6925485" id="Fill-3" fill="#08D9D6"></path>
                    <path d="M32.9243291,36.3805738 L32.9817131,37.2226835 L32.913865,36.3815021 C32.4490549,36.4153418 32.0997722,36.8195612 32.1336962,37.2844557 C32.1661013,37.7285063 32.5362278,38.0670717 32.9744557,38.0669873 C32.994962,38.0669873 33.0158059,38.0663122 33.0366498,38.0647089 C33.0379156,38.0646245 33.0482954,38.0637806 33.0499831,38.0636962 C33.5145401,38.0289283 33.8631477,37.6242025 33.8286329,37.1594768 C33.7939494,36.6947511 33.388211,36.3465654 32.9243291,36.3805738" id="Fill-5" fill="#08D9D6"></path>
                    <g id="Group-9" transform="translate(0.000000, 0.067426)">
                        <mask id="mask-2" fill="white">
                            <use xlink:href="#path-1"></use>
                        </mask>
                        <g id="Clip-8"></g>
                        <path d="M16.5350127,36.0359241 C9.38412658,36.0328861 1.68775527,32.3756709 1.68775527,24.3531392 C1.68775527,17.5508608 7.57104641,14.6493418 11.0780506,13.5252911 C13.2943376,12.8149114 14.7437046,11.1413249 15.5089367,8.40866667 C16.0812574,6.36520675 16.2077553,3.94081857 16.2786414,1.70470042 L16.7905401,1.70470042 C16.8614262,3.94081857 16.9879241,6.36529114 17.5602447,8.40866667 C18.3255612,11.1413249 19.7749283,12.8149114 21.9911308,13.5252911 C23.2734937,13.936346 24.4428608,14.4360928 25.4885992,15.018962 C21.7288523,15.4986245 18.9167848,17.2657131 17.3256456,20.1637722 C17.3025232,20.2057975 17.2789789,20.2474852 17.2563629,20.2901013 C17.2230295,20.3528017 17.1907932,20.4164304 17.158557,20.4803122 C17.1276709,20.5414093 17.0972068,20.6027595 17.0674177,20.6647848 C17.0405823,20.7207342 17.0139156,20.7768523 16.9879241,20.8335612 C16.9526498,20.91027 16.9186414,20.9879072 16.8849705,21.0658819 C16.8649705,21.1122954 16.8445485,21.1582869 16.8250549,21.2052911 C16.7738312,21.3288354 16.724211,21.4536456 16.6769536,21.580481 C16.6756878,21.5838565 16.6742532,21.5870633 16.6729873,21.5904388 C16.6686835,21.602 16.6649705,21.6134768 16.6607511,21.6248692 C16.6296118,21.7095105 16.5992321,21.7942363 16.5702869,21.878962 C16.5535781,21.9277384 16.5382194,21.9765148 16.52227,22.0252911 C16.5071646,22.0715359 16.4915527,22.117865 16.4771224,22.1642785 C16.4572068,22.2279916 16.438557,22.2916203 16.4198228,22.3552489 C16.4112152,22.3847004 16.4021857,22.4142363 16.3938312,22.4437722 C16.3720591,22.5201435 16.3515527,22.5964304 16.3316371,22.6727173 C16.3278397,22.6872321 16.3238734,22.7016624 16.3201603,22.7161772 C15.674,25.2259662 15.9878397,27.7155865 17.2412574,30.0238565 C17.2429451,30.0269789 17.2447173,30.0301013 17.2464051,30.0332236 C17.2896962,30.1128017 17.3338312,30.192211 17.3794008,30.2713671 C17.3815105,30.2750802 17.3835359,30.2788776 17.3856456,30.2825907 C17.3900338,30.2901857 17.3948439,30.2976118 17.3992321,30.3052068 C17.4556034,30.4025063 17.5137468,30.499384 17.5735781,30.5959241 C17.5888523,30.6206498 17.604211,30.6452911 17.6197384,30.6699325 C17.6809198,30.7671477 17.7437046,30.8641097 17.808346,30.9606498 C17.8145063,30.9698481 17.8204979,30.9792152 17.8266582,30.9884135 C17.8384726,31.0059662 17.8496962,31.0236034 17.8615949,31.0413249 C18.9543376,32.6463882 20.4788101,34.0692574 22.3026076,35.2131392 C20.4975443,35.7531392 18.535097,36.0349958 16.5350127,36.0359241 M37.9050549,18.3731392 C35.595519,16.5585401 36.4890211,13.256346 38.0033671,8.78934177 C38.149865,8.35693671 37.9260675,7.88647257 37.4980506,7.72740084 L35.8334093,7.10891983 C35.4052236,6.94993249 34.9284304,7.16022785 34.7572068,7.58326582 C32.9872489,11.9554177 31.5069114,15.0412405 28.5736624,14.9059662 C28.5040422,14.9027595 28.4358565,14.9018312 28.366827,14.8992996 C26.7630295,13.6538987 24.7936624,12.6511983 22.5063207,11.9180338 C20.849443,11.3869789 19.7942532,10.1272321 19.1854768,7.95356118 C18.5983038,5.8570211 18.5212574,3.18976371 18.4531561,0.83643038 C18.4399072,0.380059072 18.0661519,0.0169367089 17.6096118,0.0169367089 L15.459654,0.0169367089 C15.0031139,0.0169367089 14.6293586,0.380059072 14.6161097,0.83643038 C14.5480928,3.18967932 14.470962,5.85693671 13.883789,7.95356118 C13.2750127,10.1272321 12.2197384,11.3870633 10.5629451,11.9180338 C3.75138397,14.1013249 -8.43881856e-06,18.5175274 -8.43881856e-06,24.3531392 C-8.43881856e-06,28.5047004 1.81855696,31.9900169 5.2589789,34.4321266 C7.27028692,35.8597215 9.74260759,36.8553333 12.4504557,37.3546582 C11.9104557,37.644616 11.3652236,37.9957553 10.8499494,38.4208186 C10.4905401,38.7173586 10.4395696,39.249173 10.7361097,39.6087511 C10.9030295,39.8109451 11.1442954,39.9156709 11.3875021,39.9156709 C11.5765316,39.9155865 11.766827,39.8523797 11.9240422,39.7226751 C13.192481,38.6760928 14.72573,38.153308 15.6907089,37.9090886 L15.6907089,38.9877384 C15.6907089,39.4538143 16.0685992,39.8316203 16.5345907,39.8316203 C17.0006667,39.8316203 17.3784726,39.4538143 17.3784726,38.9877384 L17.3784726,37.9092574 C18.343789,38.1534768 19.8765316,38.6759241 21.1449705,39.7226751 C21.3023544,39.8524641 21.4925654,39.9156709 21.6815105,39.9156709 C21.9248017,39.9156709 22.1660675,39.8109451 22.3329873,39.6087511 C22.6295274,39.2492574 22.5786414,38.7173586 22.2190633,38.4208186 C21.7018481,37.9940675 21.1545907,37.6419156 20.6126498,37.3513671 C21.9026076,37.1127173 23.1460675,36.7611561 24.3119747,36.3024219 C24.7674177,36.5142363 25.235519,36.7103544 25.7156034,36.8889198 C27.1215949,37.4108608 28.5655612,37.7603122 30.0072489,37.927654 C30.0403291,37.9315359 30.0730717,37.933308 30.1056456,37.933308 C30.5281772,37.933308 30.892903,37.6165992 30.9428608,37.1867257 C30.996616,36.7236878 30.6648861,36.3048692 30.2019325,36.2511983 C28.8943376,36.099384 27.5824388,35.7814937 26.3035359,35.3068101 C25.5477553,35.0256287 24.8039578,34.6880759 24.0889367,34.299384 C20.8779662,32.5451224 17.8604135,29.4809873 17.6897806,25.5856287 C17.6889367,25.566557 17.6877553,25.5477384 17.6870802,25.5285823 C17.6852236,25.4780338 17.6845485,25.4269789 17.6836203,25.3760928 C17.6830295,25.3381181 17.6821857,25.3002278 17.6821013,25.2621688 C17.6819325,25.2221688 17.6826076,25.1820844 17.6830295,25.1419156 C17.6837046,25.0928861 17.6844641,25.0439409 17.6859831,24.9947426 C17.6869958,24.9614937 17.6885148,24.9279072 17.6899494,24.8944895 C17.6923966,24.8384557 17.6951814,24.7823376 17.6988101,24.7260506 C17.7006667,24.6968523 17.7028608,24.6674008 17.7050549,24.6382025 C17.7096118,24.5779494 17.7146751,24.5175274 17.7205823,24.4568523 C17.7231983,24.4297637 17.7259831,24.4026751 17.7288523,24.3753333 C17.7356034,24.3127173 17.7431139,24.2499325 17.7512996,24.1869789 C17.7546751,24.1607342 17.758135,24.1346582 17.7617637,24.1083291 C17.7706245,24.0445316 17.7804979,23.9806498 17.790962,23.9165148 C17.7952658,23.89027 17.7994008,23.8641941 17.8038734,23.837865 C17.8149283,23.7738987 17.8269958,23.7097637 17.8394852,23.6454599 C17.8448017,23.6185401 17.849865,23.591789 17.8553502,23.565038 C17.8684304,23.5014937 17.882692,23.4376962 17.8972911,23.37373 C17.9037046,23.3458819 17.9096962,23.3179494 17.9163629,23.2899325 C17.9312996,23.2273165 17.9475865,23.1644473 17.9639578,23.1015781 C17.9716371,23.0721266 17.9788945,23.0426751 17.9869114,23.0131392 C18.0036203,22.9515359 18.0217637,22.8898481 18.0399072,22.8279916 C18.0490211,22.7969367 18.0575443,22.766135 18.0669958,22.7350802 C18.0860675,22.6725485 18.1067426,22.6096793 18.1272489,22.5468945 C18.1371224,22.5168523 18.1462363,22.4868101 18.1564473,22.4566835 C18.1831983,22.3776118 18.2116371,22.2983713 18.2407511,22.218962 C18.2456456,22.2053755 18.2500338,22.1920422 18.255097,22.1786245 C18.2696962,22.1392152 18.2849705,22.1009873 18.2999916,22.0622532 C18.3134937,22.0272321 18.3266582,21.9917046 18.3405823,21.9570211 C18.3625232,21.9020844 18.3852236,21.8481603 18.4079241,21.7942363 C18.4152658,21.7767679 18.4223544,21.758962 18.4297806,21.7415781 C18.4582194,21.6753333 18.4873333,21.6099325 18.5168692,21.5452068 C18.5186414,21.5413249 18.5201603,21.537443 18.5220169,21.5336456 C20.4466582,17.3356709 24.7187257,16.5092574 28.0451392,16.5772743 C28.0508776,16.5773586 28.0567848,16.577443 28.0626076,16.577443 L28.0628608,16.577443 C28.2088523,16.5807342 28.3536624,16.5855443 28.496616,16.5920422 C30.4710464,16.6817468 32.1150127,15.7833502 33.5249705,13.8447004 C34.5392321,12.4500169 35.3244641,10.657443 36.0128186,8.9762616 L36.142692,9.02444726 C35.5664051,10.7473165 34.9905401,12.6176962 34.8479241,14.3362616 C34.6499494,16.7252911 35.3088523,18.4798903 36.86227,19.7003122 C39.74573,21.9657131 42.7992321,25.698962 40.9710464,30.618962 C39.9631139,33.3321266 37.9276709,35.1746582 35.085308,35.9474008 C34.635519,36.0695949 34.3699494,36.5333924 34.4923122,36.983097 C34.6145907,37.4328017 35.078135,37.6982869 35.5280084,37.5760084 C38.9182194,36.6544051 41.3474177,34.4518734 42.5531561,31.2067257 C44.2561097,26.6236878 42.6053924,22.0659662 37.9050549,18.3731392" id="Fill-7" fill="#08D9D6" mask="url(#mask-2)"></path>
                    </g>
                    <path d="M33.754616,33.3009873 C31.8631392,33.6728017 29.5220422,33.4192996 27.3320844,32.6056287 C25.1419578,31.7918734 23.2033924,30.4552489 22.0136034,28.9383713 C20.6203544,27.1623376 20.2875274,25.2568523 21.0239831,23.2745738 C21.9324219,20.8295105 24.1569789,19.5930549 27.6413671,19.5930549 C27.8758819,19.5930549 28.1163882,19.5986245 28.362211,19.6098481 C29.856557,19.6777806 31.2382447,19.3838565 32.4860928,18.7345738 C33.0071899,20.0411561 33.862211,21.1666414 35.0378228,22.0901857 C38.107443,24.502 39.1722532,27.0479916 38.2026329,29.6576962 C37.4660084,31.6396371 35.9695527,32.8655443 33.754616,33.3009873 M39.7846582,30.2454599 C41.0211139,26.917443 39.74027,23.6384557 36.0804388,20.763097 C34.8798481,19.8198903 34.1277806,18.672211 33.7810295,17.2544895 C33.7145316,16.9825907 33.5175696,16.7614093 33.2552068,16.6638565 C32.9930127,16.5663038 32.6992574,16.6052911 32.4714093,16.7679072 C31.2832236,17.6153333 29.9638143,17.9935612 28.4390886,17.9238565 C23.7892996,17.7123797 20.6783291,19.3587932 19.441789,22.6868945 C18.50027,25.2206498 18.9303966,27.7425907 20.6855865,29.9801435 C22.062211,31.7349958 24.270481,33.2686667 26.7440675,34.1878228 C28.4573165,34.8243629 30.2661772,35.1545738 31.9436456,35.1545738 C32.6882025,35.1545738 33.4073586,35.0893418 34.0801013,34.9571899 C36.8705654,34.4084979 38.8431392,32.7792152 39.7846582,30.2454599" id="Fill-10" fill="#08D9D6"></path>
                    <path d="M32.519865,23.8226414 C32.521384,23.8239072 32.5239156,23.82627 32.5256034,23.8278734 C32.6871224,23.9758059 32.8904135,24.0488017 33.0931139,24.0488017 C33.3204557,24.0488017 33.5474599,23.9570717 33.7139578,23.776481 C34.0300759,23.4339494 34.0071224,22.8985907 33.6646751,22.5824726 C33.3220591,22.2661857 32.7883038,22.287789 32.47227,22.6301519 C32.1560675,22.9725992 32.1774177,23.5065232 32.519865,23.8226414" id="Fill-12" fill="#08D9D6"></path>
                    <path d="M35.8128945,24.5375527 C35.7247932,24.4380591 35.6330633,24.3387342 35.5404051,24.2421097 C35.2176203,23.9057384 34.6833586,23.8949367 34.3472405,24.2176371 C34.0109536,24.5404219 34.0000675,25.0745992 34.3228523,25.4108017 C34.3998987,25.4910549 34.4759325,25.5736709 34.5488439,25.6560338 C35.0027679,26.1691983 35.3177046,26.6595781 35.4848776,27.1133333 C35.6684219,27.6115612 35.6540759,28.0364557 35.4339916,28.6287764 C35.1972827,29.2659072 34.8775359,29.6772996 34.3970295,29.9632068 C32.8843713,30.8632068 30.2754262,30.54827 28.360827,29.836962 C26.4463122,29.1255696 24.2646245,27.6605063 23.7066498,25.9909705 C23.5292658,25.4607595 23.5559325,24.9402532 23.792557,24.3032911 C24.2547511,23.0589873 25.4435274,22.5324051 27.7554262,22.5479325 C27.9107848,22.5489451 28.0696034,22.5529958 28.2276624,22.5602532 C29.249519,22.6067511 30.2587173,22.5177215 31.2345823,22.2951055 C31.5094346,22.4521519 31.8616709,22.4473418 32.138211,22.2537553 C32.5198987,21.9863291 32.612557,21.46 32.3451308,21.0783966 C32.3013333,21.0159494 32.2587173,20.9529114 32.2167764,20.8895359 C32.0149198,20.5837131 31.6388861,20.4429536 31.2858059,20.541519 C30.3276624,20.8087764 29.3245401,20.9209283 28.3046245,20.8741772 C28.1247089,20.8659072 27.9432743,20.8613502 27.7657215,20.8600844 C26.5382954,20.8524895 23.2814177,20.8331646 22.2104473,23.7153586 C21.8406582,24.7108017 21.8063122,25.6301266 22.1058059,26.5259072 C22.8912068,28.8749367 25.6494346,30.6298734 27.7730633,31.4189873 C28.951038,31.8566245 30.470616,32.1967932 31.9540759,32.1967089 C33.1447089,32.1967089 34.3122194,31.977384 35.2598987,31.4135021 C36.0717975,30.9306329 36.6463122,30.2118987 37.0161857,29.2164557 C37.3730633,28.2556118 37.3898565,27.4019409 37.0688439,26.5299578 C36.8287595,25.8788186 36.4063122,25.2085232 35.8128945,24.5375527" id="Fill-14" fill="#08D9D6"></path>
                    <path d="M29.3893418,27.0683713 C28.5270633,26.7480338 27.4380338,26.1035612 26.87027,25.5506498 C27.2438565,25.5112405 27.7041941,25.4931814 28.0929705,25.5108186 C28.7241097,25.5395949 29.3576962,25.5267679 29.9820844,25.473097 C30.4198903,25.9216203 30.8915359,26.3449958 31.3882447,26.7352068 C31.6942363,26.9756287 32.0308608,27.2898903 32.2880759,27.5635612 C31.4975274,27.6114093 30.2516203,27.3887089 29.3893418,27.0683713 M32.4309451,25.4081181 C31.8925485,24.9850802 31.3879916,24.5183291 30.9311983,24.0209451 C30.7480759,23.8215359 30.4800591,23.7220422 30.2115359,23.7536034 C29.5409873,23.8320844 28.8542363,23.856135 28.1699325,23.8247426 C27.9750802,23.8159662 26.2398059,23.7508186 25.4084979,24.1988354 C25.2468101,24.2860084 25.1181181,24.4235612 25.0415781,24.5906498 C25.0162616,24.6460084 24.9965148,24.6969789 24.9787932,24.744827 C24.8760928,25.021789 24.8599747,25.1767257 24.8567679,25.2691308 C24.8544051,25.3416203 24.8612405,25.4141097 24.8771899,25.484827 C24.8845316,25.5174008 24.8949114,25.5531814 24.9070633,25.5898059 C25.506135,27.382211 28.7689198,28.6383291 28.8016624,28.6505654 C28.8249536,28.6592574 30.4874852,29.2547848 32.0332236,29.2547848 C32.666557,29.2547848 33.280481,29.1547848 33.7536456,28.8732658 C33.7831814,28.8556287 33.8162616,28.8339409 33.8444473,28.8129283 C33.9012405,28.7705654 33.9523797,28.7211983 33.9968523,28.6660084 C34.0552489,28.5934346 34.1447848,28.4649958 34.2472321,28.1883713 C34.2640253,28.1435612 34.2833502,28.0898059 34.3005654,28.0303122 C34.3515359,27.8541097 34.3437722,27.6660084 34.2782869,27.494616 C33.9412405,26.6125063 32.5845316,25.5287089 32.4309451,25.4081181" id="Fill-16" fill="#08D9D6"></path>
                </g>
            </g>
        </g>
    </g>
</svg>