<?xml version="1.0" encoding="UTF-8"?>
<svg width="13px" height="10px" viewBox="0 0 13 10" version="1.1" xmlns="http://www.w3.org/2000/svg" xmlns:xlink="http://www.w3.org/1999/xlink">
    <!-- Generator: Sketch 52.2 (67145) - http://www.bohemiancoding.com/sketch -->
    <title>Fill 1</title>
    <desc>Created with Sketch.</desc>
    <g id="Page-1" stroke="none" stroke-width="1" fill="none" fill-rule="evenodd">
        <g id="Running_diet_inner1" transform="translate(-34.000000, -154.000000)" fill="#FFFFFF">
            <g id="Group" transform="translate(28.000000, 147.000000)">
                <path d="M6.14875,12.5 C6.04875,12.4 6,12.248125 6,12.148125 C6,12.048125 6.04875,11.899375 6.14875,11.799375 L6.849375,11.09875 C7.05,10.898125 7.35,10.898125 7.55,11.09875 L7.599375,11.15 L10.350625,14.09875 C10.450625,14.199375 10.599375,14.199375 10.7,14.09875 L17.39875,7.148125 L17.45,7.148125 C17.650625,6.950625 17.950625,6.950625 18.150625,7.148125 L18.849375,7.84875 C19.049375,8.049375 19.049375,8.349375 18.849375,8.549375 L10.85125,16.850625 C10.75125,16.950625 10.650625,16.999375 10.499375,16.999375 C10.350625,16.999375 10.250625,16.950625 10.150625,16.850625 L6.24875,12.64875 L6.14875,12.5 Z" id="Fill-1"></path>
            </g>
        </g>
    </g>
</svg>