<?xml version="1.0" encoding="UTF-8"?>
<svg width="27px" height="36px" viewBox="0 0 27 36" version="1.1" xmlns="http://www.w3.org/2000/svg" xmlns:xlink="http://www.w3.org/1999/xlink">
    <!-- Generator: Sketch 51.2 (57519) - http://www.bohemiancoding.com/sketch -->
    <title>Group 3</title>
    <desc>Created with Sketch.</desc>
    <defs>
        <polygon id="path-1" points="0 0 26.5 0 26.5 36 0 36"></polygon>
    </defs>
    <g id="Page-1" stroke="none" stroke-width="1" fill="none" fill-rule="evenodd">
        <g id="Keto_cycle" transform="translate(-49.000000, -577.000000)">
            <g id="Group-3" transform="translate(49.000000, 577.000000)">
                <mask id="mask-2" fill="white">
                    <use xlink:href="#path-1"></use>
                </mask>
                <g id="Clip-2"></g>
                <path d="M24.6104558,34.1051088 L22.1539314,34.1051088 L22.1539314,30.306085 C22.1539314,29.7830023 21.7309276,29.3589328 21.2091594,29.3589328 C20.686806,29.3589328 20.2638021,29.7830023 20.2638021,30.306085 L20.2638021,34.1051088 L16.6943869,34.1051088 L19.3229806,24.6963679 L21.4697509,25.5937935 C21.4862847,25.6005411 21.5092566,25.6093423 21.5263757,25.615063 C21.6526477,25.6598023 24.6104558,26.7420525 24.6104558,30.5129125 L24.6104558,34.1051088 Z M15.6907952,30.6722136 L15.4319596,29.063947 L15.6331461,28.5269291 L15.8839343,28.7119003 C15.9794796,28.782603 16.0857061,28.8307161 16.1972,28.8610801 L15.6907952,30.6722136 Z M16.6298609,23.5001426 C16.6876563,23.4394146 16.7356484,23.3729657 16.7744225,23.3028498 L17.4357776,23.7407078 L16.0908272,26.5121953 L15.7684898,26.2745638 C15.7673192,26.2738304 15.7668803,26.2732436 15.766295,26.2726569 L14.7123701,25.4952205 L16.6298609,23.5001426 Z M12.3123243,34.1051088 L12.9868479,29.9131129 L13.6549336,29.9131129 L14.3293109,34.1051088 L12.3123243,34.1051088 Z M10.4668218,26.5121953 L9.12143244,23.7407078 L9.78498227,23.301823 C9.82902384,23.4548166 9.91125427,23.5987157 10.0329904,23.7178248 L11.849961,25.4917 L10.4668218,26.5121953 Z M10.9537664,30.650504 L10.446191,28.8329164 C10.5256414,28.8029924 10.602897,28.7642673 10.6731294,28.7119003 L10.9623991,28.4987654 L11.2064567,29.0822828 L10.9537664,30.650504 Z M13.2857746,24.249562 L11.6373617,22.6401219 L11.6373617,21.2596589 C11.9968638,21.3244941 12.3666081,21.3598455 12.7443999,21.3598455 L13.8972354,21.3598455 C14.2750271,21.3598455 14.6449178,21.3244941 15.0044198,21.2596589 L15.0044198,22.4607248 L13.2857746,24.249562 Z M12.5284352,27.3430255 L13.2783124,26.7897255 L14.0516003,27.3597477 L13.8046164,28.0188084 L12.8106817,28.0188084 L12.5284352,27.3430255 Z M8.37726168,15.0874005 L8.37726168,11.4495848 C9.97534133,11.3080327 13.2411477,10.757373 15.5902751,8.6000603 C16.0760492,9.5477993 16.9104978,10.674202 18.2639346,11.2385035 L18.2639346,15.0874005 C18.2639346,17.5014139 16.3051823,19.4656877 13.8972354,19.4656877 L12.7449851,19.4656877 C10.3364529,19.4656877 8.37726168,17.5014139 8.37726168,15.0874005 Z M7.43644021,9.60442014 L7.43248964,9.60442014 C7.39986083,9.60442014 7.3678173,9.60544694 7.33635904,9.6091141 C7.32611682,9.6101409 7.31645986,9.61175445 7.30665659,9.61366137 C7.28558687,9.6164484 7.26378557,9.61938213 7.24271585,9.62334265 C7.228962,9.62627637 7.21579343,9.63009021 7.20262486,9.63375736 C7.18609098,9.63771789 7.16838656,9.64167842 7.15243796,9.64681243 C7.1369283,9.65150638 7.12215024,9.65781389 7.10722585,9.66353465 C7.09347201,9.66793523 7.07927921,9.67262919 7.06611064,9.67834994 C7.04899149,9.68568425 7.0323113,9.69448542 7.01577742,9.70240647 C7.00494992,9.70768717 6.99412243,9.71223444 6.98373389,9.7179552 C6.96661474,9.72704973 6.95066613,9.73805119 6.93398594,9.74773248 C6.92491426,9.75403998 6.91511098,9.75902731 6.90545403,9.76533481 C6.89067596,9.77574953 6.87633685,9.78719104 6.86141246,9.7981925 C6.85160919,9.80552681 6.84195224,9.81183431 6.83288055,9.81975536 C6.81971198,9.83075682 6.80712868,9.84278508 6.79454537,9.85437328 C6.78488842,9.86273439 6.77508514,9.87153556 6.76601346,9.88048341 C6.76030708,9.88635086 6.75518597,9.89265836 6.74947949,9.89881918 L6.74947958,8.17525731 C6.74889431,4.71229148 9.55979965,1.89489125 13.0142093,1.89489125 L13.6149889,1.89489125 C17.0699839,1.89489125 19.8803039,4.71229148 19.8803039,8.17584406 L19.8803039,9.88517737 C19.8728417,9.87784306 19.8647943,9.87036207 19.8568931,9.86332114 C19.8448951,9.85129288 19.8328971,9.84058479 19.8197285,9.82914327 C19.80934,9.8203421 19.7990977,9.81242105 19.7888555,9.8045 C19.7751017,9.79408529 19.7613478,9.78308383 19.7477403,9.77354923 C19.7361812,9.76533481 19.7241832,9.75844056 19.7121851,9.75051951 C19.6991629,9.74201172 19.685409,9.73335724 19.6710699,9.72543619 C19.6573161,9.7179552 19.642538,9.71106095 19.6281989,9.70343327 C19.6156156,9.69712577 19.6030323,9.69037821 19.5898637,9.68509751 C19.5727446,9.67717646 19.5550402,9.67101564 19.5373357,9.66412139 C19.525923,9.66001418 19.5150955,9.65532022 19.5036827,9.65209313 C19.4842225,9.64519888 19.464177,9.64006487 19.4435462,9.63478417 C19.4356451,9.63317062 19.4275976,9.63009021 19.4191112,9.62803661 C17.4591884,9.18108401 16.8430454,6.63343954 16.8373391,6.61099657 C16.7555476,6.24794843 16.4692043,5.96660446 16.1051663,5.89267466 C15.7411284,5.81757137 15.3678725,5.96367074 15.1501521,6.26511071 C12.7644454,9.57126908 7.50725787,9.60442014 7.43644021,9.60442014 Z M6.48771759,14.181027 C6.17840241,13.9699456 5.9750211,13.6142318 5.9750211,13.2118718 C5.9750211,12.8098052 6.17840241,12.4543847 6.48771759,12.2431567 L6.48771759,14.181027 Z M20.154064,12.2431567 C20.4626476,12.4543847 20.6661752,12.8098052 20.6661752,13.2118718 C20.6661752,13.6142318 20.4626476,13.9699456 20.154064,14.181027 L20.154064,12.2431567 Z M22.1682706,23.8329734 L19.0155676,22.5157321 L16.8939639,21.1125327 L16.8939639,20.592237 C18.5160396,19.7006788 19.7019429,18.1100146 20.0482764,16.2271516 C21.4732625,15.9663437 22.5563045,14.7143777 22.5563045,13.2118718 C22.5563045,12.4247541 22.2585485,11.7056988 21.769848,11.1623734 L21.769848,8.17584406 C21.769848,3.66773965 18.1119107,0 13.6149889,0 L13.013624,0 C8.51728752,0 4.85876495,3.66773965 4.85876495,8.17584406 L4.85876495,11.1761619 C4.37811199,11.7183138 4.08489174,12.4316483 4.08489174,13.2118718 C4.08489174,14.7143777 5.16851908,15.9669304 6.59277355,16.2271516 C6.93925337,18.1100146 8.12515664,19.7006788 9.74723236,20.592237 L9.74723236,21.0569387 L7.6187518,22.4646853 C7.59139043,22.4733398 7.56329747,22.4830211 7.5359361,22.4944626 L4.33231462,23.8329734 C2.81368537,24.3606034 0,26.4136223 0,30.5129125 L0,35.0516743 C0,35.5747569 0.422857552,36 0.944772045,36 L7.15009688,36 C7.67245032,36 8.09486892,35.5757838 8.09486892,35.0528477 C8.09486892,34.5296184 7.67245032,34.1056955 7.15009688,34.1056955 L6.23619782,34.1056955 L6.23619782,30.3065251 C6.23619782,29.7830023 5.81319395,29.3589328 5.29142578,29.3589328 C4.76951128,29.3589328 4.34665373,29.7830023 4.34665373,30.3065251 L4.34665373,34.1056955 L1.89012936,34.1056955 L1.89012936,30.5124724 C1.89012936,26.7420525 4.84793746,25.6592156 4.9679178,25.6168233 C4.98898752,25.609929 5.01020356,25.6017146 5.03083432,25.5932068 L7.3117777,24.6403338 L9.96334329,34.129752 C9.5426805,34.2252447 9.22882948,34.6017879 9.22882948,35.0528477 C9.22882948,35.5757838 9.65124808,36 10.1736015,36 L11.1989945,36 L11.2017745,36 L11.2052862,36 L15.4449818,36 L15.4484934,36 L15.4512735,36 L25.5552279,36 C26.076996,36 26.4999999,35.5668359 26.4999999,35.0434598 L26.4999999,30.5124724 C26.5005852,26.4136223 23.6868998,24.3606034 22.1682706,23.8329734 Z" id="Fill-1" fill="#56468F" mask="url(#mask-2)"></path>
            </g>
        </g>
    </g>
</svg>