<?xml version="1.0" encoding="UTF-8"?>
<svg width="42px" height="40px" viewBox="0 0 42 40" version="1.1" xmlns="http://www.w3.org/2000/svg" xmlns:xlink="http://www.w3.org/1999/xlink">
    <!-- Generator: Sketch 51.2 (57519) - http://www.bohemiancoding.com/sketch -->
    <title>Group 6</title>
    <desc>Created with Sketch.</desc>
    <defs>
        <polygon id="path-1" points="1.84572593e-05 0.0386317907 41.2073694 0.0386317907 41.2073694 39.9195056 1.84572593e-05 39.9195056"></polygon>
    </defs>
    <g id="Page-1" stroke="none" stroke-width="1" fill="none" fill-rule="evenodd">
        <g id="Keto_cycle2" transform="translate(-47.000000, -472.000000)">
            <g id="Group-4" transform="translate(25.000000, 205.000000)">
                <g id="Group-6" transform="translate(22.000000, 267.000000)">
                    <path d="M29.6522897,13.2289738 C29.3376016,13.5428571 29.3376016,14.0531992 29.6522897,14.3670825 C29.9633561,14.6780684 30.4727324,14.684668 30.7903984,14.3670825 C31.1042817,14.0531992 31.1042817,13.5428571 30.7903984,13.2289738 C30.4797344,12.9183903 29.9694728,12.9108249 29.6522897,13.2289738" id="Fill-1" fill="#08D9D6"></path>
                    <g id="Group-5" transform="translate(0.000000, 0.041851)">
                        <mask id="mask-2" fill="white">
                            <use xlink:href="#path-1"></use>
                        </mask>
                        <g id="Clip-4"></g>
                        <path d="M37.0009899,12.8280161 C35.184169,13.5672515 33.5502052,15.1862455 32.7974487,17.0317183 C32.5127002,17.7320805 32.0486358,18.4161046 31.4561207,19.0092636 C30.7905272,19.6742133 29.857328,20.3397264 29.2363219,20.5921207 C28.3376499,20.9587203 27.4703662,21.5447968 26.7281529,22.2870905 C26.0429215,22.972161 25.1784547,24.0878954 24.7910905,25.037674 C24.2142696,26.4605312 22.906503,27.7737706 21.4725392,28.3564668 C20.523002,28.7428652 19.4067847,29.6077344 18.7222777,30.2928048 C17.9785352,31.0358229 17.3924588,31.9035091 17.0275493,32.8016177 C16.774994,33.4229457 16.1092394,34.3563058 15.4445312,35.0210946 C14.8511308,35.6145755 14.16767,36.0779155 13.466503,36.3620201 C12.6366439,36.7005312 11.7439276,37.3469698 11.0513722,37.9787606 L8.77724748,35.7052797 C9.28179477,35.2564266 10.0397827,34.6912757 10.6574889,34.4391227 C11.5924588,34.0603702 12.4544306,33.4574728 13.1677505,32.7441529 C13.8534648,32.0582777 14.7179316,30.9415775 15.1034447,29.993167 C15.3884346,29.2932877 15.852499,28.6095855 16.4443702,28.0170704 C16.998334,27.4645553 17.9403863,26.7274125 18.6636861,26.4324427 C20.5137465,25.6808129 22.1306479,24.0433078 22.8681127,22.2289014 C23.1210704,21.607332 23.786664,20.6746962 24.4511308,20.0108732 C26.0261006,18.4354205 26.8002656,18.9275734 28.916,16.9849577 C29.2434044,16.6843541 29.2652153,16.1751388 28.9645312,15.8477344 C28.664169,15.5202495 28.1547928,15.4985191 27.8274688,15.7991227 C25.8623984,17.6033078 25.1830423,17.0029859 23.3132636,18.8722012 C22.6277907,19.5568692 21.7634044,20.6726841 21.377006,21.6224628 C20.8004266,23.0407324 19.4975694,24.3557425 18.0566841,24.941336 C16.7496419,25.4744547 14.5428008,27.101497 13.6122575,29.3864064 C13.3598632,30.0075734 12.6941087,30.9408531 12.0294809,31.6056419 C11.4628813,32.1717586 10.781835,32.6517586 10.0510503,32.9476942 C9.22883702,33.2833883 8.29917907,33.9653199 7.63777062,34.5649175 L5.36284105,32.2900684 C5.98159356,31.7401288 6.72284105,31.2358229 7.24300201,31.0237505 C8.14119115,30.659163 9.00903823,30.073328 9.75261972,29.3299074 C10.4392998,28.6430664 11.3044105,27.5258028 11.6883944,26.5789215 C11.9740282,25.8775131 12.4380926,25.1941328 13.0312515,24.6016982 C13.6947525,23.9373924 14.6281127,23.2709135 15.2489577,23.0177143 C17.078173,22.2760644 18.7085956,20.6459638 19.4528209,18.8145755 C19.7060201,18.1941328 20.3720161,17.2608531 21.0359195,16.5961449 C21.6304467,16.0022616 22.3143903,15.5379557 23.0133038,15.2535292 C23.9615533,14.8680966 25.078334,14.0041127 25.7651751,13.317996 C26.5083541,12.5739316 27.0941891,11.7058431 27.4591791,10.8076539 C28.0390584,9.38238229 29.3453763,8.073167 30.7778109,7.48894165 C31.6114527,7.15018913 32.7320966,6.39920322 33.6228008,5.45336821 L35.8992596,7.72974648 C35.8423581,7.79099396 35.7846519,7.85127565 35.7256579,7.91026962 C35.0072676,8.62688934 34.1534245,9.18286519 33.5853763,9.41336821 C32.8732636,9.70447485 32.2414728,10.0998873 31.6636056,10.5749779 C31.3202656,10.8572314 31.2706881,11.3645151 31.5530221,11.7078551 C31.8350342,12.0511147 32.3424789,12.1007726 32.6858994,11.8184386 C33.1399839,11.4454809 33.6353561,11.132161 34.1924588,10.9043139 C35.1246922,10.5261247 36.1481932,9.76234205 36.8631227,9.04950503 C36.9223581,8.99026962 36.9804668,8.92958551 37.0379316,8.86849899 L39.3137465,11.1444748 C38.6382535,11.8750181 37.7674286,12.5163863 37.0009899,12.8280161 M3.82803219,27.6089416 C4.72517505,27.2455614 5.59334406,26.6598068 6.33821328,25.9146962 C7.02392757,25.2290624 7.88839437,24.1124427 8.27406841,23.1637103 C8.56018511,22.4614165 9.02392757,21.7780362 9.61620121,21.1865674 C10.2799437,20.5219396 11.2129819,19.8560241 11.8343903,19.6031469 C13.6980523,18.8456419 15.309159,17.1967082 16.0378511,15.3994447 C16.2911308,14.7784386 16.9573682,13.8453199 17.6220765,13.1807726 C18.2140282,12.5887404 18.8980523,12.1243541 19.5990584,11.8384789 C20.5461811,11.4536097 21.6629618,10.5893843 22.3502052,9.90294567 C23.0937062,9.15847887 23.6796217,8.29071227 24.0440483,7.3941328 C24.6275493,5.96322736 25.9347525,4.65594366 27.3637264,4.07461569 C28.3280724,3.68274447 29.4050141,2.90125553 30.2091187,2.03944467 L32.4845312,4.31477666 C31.7655775,5.08886117 30.8086358,5.73892153 30.1710503,5.99807646 C28.3178511,6.75397183 26.7036861,8.3936499 25.9683139,10.2014567 C25.6833239,10.9027042 25.2192596,11.5869698 24.6270664,12.1798068 C23.9616338,12.8445151 23.0281932,13.5100282 22.4071066,13.7624225 C21.5108491,14.1270905 20.6434849,14.713167 19.8977304,15.4579557 C19.2128209,16.14367 18.348837,17.2594849 17.9621167,18.207493 C17.3815936,19.6357425 16.0735855,20.946326 14.6425996,21.5265272 C13.6925795,21.9138913 12.5767646,22.778841 11.8930624,23.4633481 C11.1499638,24.2056419 10.5637264,25.073006 10.1972072,25.9728048 C9.94593964,26.5926841 9.28018511,27.5258028 8.61451107,28.1914769 C8.02199598,28.7840724 7.33837425,29.2476539 6.63664386,29.5324829 C5.83141247,29.8608531 4.90505433,30.5345755 4.22352515,31.1503501 L1.9465835,28.8734889 C2.50207646,28.3738511 3.20437022,27.8633481 3.82803219,27.6089416 M30.720507,0.274535211 C30.5526197,0.106647887 30.3187364,0.0212555332 30.0825996,0.0415372233 C29.8459799,0.0618993964 29.6303662,0.18560161 29.4936258,0.379726358 C28.9573682,1.14020926 27.845336,2.14133602 26.7573682,2.58342857 C24.9495614,3.31896177 23.3101247,4.93095372 22.5530221,6.78713078 C22.2683541,7.48741247 21.8043702,8.17159759 21.2119356,8.76475654 C20.5461006,9.42978672 19.6129014,10.0952998 18.9921368,10.3475332 C18.0933843,10.7141328 17.2260201,11.3002897 16.4837264,12.042503 C15.798495,12.7278149 14.9340282,13.8435493 14.546664,14.793167 C13.9697626,16.2161046 12.6645714,17.5280563 11.2281127,18.1120402 C10.2782535,18.4985191 9.16219718,19.3633883 8.47809256,20.0483783 C7.73579879,20.7896258 7.14980282,21.6569899 6.78320322,22.5571107 C6.5305674,23.1785191 5.86489336,24.1118793 5.20018511,24.776507 C4.60630181,25.3703903 3.92308249,25.8338109 3.22199598,26.117674 C2.12767002,26.5641932 0.92098994,27.5493038 0.210486922,28.327493 C-0.0795734406,28.6452394 -0.0685472837,29.1350584 0.235678068,29.4392837 L3.65080885,32.854495 L7.04437022,36.2479759 C7.05113078,36.2552193 7.05805231,36.2625433 7.06513481,36.2696258 L10.4802656,39.6838712 C10.8063823,40.009827 11.3365231,39.9946157 11.6442093,39.656829 C12.2304467,39.0136901 13.2534648,38.1873722 14.0728612,37.8532877 C14.9704064,37.489505 15.8384145,36.903831 16.5830423,36.1592837 C17.2686761,35.4735694 18.1332233,34.3568692 18.5190584,33.4075734 C18.8035654,32.7070503 19.2673883,32.023831 19.8607082,31.430994 C20.5247726,30.7663662 21.4578109,30.1003702 22.0790584,29.8475734 C22.9785352,29.4821006 23.8462213,28.8961046 24.5881127,28.1534085 C25.332499,27.409827 25.9186559,26.5415775 26.2825996,25.6438712 C26.5358793,25.0227847 27.2021972,24.089666 27.8667445,23.4251992 C28.4586962,22.8332475 29.1428008,22.3688612 29.8437264,22.0829054 C30.791171,21.6978753 31.9077907,20.8335694 32.5948732,20.1474527 C33.3382938,19.4030664 33.9242093,18.5352193 34.2887163,17.6385594 C34.883163,16.1811751 36.2066237,14.8891026 37.60767,14.3190423 C38.8229618,13.8251187 40.1732233,12.7482575 41.04767,11.5756217 C41.2866237,11.2552193 41.2542696,10.8080563 40.9717746,10.5254004 C40.2255372,9.77964588 31.1097223,0.66367002 30.720507,0.274535211" id="Fill-3" fill="#08D9D6" mask="url(#mask-2)"></path>
                    </g>
                </g>
            </g>
        </g>
    </g>
</svg>