<?xml version="1.0" encoding="UTF-8"?>
<svg width="40px" height="29px" viewBox="0 0 40 29" version="1.1" xmlns="http://www.w3.org/2000/svg" xmlns:xlink="http://www.w3.org/1999/xlink">
    <!-- Generator: Sketch 51.2 (57519) - http://www.bohemiancoding.com/sketch -->
    <title>Group 6</title>
    <desc>Created with Sketch.</desc>
    <defs>
        <polygon id="path-1" points="2.08333333e-05 0.0607521245 39.9999219 0.0607521245 39.9999219 28.045977 2.08333333e-05 28.045977"></polygon>
    </defs>
    <g id="Page-1" stroke="none" stroke-width="1" fill="none" fill-rule="evenodd">
        <g id="Keto_cycle2" transform="translate(-48.000000, -414.000000)">
            <g id="Group-4" transform="translate(25.000000, 205.000000)">
                <g id="Group-6" transform="translate(23.000000, 208.977011)">
                    <path d="M26.8965517,13.7931034 C27.2773175,13.7931034 27.5862069,13.4841451 27.5862069,13.1034483 C27.5862069,12.7227514 27.2773175,12.4137931 26.8965517,12.4137931 C26.5158549,12.4137931 26.2068966,12.7227514 26.2068966,13.1034483 C26.2068966,13.4841451 26.5158549,13.7931034 26.8965517,13.7931034" id="Fill-1" fill="#08D9D6"></path>
                    <g id="Group-5">
                        <mask id="mask-2" fill="white">
                            <use xlink:href="#path-1"></use>
                        </mask>
                        <g id="Clip-4"></g>
                        <path d="M38.4302812,19.529887 C38.4302812,25.7945389 31.4475469,26.4707936 28.4454375,26.4707936 C23.607,26.4707936 20.6735625,24.0829465 17.2769219,21.3181332 C15.3327031,19.7355838 13.4633281,17.9939758 8.86645312,17.9939758 C6.81301562,17.9939758 5.57278125,18.4330214 3.32457812,17.763148 C2.32004687,17.464096 1.56239062,16.4967461 1.56239062,15.512931 L1.56239062,13.1736129 C2.83059375,14.5013851 4.69840625,15.1313955 6.54207812,14.9626469 C6.54489062,14.9624106 6.54754687,14.962253 6.5504375,14.9620167 L6.57090625,14.9602835 C6.57348437,14.9599684 6.57621875,14.959732 6.57879687,14.9594957 C8.75785937,14.7491508 10.6709844,14.820999 12.427625,15.1791366 C14.5470781,15.6105405 16.361375,16.4414419 17.9739531,17.7192671 C21.7995,20.7526443 24.1986406,23.3231842 28.562,23.3231842 C30.0416875,23.3231054 31.5560625,23.0269682 32.9990312,22.6314884 C35.2662187,22.0064413 37.1812969,20.5848411 38.4302812,18.7496416 L38.4302812,19.529887 Z M1.56239062,8.77299432 C1.63621875,7.95950342 1.96215625,7.21809699 2.53215625,6.56910048 C3.63059375,5.31869108 5.32067188,4.23994511 7.46309375,3.41384928 L5.81121875,13.4107433 C3.615125,13.3477974 1.76051562,11.8640391 1.56239062,9.52424835 L1.56239062,8.77299432 Z M9.14059375,2.84583947 C10.59825,2.41506587 12.1798125,2.0955308 13.8590312,1.89180356 L11.9416094,13.4933843 C10.4197344,13.256254 8.93809375,13.2220632 7.41059375,13.3154972 L9.14059375,2.84583947 Z M15.4689531,1.7342419 C17.3206719,1.5948786 19.1986406,1.5969269 21.0702812,1.74093827 L18.6687187,16.2726934 C17.1387187,15.1191844 15.3955156,14.2912766 13.4740312,13.8045686 L15.4689531,1.7342419 Z M28.0473906,3.00505553 L26.9258281,9.79344246 C26.8466094,10.2732177 27.2133281,10.7106877 27.6972344,10.7106877 C28.0721562,10.7106877 28.4030937,10.4376333 28.4668437,10.0523951 L29.54825,3.50641676 C31.3578594,4.17408433 32.9253594,4.99671381 34.2247344,5.9590217 L31.6824687,21.3416098 C29.6455937,21.816028 28.0261406,21.8716473 26.572,21.5133521 L27.438875,16.2686756 C27.5098125,15.8395564 27.2223125,15.4337563 26.7968437,15.3622233 C26.371375,15.2906903 25.9687969,15.580525 25.8979375,16.0096442 L25.0769219,20.9763819 C23.4483281,20.2083475 21.8970781,18.8800239 20.067625,17.390042 L22.6285625,1.89416699 C24.5423906,2.12255263 26.3591875,2.49502841 28.0473906,3.00505553 Z M38.4148125,14.1639668 C38.2669219,17.1009951 36.2218437,19.7552002 33.3456719,20.8607316 L35.6130937,7.14128568 C37.6085625,9.10986116 38.5508281,11.4664323 38.4148125,14.1639668 Z M14.72575,0.215111068 C11.97075,0.467918765 9.3210625,1.07602803 8.1716875,1.49711158 C4.66332812,2.61761139 0.321921875,4.94889384 0.00090625,8.64899328 C0.000671875,8.65143549 0.000359375,8.65395648 0.000125,8.65639868 C-0.000109375,8.65947114 0.000125,15.5128523 0.000125,15.5128523 C0.000125,17.1950594 1.2123125,18.7768998 2.882,19.2738493 C5.427625,20.0323512 6.93528125,19.5691986 8.86629687,19.5691986 C12.9155156,19.5691986 14.4111406,21.009785 16.2955156,22.5438842 C19.7716875,25.3733766 23.0549687,28.0460164 28.4452812,28.0460164 C34.5474687,28.0460164 39.9923125,25.6286265 39.9923125,19.5298082 C39.9923125,19.5298082 39.9991875,14.1169347 39.9923125,14.0748657 C40.3820781,3.171677 25.8023125,-0.805652202 14.72575,0.215111068 Z" id="Fill-3" fill="#08D9D6" mask="url(#mask-2)"></path>
                    </g>
                </g>
            </g>
        </g>
    </g>
</svg>