<?xml version="1.0" encoding="UTF-8"?>
<svg width="25px" height="25px" viewBox="0 0 25 25" version="1.1" xmlns="http://www.w3.org/2000/svg" xmlns:xlink="http://www.w3.org/1999/xlink">
    <!-- Generator: Sketch 51.2 (57519) - http://www.bohemiancoding.com/sketch -->
    <title>Group 9</title>
    <desc>Created with Sketch.</desc>
    <defs></defs>
    <g id="Page-1" stroke="none" stroke-width="1" fill="none" fill-rule="evenodd">
        <g id="Keto_cycle_recepies" transform="translate(-27.000000, -25.000000)">
            <g id="Group-9" transform="translate(28.000000, 26.000000)">
                <g id="Group" fill-rule="nonzero" stroke="#56468F">
                    <circle id="Oval-5" cx="11.5" cy="11.5" r="11.5"></circle>
                </g>
                <path d="M10.7907144,8.42 L12.3707144,8.42 L12.3707144,18 L10.7907144,18 L10.7907144,8.42 Z M11.5707144,6.18 C11.2507128,6.18 11.0007153,6.0900009 10.8207144,5.91 C10.6407135,5.7299991 10.5507144,5.4900015 10.5507144,5.19 C10.5507144,4.8899985 10.6407135,4.6500009 10.8207144,4.47 C11.0007153,4.2899991 11.2507128,4.2 11.5707144,4.2 C11.890716,4.2 12.1473801,4.2899991 12.3407144,4.47 C12.5340487,4.6500009 12.6307144,4.8899985 12.6307144,5.19 C12.6307144,5.4900015 12.5340487,5.7299991 12.3407144,5.91 C12.1473801,6.0900009 11.890716,6.18 11.5707144,6.18 Z" id="i" fill="#56468F"></path>
            </g>
        </g>
    </g>
</svg>