<?xml version="1.0" encoding="UTF-8"?>
<svg width="40px" height="21px" viewBox="0 0 40 21" version="1.1" xmlns="http://www.w3.org/2000/svg" xmlns:xlink="http://www.w3.org/1999/xlink">
    <!-- Generator: Sketch 51.2 (57519) - http://www.bohemiancoding.com/sketch -->
    <title>Group 6</title>
    <desc>Created with Sketch.</desc>
    <defs>
        <polygon id="path-1" points="0 0.0224959648 39.9610358 0.0224959648 39.9610358 20.9755512 0 20.9755512"></polygon>
    </defs>
    <g id="Page-1" stroke="none" stroke-width="1" fill="none" fill-rule="evenodd">
        <g id="Keto_cycle4" transform="translate(-47.000000, -390.000000)">
            <g id="Group-4" transform="translate(25.000000, 178.000000)">
                <g id="Group-6">
                    <g transform="translate(22.000000, 212.000000)">
                        <g id="Group-3" transform="translate(0.000000, 0.075122)">
                            <mask id="mask-2" fill="white">
                                <use xlink:href="#path-1"></use>
                            </mask>
                            <g id="Clip-2"></g>
                            <path d="M32.4025659,18.8876488 C32.9349561,18.3289171 33.416322,17.6856976 33.8274439,16.9692098 C33.9939805,16.6798439 34.1464683,16.3808195 34.2882244,16.0747707 C35.4391512,15.726478 36.4623707,15.2554537 37.3122244,14.6891122 C36.2634439,16.6337951 34.5111512,18.148722 32.4025659,18.8876488 Z M2.6487122,14.688722 C3.49817561,15.2554537 4.52149268,15.726478 5.67241951,16.0747707 C5.81417561,16.3808195 5.9669561,16.6798439 6.13310244,16.9692098 C6.5447122,17.6853073 7.0256878,18.3289171 7.55807805,18.8876488 C5.44978537,18.148722 3.6972,16.6337951 2.6487122,14.688722 Z M4.16510244,4.26374634 C5.14529756,3.2718439 6.31261463,2.53896585 7.58588293,2.09838049 C6.82939512,2.89262439 6.18607805,3.85486829 5.68500488,4.93447805 C4.53710244,5.28364878 3.49973659,5.75545366 2.63622439,6.33077073 C3.03788293,5.58277073 3.55007805,4.88686829 4.16510244,4.26374634 Z M37.3244195,6.33077073 C36.4612976,5.75545366 35.4235415,5.28364878 34.275639,4.93447805 C33.7748585,3.85486829 33.131639,2.89262439 32.3751512,2.09838049 C33.6480293,2.53896585 34.815639,3.2718439 35.7954439,4.26374634 C36.4109561,4.88686829 36.9231512,5.58277073 37.3244195,6.33077073 Z M34.9841268,6.87125854 C35.9597366,7.28589268 36.7855902,7.81291707 37.3926146,8.43067317 C38.0462732,9.09574634 38.3739805,9.79769756 38.3686146,10.5171122 L38.3686146,10.540039 C38.3438341,11.9645268 37.0169073,13.2630634 34.9989561,14.1177951 C35.302761,12.9989659 35.4647122,11.8132098 35.4727122,10.5936976 C35.4814927,9.30033171 35.3084195,8.04394146 34.9841268,6.87125854 Z M29.4849073,15.1592585 C28.7173951,15.1592585 27.9535902,15.1045268 27.2150537,14.9993561 C27.4917366,13.8896 27.6647122,12.6357463 27.7138829,11.2950634 L29.2208098,11.2950634 C29.6602244,11.2950634 30.0169073,10.9386732 30.0169073,10.4989659 C30.0169073,10.0595512 29.6602244,9.70316098 29.2208098,9.70316098 L27.7128098,9.70316098 C27.6616878,8.37320976 27.4849073,7.1158439 27.2032488,5.99994146 C27.9452,5.89379512 28.7128098,5.83886829 29.4852976,5.83886829 L29.5169073,5.83886829 C30.7813951,5.84140488 32.004322,5.98969756 33.1209073,6.2611122 C33.6174927,7.56520976 33.890761,9.04228293 33.8804195,10.5835512 C33.8709561,12.0609171 33.5984683,13.4763317 33.1209073,14.7328195 C32.0031512,15.0057951 30.7695902,15.1592585 29.4849073,15.1592585 Z M6.1056878,11.2950634 L19.1842244,11.2950634 L19.1842244,13.8495024 C17.6624683,13.9107707 16.1574927,14.1483317 14.767639,14.5625756 C14.6198341,14.6066732 14.4692976,14.6479415 14.3172,14.6870634 C14.1888098,14.188722 14.0816878,13.6536976 14.002078,13.0934049 C13.940322,12.6581854 13.5371024,12.3556488 13.1022732,12.4174049 C12.6670537,12.4794537 12.3640293,12.8821854 12.4261756,13.3174049 C12.5103707,13.9097951 12.6194439,14.4714537 12.7504683,14.9985756 C12.0103707,15.1045268 11.2452,15.1588683 10.4757366,15.1588683 C9.19105366,15.1588683 7.95739512,15.0057951 6.83963902,14.7328195 C6.43915122,13.6794537 6.1834439,12.5145756 6.1056878,11.2950634 Z M1.7292,11.2950634 L4.51115122,11.2950634 C4.56490732,12.2676488 4.71661463,13.2146732 4.96198049,14.1177951 C3.30724878,13.4166244 2.11749268,12.4174049 1.7292,11.2950634 Z M4.51076098,9.70277073 L1.73105366,9.70277073 C1.88422439,9.26764878 2.16363902,8.84189268 2.56832195,8.43028293 C3.17505366,7.81291707 4.00129756,7.28589268 4.97651707,6.87125854 C4.72724878,7.77291707 4.56715122,8.7233561 4.51076098,9.70277073 Z M10.4437366,5.83886829 L10.4753463,5.83886829 C11.2466634,5.83886829 12.0131024,5.89340488 12.7542732,5.99964878 C12.6167122,6.55067317 12.5031512,7.1398439 12.4167122,7.76267317 C12.3564195,8.19789268 12.6602244,8.60033171 13.0957366,8.66042927 C13.1327122,8.66550244 13.1696878,8.66813659 13.2062732,8.66813659 C13.5972976,8.66813659 13.9383707,8.37955122 13.9936878,7.98130732 C14.0752488,7.39369756 14.1864683,6.83242927 14.3213951,6.31145366 C14.4932976,6.35603902 14.6632488,6.40364878 14.8297854,6.45438049 C16.2002244,6.87047805 17.6838341,7.1091122 19.1842244,7.17155122 L19.1842244,9.70277073 L6.10646829,9.70277073 C6.18422439,8.48101463 6.43876098,7.31447805 6.84002927,6.2611122 C7.95632195,5.98930732 9.17924878,5.8411122 10.4437366,5.83886829 Z M20.7764195,9.70277073 L20.7764195,7.17155122 C22.2768098,7.1091122 23.7604195,6.87047805 25.1308585,6.45399024 C25.2966146,6.40364878 25.4651024,6.35642927 25.6358341,6.31223415 C25.8888098,7.2851122 26.0664683,8.43067317 26.1194439,9.70277073 L20.7764195,9.70277073 Z M25.1932976,14.5625756 C23.8030537,14.1479415 22.2981756,13.9107707 20.7764195,13.8491122 L20.7764195,11.2950634 L26.1205171,11.2950634 C26.0694927,12.5759415 25.8961268,13.7194537 25.647639,14.6883317 C25.4939805,14.648722 25.3423707,14.6066732 25.1932976,14.5625756 Z M28.930761,1.63155122 C28.9605171,1.64755122 28.9909561,1.66277073 29.0229561,1.6753561 C30.2958341,2.17038049 31.3949561,3.1593561 32.2246146,4.46306341 C31.3530049,4.32277073 30.4445171,4.24852683 29.520322,4.24667317 L29.4859805,4.24667317 C28.5473463,4.24667317 27.6129073,4.32091707 26.7138829,4.46423415 C26.4052,3.68228293 26.0351512,3.01496585 25.6148585,2.50042927 C26.6484195,1.99994146 27.7786634,1.70247805 28.930761,1.63155122 Z M24.107639,3.21720976 C24.4623707,3.53428293 24.8168098,4.07506341 25.1278341,4.80033171 C24.9731024,4.84189268 24.8194439,4.88501463 24.6682244,4.93067317 C23.4593463,5.2980878 22.1281268,5.51116098 20.7764195,5.5713561 L20.7764195,3.98296585 C21.9090049,3.90179512 23.0325171,3.64628293 24.107639,3.21720976 Z M19.1842244,3.98296585 L19.1842244,5.5713561 C17.8328098,5.51116098 16.5012976,5.2980878 15.2924195,4.93067317 C15.139639,4.88413659 14.9841268,4.84081951 14.8274439,4.79877073 C15.1278341,4.09613659 15.4776878,3.54647805 15.8511512,3.21652683 C16.9273463,3.64599024 18.0508585,3.90140488 19.1842244,3.98296585 Z M10.9379805,1.67496585 C10.9699805,1.66277073 11.0001268,1.6478439 11.0294927,1.6318439 C12.1800293,1.70316098 13.3103707,1.99964878 14.3431512,2.4993561 C13.9212,3.01116098 13.5492976,3.67428293 13.2394439,4.46306341 C12.342761,4.32023415 11.4109561,4.24667317 10.4749561,4.24667317 L10.4407122,4.24667317 C9.51651707,4.24813659 8.60793171,4.32277073 7.73641951,4.46306341 C8.5656878,3.1593561 9.66510244,2.17038049 10.9379805,1.67496585 Z M11.0229561,19.3661854 C10.994761,19.3514537 10.9657854,19.3373073 10.9353463,19.3257951 C9.66929756,18.8376 8.57105366,17.8484293 7.74022439,16.5423805 C8.61027317,16.6783805 9.52676098,16.7512585 10.4761268,16.7512585 C11.4090049,16.7512585 12.3393463,16.6776976 13.2348585,16.5355512 C13.5447122,17.3254049 13.9167122,17.9894049 14.3389561,18.5011122 C13.3057854,18.9999415 12.1742732,19.2950634 11.0229561,19.3661854 Z M15.8610049,17.7950634 C15.4821756,17.4675512 15.1266634,16.9132098 14.8225659,16.2005268 C14.9571024,16.1643317 15.0908585,16.1273561 15.2226634,16.0881366 C16.4699805,15.716039 17.8191512,15.500722 19.1842244,15.4401366 L19.1842244,17.0561366 C18.0549561,17.1348683 16.9345659,17.3808195 15.8610049,17.7950634 Z M20.7764195,17.0561366 L20.7764195,15.4401366 C22.1418829,15.500722 23.4905659,15.716039 24.7382732,16.0881366 C24.8709561,16.1277463 25.0058829,16.1651122 25.1414927,16.2009171 C24.8263707,16.9348683 24.464322,17.4779902 24.0988585,17.7946732 C23.0252976,17.3808195 21.9055902,17.1348683 20.7764195,17.0561366 Z M29.0252976,19.3257951 C28.994761,19.3373073 28.9661756,19.3514537 28.9379805,19.3661854 C27.7866634,19.2950634 26.655639,18.9999415 25.6228585,18.5011122 C26.0485171,17.9867707 26.4215902,17.3206244 26.7302732,16.5362341 C27.624322,16.6780878 28.5531024,16.7512585 29.4849073,16.7512585 C30.4337854,16.7512585 31.3503707,16.6783805 32.2204195,16.5423805 C31.3899805,17.8484293 30.291639,18.8376 29.0252976,19.3257951 Z M39.9609073,10.5625756 L39.9609073,10.5606244 L39.9609073,10.5522341 C39.9745659,7.7691122 38.898761,5.1398439 36.9281268,3.14530732 C34.9487122,1.1411122 32.3183707,0.0320390244 29.5214927,0.0225756098 C27.7764195,0.0164292683 26.0481268,0.448234146 24.5222732,1.27067317 C21.6784683,2.80345366 18.2828585,2.80345366 15.438761,1.27067317 C13.9128098,0.448234146 12.1804195,0.0157463415 10.4395415,0.0225756098 C7.64266341,0.0320390244 5.01232195,1.1411122 3.03290732,3.14530732 C1.06227317,5.14023415 -0.0136292683,7.7691122 0.000126829268,10.5522341 L0.000126829268,10.5606244 L0.000126829268,10.5625756 C0.000517073171,10.5728195 0.000126829268,10.583161 0.000126829268,10.5934049 C0.0245170732,13.372039 1.12549268,15.9801366 3.09924878,17.9379902 C5.07446829,19.8968195 7.69446829,20.9755512 10.4761268,20.9755512 C12.179639,20.9755512 13.8709561,20.5571122 15.3675415,19.7656976 C18.2558341,18.2378927 21.7052,18.2378927 24.5934927,19.7656976 C26.090078,20.5571122 27.7813951,20.9755512 29.4849073,20.9755512 C32.2668585,20.9755512 34.8865659,19.8968195 36.8617854,17.9379902 C38.8358341,15.9801366 39.9365171,13.372039 39.9609073,10.5934049 L39.9609073,10.5625756 Z" id="Fill-1" fill="#08D9D6" mask="url(#mask-2)"></path>
                        </g>
                        <path d="M32.0370927,9.77794146 L31.8609951,9.77794146 C31.4212878,9.77794146 31.0648976,10.1342341 31.0648976,10.574039 C31.0648976,11.0138439 31.4212878,11.3701366 31.8609951,11.3701366 L32.0370927,11.3701366 C32.4765073,11.3701366 32.8328,11.0138439 32.8328,10.574039 C32.8328,10.1342341 32.4765073,9.77794146 32.0370927,9.77794146" id="Fill-4" fill="#08D9D6"></path>
                    </g>
                </g>
            </g>
        </g>
    </g>
</svg>