<?xml version="1.0" encoding="UTF-8"?>
<svg width="27px" height="40px" viewBox="0 0 27 40" version="1.1" xmlns="http://www.w3.org/2000/svg" xmlns:xlink="http://www.w3.org/1999/xlink">
    <!-- Generator: Sketch 51.2 (57519) - http://www.bohemiancoding.com/sketch -->
    <title>Group 6</title>
    <desc>Created with Sketch.</desc>
    <defs>
        <polygon id="path-1" points="0 0 26.1193572 0 26.1193572 39.9999844 0 39.9999844"></polygon>
    </defs>
    <g id="Page-1" stroke="none" stroke-width="1" fill="none" fill-rule="evenodd">
        <g id="Keto_cycle2" transform="translate(-55.000000, -278.000000)">
            <g id="Group-4" transform="translate(25.000000, 205.000000)">
                <g id="Group-6" transform="translate(30.000000, 73.000000)">
                    <g id="Group-3">
                        <mask id="mask-2" fill="white">
                            <use xlink:href="#path-1"></use>
                        </mask>
                        <g id="Clip-2"></g>
                        <path d="M24.3676704,13.6530313 C24.3676704,18.2070938 20.9301082,21.9675625 16.5299758,22.4444375 C16.460672,22.4519375 16.3913682,22.4585781 16.3219092,22.4643594 C16.314226,22.4649844 16.3067756,22.4658438 16.2990924,22.4664688 C16.22358,22.4726406 16.1480676,22.4777188 16.0723999,22.4819375 C16.0686747,22.4820938 16.0649496,22.4824844 16.0610692,22.4826406 C15.9867984,22.486625 15.9126053,22.4896719 15.8387227,22.4918594 C15.832514,22.4920156 15.8264606,22.4923281 15.8204072,22.4925625 C15.741092,22.49475 15.661932,22.4958438 15.5832376,22.4958438 L10.5359333,22.4958438 C10.4611194,22.4958438 10.3866934,22.4949063 10.3123451,22.4930313 C10.2745501,22.4920938 10.2368327,22.4902188 10.1991153,22.4887344 C10.1626396,22.4873281 10.1260087,22.4863125 10.0896882,22.4845156 C10.0507291,22.4825625 10.0118475,22.4795938 9.97296599,22.4771719 C9.93742159,22.4749063 9.9018772,22.4730313 9.86641041,22.470375 C9.83715225,22.4681875 9.80781648,22.4652188 9.77855832,22.4626406 C9.73300251,22.4586563 9.6874467,22.4550625 9.64212372,22.4502969 C9.62877517,22.4489688 9.61534901,22.4471719 9.60184524,22.4457656 C5.19565944,21.9748281 1.75150057,18.2113125 1.75150057,13.6529531 L1.75150057,7.18545312 C3.060357,7.99060938 4.99155079,8.56553125 7.15812919,8.92592188 C7.15991417,8.92615625 7.16177676,8.92646875 7.16363935,8.92678125 C7.3034887,8.9500625 7.44450217,8.97225 7.58629171,8.99365625 C7.66840082,9.0063125 7.75105318,9.0185 7.83393837,9.03045313 C7.86824104,9.035375 7.90277654,9.0400625 7.93723442,9.04482813 C9.03965396,9.20021875 10.2102132,9.30475 11.4206629,9.35435938 C11.4571386,9.35584375 11.493459,9.35717188 11.5298571,9.35857813 C11.6815805,9.3644375 11.8336919,9.36951563 11.9865017,9.37365625 C12.1059402,9.3769375 12.2253787,9.37975 12.3445843,9.38201563 C12.4054289,9.38303125 12.4662735,9.38396875 12.5272732,9.38482813 C12.7051504,9.38725 12.8827172,9.3888125 13.0596631,9.3888125 C13.2365314,9.3888125 13.4141758,9.38717188 13.592053,9.38482813 C13.6530527,9.38396875 13.7139749,9.38303125 13.7748971,9.38201563 C13.8934819,9.37975 14.0122219,9.3769375 14.1312723,9.37365625 C14.2853239,9.36951563 14.438677,9.36428125 14.5917197,9.3585 C14.6271089,9.35709375 14.6624205,9.35584375 14.6978872,9.35435938 C15.9098115,9.30467188 17.0818452,9.2000625 18.1855065,9.04428125 C18.2184122,9.03975 18.251318,9.03521875 18.2842237,9.03053125 C18.367885,9.0185 18.4512358,9.00615625 18.5341986,8.99342188 C18.6742808,8.97225 18.8135092,8.95021875 18.9518064,8.92732813 C18.9552212,8.92670313 18.9587135,8.92623438 18.9621283,8.92560938 C21.1283186,8.56521875 23.0592796,7.990375 24.3679032,7.18521875 L24.3679032,13.6530313 L24.3676704,13.6530313 Z M15.7642967,24.2576406 L15.7642967,27.9095937 L14.7419685,27.9095937 L10.5016307,27.9095937 L9.47922483,27.9095937 L9.47922483,24.2062344 C9.51026798,24.2093594 9.54138872,24.211625 9.57250947,24.2145156 C9.62761105,24.2195156 9.68271262,24.22475 9.73804702,24.2289688 C9.76877973,24.2312344 9.79951244,24.232875 9.83032276,24.2349063 C9.88783018,24.2388125 9.94533759,24.242875 10.0031554,24.2457656 C10.0428907,24.2477188 10.0828587,24.2487344 10.1225939,24.250375 C10.1713317,24.25225 10.2198366,24.2545156 10.2687295,24.2558438 C10.3578233,24.2581094 10.4468395,24.2592813 10.5359333,24.2592813 L15.5832376,24.2592813 C15.6434613,24.2592813 15.7038402,24.2587344 15.7642967,24.2576406 Z M14.1412837,33.8999844 C14.3169879,34.066625 14.5529934,34.1527188 14.7939658,34.1385 C14.8342442,34.1360781 14.8748331,34.1342813 14.9156549,34.1342813 C16.0392614,34.1342813 16.9534819,35.0544375 16.9534819,36.1855313 C16.9534819,37.316625 16.0392614,38.2367813 14.9156549,38.2367813 C14.2858672,38.2367813 13.7011696,37.9495156 13.3111901,37.4486563 C13.1451869,37.2354531 12.8910212,37.1108438 12.6217996,37.1108438 C12.3527332,37.1108438 12.0984898,37.235375 11.9324866,37.4486563 C11.5426624,37.9495156 10.9578096,38.2367031 10.3279443,38.2367031 C9.20433782,38.2367031 8.29027254,37.3165469 8.29027254,36.1854531 C8.29027254,35.0543594 9.20433782,34.1342031 10.3279443,34.1342031 C10.3688436,34.1342031 10.4093549,34.136 10.4496334,34.1383438 C10.6902178,34.1529531 10.9266113,34.0665469 11.1023155,33.8998281 C11.2778644,33.7333438 11.3775129,33.5012344 11.3775129,33.2581875 L11.3775129,29.672875 L13.8662415,29.672875 L13.8662415,33.2581875 C13.8661639,33.5012344 13.9657348,33.7333438 14.1412837,33.8999844 Z M13.0596631,1.76334375 C20.3763762,1.76334375 24.3676704,3.69959375 24.3676704,4.6944375 C24.3676704,4.7088125 24.3666615,4.72334375 24.3650317,4.73803125 C24.3644885,4.741 24.3636348,4.7438125 24.3631691,4.74670312 C24.3269263,4.97951562 24.0089669,5.396 23.1478302,5.85209375 C22.6217265,6.12623437 21.9286884,6.40092187 21.0743812,6.6494375 C21.0113636,6.66771875 20.9482684,6.68584375 20.8841643,6.70365625 C20.8365907,6.7169375 20.788241,6.7300625 20.7396585,6.7431875 C18.753984,7.2744375 16.2730938,7.58170312 13.6404803,7.62123437 C13.6327971,7.6213125 13.6249587,7.62139063 13.6173531,7.62146875 C13.4321032,7.624125 13.2460772,7.62560937 13.0595855,7.62560937 C12.8730162,7.62560937 12.6870678,7.62420313 12.5018178,7.62146875 C12.4941347,7.62139063 12.4863739,7.6213125 12.4786907,7.62123437 C9.84615476,7.58185937 7.36510934,7.2744375 5.37959005,6.74326563 C5.33100753,6.73014062 5.28258023,6.71701562 5.23492901,6.7038125 C5.17105775,6.68615625 5.108273,6.66795313 5.04556585,6.64982812 C4.19079297,6.40107812 3.49759963,6.1263125 2.97118557,5.85209375 C2.77895092,5.75029687 2.61333577,5.650375 2.47239991,5.554125 L16.8813842,5.554125 C17.3650363,5.554125 17.7571112,5.1594375 17.7571112,4.67248437 C17.7571112,4.18553125 17.3650363,3.79084375 16.8813842,3.79084375 L2.53029537,3.79084375 C4.02090938,2.83295313 7.62137046,1.76334375 13.0596631,1.76334375 Z M26.1192796,4.6944375 C26.1192796,3.67779688 25.3934134,2.23865625 21.9348971,1.15646875 C19.5517927,0.4106875 16.399905,-1.5625e-05 13.0596631,-1.5625e-05 C9.71949874,-1.5625e-05 6.56753344,0.4106875 4.18435152,1.15646875 C0.725990413,2.23873437 -3.10431408e-05,3.67779688 -3.10431408e-05,4.6944375 C-3.10431408e-05,4.73295312 0.0013658982,4.77240625 0.00369413376,4.81201562 C0.00175393746,4.83576563 0.000124172563,4.85951562 0.000124172563,4.8838125 L0.000124172563,13.6530312 C0.000124172563,18.5226406 3.27719333,22.6356094 7.72769322,23.876 L7.72769322,28.7912344 C7.72769322,29.2781094 8.1198457,29.672875 8.60357544,29.672875 L9.62582607,29.672875 L9.62582607,32.436625 C7.87056928,32.7689687 6.53866332,34.3235 6.53866332,36.1854531 C6.53866332,38.2888125 8.2385081,39.9999844 10.3279443,39.9999844 C11.1709208,39.9999844 11.9700488,39.7239687 12.6217996,39.2227187 C13.2736279,39.7239687 14.0728336,39.9999844 14.9156549,39.9999844 C17.0050911,39.9999844 18.7050135,38.2888125 18.7050135,36.1854531 C18.7050135,34.3235781 17.3729523,32.7690469 15.6178507,32.436625 L15.6178507,29.672875 L16.640179,29.672875 C17.1237535,29.672875 17.5159836,29.2781094 17.5159836,28.7912344 L17.5159836,24.07975 C22.4057439,23.1634219 26.1193572,18.8368594 26.1193572,13.6530312 L26.1193572,4.8838125 C26.1193572,4.8594375 26.1177275,4.83560937 26.1157873,4.81170313 C26.1179603,4.77209375 26.1192796,4.732875 26.1192796,4.6944375 Z" id="Fill-1" fill="#08D9D6" mask="url(#mask-2)"></path>
                    </g>
                    <path d="M20.0000341,5.38461538 C19.9492452,5.38461538 19.8992061,5.37923174 19.8492353,5.36921407 C19.7999461,5.35919641 19.7514751,5.34461286 19.7053901,5.3253953 C19.6591688,5.30617773 19.6145836,5.28232614 19.5723845,5.2546583 C19.5307989,5.22699046 19.4907131,5.19462044 19.4553313,5.15925195 C19.4199495,5.12388345 19.3876355,5.08469869 19.359889,5.04237916 C19.3322789,5.0008774 19.3083502,4.95624085 19.2891254,4.90935544 C19.2699006,4.86321966 19.2553797,4.81476686 19.2453583,4.76556444 C19.2353368,4.71629387 19.2307692,4.66559221 19.2307692,4.61557202 C19.2307692,4.56555183 19.235405,4.51485017 19.2453583,4.46482998 C19.2553797,4.41637718 19.2699006,4.36792438 19.2891254,4.32103898 C19.3083502,4.27490319 19.3322789,4.23026664 19.359889,4.18876488 C19.3876355,4.14644535 19.4199495,4.10719245 19.4553313,4.07182395 C19.4907131,4.03645545 19.5307307,4.00415358 19.5723845,3.97573612 C19.6146518,3.94800013 19.6593051,3.92421669 19.7053901,3.90499912 C19.7515433,3.88571341 19.7999461,3.87112987 19.8492353,3.86118035 C19.9484271,3.84114501 20.0507548,3.84114501 20.1500148,3.86118035 C20.199304,3.87112987 20.247775,3.88571341 20.2939282,3.90499912 C20.3400132,3.92421669 20.3847347,3.94800013 20.4269338,3.97573612 C20.4684512,4.00415358 20.508537,4.03645545 20.543987,4.07182395 C20.5793006,4.10719245 20.6116828,4.14644535 20.6393611,4.18876488 C20.6669712,4.23026664 20.6908999,4.27490319 20.7101247,4.32103898 C20.7293495,4.36792438 20.7438704,4.41637718 20.7538918,4.46482998 C20.7639133,4.51485017 20.7692308,4.56555183 20.7692308,4.61557202 C20.7692308,4.66559221 20.7639133,4.71629387 20.7538918,4.76556444 C20.7438704,4.81476686 20.7293495,4.86321966 20.7101247,4.90935544 C20.6908999,4.95624085 20.6669712,5.0008774 20.6393611,5.04237916 C20.6116828,5.08469869 20.5793006,5.12388345 20.543987,5.15925195 C20.508537,5.19462044 20.4685194,5.22699046 20.4269338,5.2546583 C20.3845983,5.28232614 20.339945,5.30617773 20.2939282,5.3253953 C20.2477068,5.34461286 20.199304,5.35919641 20.1500148,5.36921407 C20.100044,5.37923174 20.0500049,5.38461538 20.0000341,5.38461538" id="Fill-4" fill="#08D9D6"></path>
                </g>
            </g>
        </g>
    </g>
</svg>