<?xml version="1.0" encoding="UTF-8"?>
<svg width="26px" height="36px" viewBox="0 0 26 36" version="1.1" xmlns="http://www.w3.org/2000/svg" xmlns:xlink="http://www.w3.org/1999/xlink">
    <!-- Generator: Sketch 51.2 (57519) - http://www.bohemiancoding.com/sketch -->
    <title>Fill 1</title>
    <desc>Created with Sketch.</desc>
    <defs></defs>
    <g id="Page-1" stroke="none" stroke-width="1" fill="none" fill-rule="evenodd">
        <g id="Keto_cycle" transform="translate(-50.000000, -512.000000)" fill="#08D9D6">
            <g id="Group-3" transform="translate(50.000000, 512.000000)">
                <path d="M24.1461077,34.1335303 L21.7353586,34.1335303 L21.7353586,30.3898957 C21.7353586,29.8744992 21.3204795,29.4568054 20.8084124,29.4568054 C20.2964889,29.4568054 19.8814663,29.8744992 19.8814663,30.3898957 L19.8814663,34.1335303 L16.3789678,34.1335303 L18.9583961,24.8633301 L21.0646613,25.7468464 C21.0810268,25.7537839 21.1034216,25.7620221 21.1202178,25.7678034 C21.243533,25.8117407 24.1461077,26.8782329 24.1461077,30.593684 L24.1461077,34.1335303 Z M14.4538713,34.1335303 L11.6942793,34.1335303 L9.7601387,27.1826146 C10.6467454,27.5031837 11.7862992,27.7776475 13.0933837,27.7776475 C14.1056026,27.7776475 15.2175934,27.6115817 16.3890168,27.1769779 L14.4538713,34.1335303 Z M9.16796696,34.1329522 L6.11853373,34.1329522 L6.11853373,30.3898957 C6.11853373,29.8744992 5.70351107,29.4568054 5.19158757,29.4568054 C4.67908985,29.4568054 4.26406718,29.8744992 4.26406718,30.3898957 L4.26406718,34.1335303 L1.85389232,34.1335303 L1.85389232,30.593684 C1.85389232,26.8782329 4.75646696,25.8111626 4.87418352,25.7699713 C4.89499925,25.7626003 4.9150972,25.7547956 4.93533871,25.7468464 L7.17396322,24.8073968 L7.41499506,25.6740029 C7.41499506,25.6753037 7.41556929,25.6768936 7.41614351,25.6774717 L9.76860855,34.1329522 L9.16796696,34.1329522 Z M10.7061779,23.8020411 C11.1233539,23.7014477 11.4172147,23.3259569 11.4172147,22.8940991 L11.4172147,21.4787098 C11.7716564,21.543026 12.136147,21.5785805 12.5085333,21.5785805 L13.639043,21.5785805 C14.007984,21.5785805 14.3691728,21.5437486 14.7207434,21.4802997 L14.7207434,22.8940991 C14.7207434,23.3220546 15.0095797,23.6946548 15.421157,23.7990059 L17.2026967,24.2512426 L17.0456455,24.8163577 C13.2884774,26.949342 10.038926,25.382629 9.10695533,24.8339904 L8.93813255,24.2281176 L10.7061779,23.8020411 Z M8.22365043,15.398158 L8.22365043,11.6183907 C9.26946161,11.2627006 11.3012208,10.4423443 13.0177293,8.9795489 C13.8459084,9.7841514 15.4340771,11.0064477 17.9237824,11.6692655 L17.9237824,15.398158 C17.9237824,17.7767 16.001557,19.7121109 13.639043,19.7121109 L12.5085333,19.7121109 C10.1460193,19.7121109 8.22365043,17.7767 8.22365043,15.398158 Z M6.36918388,12.5957074 L6.36918388,14.5051027 C6.06642262,14.2966894 5.86673513,13.946636 5.86673513,13.5503328 C5.86673513,13.1540296 6.06642262,12.8033981 6.36918388,12.5957074 Z M19.7782489,14.5045246 L19.7782489,12.5957074 C20.0811538,12.8033981 20.2806977,13.1540296 20.2806977,13.5503328 C20.2806977,13.946636 20.0811538,14.2966894 19.7782489,14.5045246 Z M6.07029865,20.027766 C4.68913882,18.037578 3.9331688,15.5450012 3.9331688,12.9282726 C3.9331688,6.82907637 8.03358124,1.8670478 13.0737164,1.8670478 C18.1139951,1.8670478 22.2148383,6.82907637 22.2148383,12.9282726 C22.2148383,15.5393645 21.4588682,18.0381561 20.0788568,20.0283441 C19.5152529,19.813716 18.9029832,19.6252479 18.2546808,19.4671313 C18.9685887,18.646775 19.4704632,17.6362162 19.6746009,16.5211617 C21.0725569,16.2643306 22.1351642,15.0306164 22.1351642,13.5503328 C22.1351642,12.0836351 21.09165,10.8578701 19.7120693,10.5862969 C19.5999514,10.2995479 19.3504497,10.0794277 19.0359168,10.0143888 C15.4312059,9.27482516 13.8896932,7.19661798 13.8291122,7.11307923 C13.6699077,6.88732225 13.4192576,6.74438137 13.1449206,6.72299082 C12.869148,6.70203387 12.6015581,6.80421709 12.4097663,7.00251323 C10.337237,9.14388033 7.09543765,10.017424 7.06399872,10.0258068 C6.77128643,10.102119 6.5441796,10.3153018 6.43708624,10.5858633 C5.05750554,10.8568584 4.01284281,12.0824789 4.01284281,13.5503328 C4.01284281,15.0301828 5.07545013,16.2643306 6.47297544,16.5211617 C6.67711318,17.6362162 7.1789877,18.646775 7.89332627,19.4666977 C7.24459315,19.6246698 6.63332836,19.813716 6.07029865,20.027766 Z M21.7494272,24.0118997 L18.6062513,22.6930569 C18.563615,22.6749906 18.5205479,22.6608266 18.4761889,22.6495532 L16.57521,22.1668206 L16.57521,21.0264732 C17.8745424,21.2438474 19.0610392,21.5842172 20.011098,22.0156414 C20.1349875,22.0714303 20.2644758,22.0986021 20.3918106,22.0986021 C20.697443,22.0986021 20.9913038,21.9449659 21.165151,21.6796075 C21.1869717,21.6564826 21.2076438,21.6322014 21.2273111,21.6063304 C23.059957,19.2266322 24.0687306,16.1445147 24.0687306,12.9282726 C24.0687306,5.79987313 19.136263,0 13.0737164,0 C7.01131338,0 2.07870225,5.79987313 2.07870225,12.9282726 C2.07870225,16.2157683 3.12738456,19.348038 5.03123464,21.7479705 C5.03683336,21.754908 5.0430063,21.7611228 5.04917924,21.7677713 C5.05707486,21.7773103 5.06540116,21.7864157 5.07329678,21.7953766 C5.09454319,21.8190797 5.1170816,21.8411929 5.14005069,21.8620053 C5.14722853,21.8682201 5.15454992,21.8751576 5.16187132,21.8813724 C5.25948993,21.9636104 5.37045933,22.022868 5.48875012,22.0584225 C5.49492306,22.0601569 5.501096,22.0620358 5.50669472,22.0636256 C5.54157901,22.0731647 5.57689398,22.0811139 5.61220895,22.086317 C5.61838189,22.0873287 5.62455484,22.0883404 5.63072778,22.0894966 C5.67221569,22.0951333 5.7137036,22.0991802 5.75576574,22.0991802 C5.76136445,22.0991802 5.76696317,22.0974458 5.77198765,22.0974458 C5.8090253,22.0968677 5.84606296,22.0935435 5.88295705,22.0883404 C5.89759984,22.086317 5.91281686,22.0838599 5.9273161,22.0811139 C5.9665071,22.0738873 6.00584166,22.0642038 6.04445843,22.0517741 C6.058527,22.046571 6.07202133,22.0403562 6.0860899,22.0352976 C6.10288604,22.0290828 6.11968219,22.0234461 6.1359041,22.0156414 C7.083666,21.5853735 8.26571257,21.2460154 9.56274812,21.0282076 L9.56274812,22.1580042 L7.5344343,22.6468071 C7.48619922,22.658225 7.4391126,22.6738343 7.39317443,22.6930569 L4.24999862,24.0118997 C2.76059698,24.5319212 0,26.5547731 0,30.593684 L0,35.0657534 C0,35.5812945 0.415022665,36 0.926946161,36 L10.9876928,36 L10.9905639,36 L10.9938657,36 L15.1537107,36 L15.1570125,36 L15.1593094,36 L25.0730538,36 C25.5851209,36 26,35.5732008 26,35.0579488 L26,30.593684 C26,26.5547731 23.239403,24.5319212 21.7494272,24.0118997 Z" id="Fill-1"></path>
            </g>
        </g>
    </g>
</svg>