<?xml version="1.0" encoding="UTF-8"?>
<svg width="40px" height="26px" viewBox="0 0 40 26" version="1.1" xmlns="http://www.w3.org/2000/svg" xmlns:xlink="http://www.w3.org/1999/xlink">
    <!-- Generator: Sketch 51.2 (57519) - http://www.bohemiancoding.com/sketch -->
    <title>Group 10</title>
    <desc>Created with Sketch.</desc>
    <defs>
        <polygon id="path-1" points="3.11890838e-05 0.0473510836 39.9221053 0.0473510836 39.9221053 25.28 3.11890838e-05 25.28"></polygon>
    </defs>
    <g id="Page-1" stroke="none" stroke-width="1" fill="none" fill-rule="evenodd">
        <g id="Keto_cycle4" transform="translate(-49.000000, -453.000000)">
            <g id="Group-4" transform="translate(25.000000, 178.000000)">
                <g id="Group-10">
                    <g transform="translate(24.000000, 275.000000)">
                        <g id="Group-3">
                            <mask id="mask-2" fill="white">
                                <use xlink:href="#path-1"></use>
                            </mask>
                            <g id="Clip-2"></g>
                            <path d="M36.7107524,17.3009902 C36.7107524,16.2634928 37.4112593,15.3871455 38.3626823,15.1237013 L38.3626823,19.4784357 C37.4113372,19.2148349 36.7107524,18.3384877 36.7107524,17.3009902 M20.8780039,12.8459185 C20.8780039,14.1271371 19.8395634,15.1695653 18.5630721,15.1695653 C17.2866589,15.1695653 16.2481404,14.1272154 16.2481404,12.8459185 C16.2481404,11.5646217 17.2866589,10.5222717 18.5630721,10.5222717 C19.8395634,10.5222717 20.8780039,11.5646217 20.8780039,12.8459185 M39.9216686,9.73053028 C39.9214347,9.71065065 39.9203431,9.69084929 39.9187057,9.67112619 C39.9182378,9.66627368 39.9181598,9.66142118 39.917614,9.65656867 C39.9151969,9.63348012 39.9116881,9.61054811 39.9070877,9.5878509 C39.9054503,9.57892854 39.9029552,9.57024099 39.9010058,9.5613969 C39.897809,9.54770031 39.8943782,9.53408198 39.8904795,9.52062019 C39.8874386,9.51013251 39.8840858,9.49980136 39.880577,9.48947022 C39.8766784,9.47765201 39.8724678,9.46599034 39.8677895,9.45440693 C39.8638129,9.44431059 39.8600702,9.43429251 39.8557817,9.42443096 C39.8500897,9.4113605 39.8436959,9.39868136 39.8373021,9.38592396 C39.8334035,9.37825387 39.8298947,9.37042724 39.8257622,9.36291368 C39.8150799,9.34319059 39.803306,9.32401536 39.7909864,9.30523146 C39.7873996,9.29998762 39.783423,9.29497858 39.7797583,9.28973474 C39.7699337,9.27572508 39.7597973,9.26187195 39.749037,9.24841015 C39.7441248,9.24246192 39.7392125,9.23674848 39.7342222,9.23095678 C39.7239298,9.21882551 39.7131696,9.20692904 39.7020195,9.1954239 C39.6965614,9.18971046 39.6909474,9.18399703 39.6851774,9.17851839 C39.6739493,9.16756111 39.6623314,9.15699517 39.6503236,9.14666402 C39.6442417,9.14142019 39.6383938,9.13609808 39.6321559,9.13101077 C39.6196023,9.12091443 39.6065809,9.11136594 39.5933255,9.10189573 C39.5871657,9.09751282 39.5811618,9.09281684 39.574846,9.08859046 C39.5741442,9.0880426 39.5733645,9.08741647 39.5725068,9.08686861 L26.1509084,0.177194799 C25.9465419,0.0414811146 25.6904795,0.0100963467 25.4593684,0.0926672446 L0.518393762,9.00218452 C0.513013645,9.00414118 0.507945419,9.00672396 0.502565302,9.00868062 C0.487516569,9.01447232 0.472467836,9.02065536 0.457808967,9.02730799 C0.447906433,9.03176916 0.438315789,9.03654341 0.428803119,9.04131765 C0.41617154,9.04765721 0.403851852,9.05430985 0.391610136,9.06135381 C0.380460039,9.06769337 0.369777778,9.07426774 0.359095517,9.08115517 C0.349192982,9.087573 0.339446394,9.09414737 0.329777778,9.10095653 C0.318159844,9.10925276 0.306697856,9.11770551 0.295625731,9.12662786 C0.287438596,9.13312396 0.27948538,9.13985486 0.271532164,9.14666402 C0.260148148,9.15644731 0.249231969,9.16630885 0.23862768,9.17664 C0.231064327,9.1838405 0.223968811,9.19127579 0.216795322,9.19878935 C0.206814815,9.20919876 0.197146199,9.21976471 0.187945419,9.23064372 C0.180538012,9.23933127 0.173520468,9.24817536 0.166424951,9.25717598 C0.158549708,9.26742885 0.150674464,9.27776 0.143189084,9.28840421 C0.135703704,9.29897015 0.128530214,9.30984916 0.121746589,9.32080644 C0.115586745,9.33051146 0.109582846,9.34021647 0.103890838,9.35023455 C0.0967953216,9.36260062 0.0900896686,9.37527975 0.0836959064,9.38803715 C0.0790175439,9.3974291 0.0744951267,9.40674279 0.070128655,9.416213 C0.0640467836,9.4296748 0.0585107212,9.44337139 0.0530526316,9.45722452 C0.0492319688,9.4670078 0.0456452242,9.47686935 0.042214425,9.48688743 C0.0376140351,9.50027096 0.0335594542,9.51388929 0.029582846,9.52758588 C0.0263859649,9.53901276 0.0234230019,9.55059616 0.0208499025,9.56217957 C0.018042885,9.57446737 0.0154697856,9.58675517 0.013208577,9.5991995 C0.0106354776,9.61320916 0.00837426901,9.62729709 0.00673684211,9.64146328 C0.00533333333,9.65195096 0.0042417154,9.66243864 0.00338401559,9.67308285 C0.0018245614,9.6894405 0.00127875244,9.70587641 0.000888888889,9.72239059 C0.00065497076,9.72841709 3.11890838e-05,9.73389573 3.11890838e-05,9.7395309 L3.11890838e-05,24.4973375 C3.11890838e-05,24.929602 0.349192982,25.28 0.779758285,25.28 L21.5227602,25.28 C21.7498947,25.28 21.9658012,25.1806019 22.1138713,25.0077117 C22.2618635,24.8348998 22.3275945,24.6058145 22.2937544,24.3803294 C22.2612398,24.1645493 22.2447875,23.9435254 22.2447875,23.723519 C22.2447875,21.3191797 24.1935595,19.3630712 26.5888811,19.3630712 C26.8306745,19.3630712 27.0734815,19.3831856 27.3102066,19.4228666 C27.7350799,19.4936193 28.1368733,19.2060691 28.2076725,18.7797528 C28.2786277,18.3534365 27.9917661,17.9500523 27.5669708,17.8789082 C27.2456452,17.8249828 26.9166004,17.7977461 26.5888811,17.7977461 C23.3366394,17.7977461 20.6901676,20.4512069 20.6853333,23.7145967 L1.55948538,23.7145967 L1.55948538,10.5221934 L7.12977778,10.5221934 C7.56034308,10.5221934 7.90950487,10.1717954 7.90950487,9.7395309 C7.90950487,9.30726638 7.56034308,8.95686836 7.12977778,8.95686836 L5.29624951,8.95686836 L25.6153918,1.69837771 L36.5498168,8.95686836 L13.0943002,8.95686836 C12.6637349,8.95686836 12.3145731,9.30726638 12.3145731,9.7395309 C12.3145731,10.1717954 12.6637349,10.5221934 13.0943002,10.5221934 L15.4581988,10.5221934 C14.9750799,11.1709424 14.6886082,11.9754412 14.6886082,12.8458402 C14.6886082,14.9901791 16.4266979,16.7348121 18.5629942,16.7348121 C20.6992904,16.7348121 22.4373801,14.9902573 22.4373801,12.8458402 C22.4373801,11.9754412 22.1509864,11.1709424 21.6678674,10.5221934 L38.3626043,10.5221934 L38.3626043,13.5248 C36.5452943,13.8136807 35.1512203,15.3967723 35.1512203,17.300912 C35.1512203,19.2051299 36.5452943,20.7882214 38.3626043,21.0771022 L38.3626043,23.7145967 L32.4921949,23.7145967 C32.4912593,23.0674913 32.3868538,22.4311866 32.1817856,21.8231361 C32.0437739,21.4138036 31.6013567,21.1941885 31.1931696,21.3327198 C30.7853723,21.4713293 30.5665029,21.9155685 30.7046706,22.3250576 C30.8558596,22.7738363 30.9326628,23.244373 30.9326628,23.723519 C30.9326628,23.9430559 30.9162105,24.164158 30.8836959,24.3805642 C30.8498558,24.605971 30.9155867,24.8349781 31.0636569,25.00779 C31.2118051,25.1806019 31.4276335,25.28 31.6546901,25.28 L39.1422534,25.28 C39.5728187,25.28 39.9219805,24.929602 39.9219805,24.4973375 L39.9216686,9.73053028 L39.9221365,9.73960916 C39.9221365,9.73647851 39.9216686,9.73358266 39.9216686,9.73053028" id="Fill-1" fill="#08D9D6" mask="url(#mask-2)"></path>
                        </g>
                        <path d="M30.0601555,18.7089179 C30.0599162,18.7087583 30.053215,18.704052 30.0529757,18.7038924 C29.6923898,18.4515026 29.1973818,18.5399667 28.9444132,18.900045 C28.6914446,19.2601233 28.7797563,19.7582821 29.1393849,20.0117888 C29.1401029,20.0122674 29.1444108,20.0152986 29.145049,20.0157772 C29.284098,20.1131755 29.4435695,20.16 29.6015253,20.16 C29.8527388,20.16 30.1002827,20.0413832 30.2555261,19.819864 C30.5083352,19.4593071 30.4207415,18.9618661 30.0601555,18.7089179" id="Fill-4" fill="#08D9D6"></path>
                        <path d="M10.7199612,16.5922319 C11.7168045,16.5922319 12.5277681,17.4031955 12.5277681,18.3999612 C12.5277681,19.3968045 11.7168045,20.2077681 10.7199612,20.2077681 C9.72319547,20.2077681 8.91223191,19.3968045 8.91223191,18.3999612 C8.91223191,17.4031179 9.72319547,16.5922319 10.7199612,16.5922319 M7.36,18.3999612 C7.36,20.2527052 8.8672948,21.76 10.7199612,21.76 C12.5727052,21.76 14.08,20.2527052 14.08,18.3999612 C14.08,16.5472948 12.5727052,15.04 10.7199612,15.04 C8.8672948,15.04 7.36,16.5472172 7.36,18.3999612" id="Fill-6" fill="#08D9D6"></path>
                        <path d="M9.45859738,10.56 C9.89008791,10.56 10.24,10.20184 10.24,9.76 C10.24,9.31816 9.89016605,8.96 9.45859738,8.96 L9.42140262,8.96 C8.98991209,8.96 8.64,9.31816 8.64,9.76 C8.64,10.20184 8.98991209,10.56 9.42140262,10.56 L9.45859738,10.56 Z" id="Fill-8" fill="#08D9D6"></path>
                    </g>
                </g>
            </g>
        </g>
    </g>
</svg>