<?xml version="1.0" encoding="UTF-8"?>
<svg width="40px" height="27px" viewBox="0 0 40 27" version="1.1" xmlns="http://www.w3.org/2000/svg" xmlns:xlink="http://www.w3.org/1999/xlink">
    <!-- Generator: Sketch 51.2 (57519) - http://www.bohemiancoding.com/sketch -->
    <title>Group 6</title>
    <desc>Created with Sketch.</desc>
    <defs>
        <polygon id="path-1" points="0 0.04375 40 0.04375 40 26.7968281 0 26.7968281"></polygon>
    </defs>
    <g id="Page-1" stroke="none" stroke-width="1" fill="none" fill-rule="evenodd">
        <g id="Keto_cycle2" transform="translate(-48.000000, -349.000000)">
            <g id="Group-4" transform="translate(25.000000, 205.000000)">
                <g id="Group-6" transform="translate(23.000000, 144.000000)">
                    <path d="M13.28125,11.0156094 C13.7125,11.0156094 14.0625,10.6656094 14.0625,10.2343594 C14.0625,9.80310938 13.7125,9.45310938 13.28125,9.45310938 C12.85,9.45310938 12.5,9.80310938 12.5,10.2343594 C12.5,10.6656094 12.85,11.0156094 13.28125,11.0156094" id="Fill-1" fill="#08D9D6"></path>
                    <g id="Group-5" transform="translate(0.000000, 0.034375)">
                        <mask id="mask-2" fill="white">
                            <use xlink:href="#path-1"></use>
                        </mask>
                        <g id="Clip-4"></g>
                        <path d="M1.5625,16.5731562 C3.76882812,19.7955 7.878125,22.1081562 12.6378906,22.1081562 C16.7175781,22.1081562 17.0875,20.8572187 24.5803125,19.7065156 C28.4691406,19.1094062 32.720625,18.7937812 36.875,18.7937812 C37.3978125,18.7937812 37.920625,18.7991719 38.4375,18.8094062 L38.4375,21.1469062 C38.4375,21.5805 38.0882031,21.92425 37.6488281,21.92425 C37.6463281,21.92425 37.6438281,21.92425 37.64125,21.9241719 C30.2669531,21.85925 23.0098438,22.7593281 18.2267969,24.3337031 C16.4104687,24.9312812 14.5235938,25.2343281 12.6186719,25.2343281 C9.20671875,25.2343281 5.94335938,24.2626094 3.18109375,22.4237031 C2.16757812,21.7495625 1.5625,20.563625 1.5625,19.2515156 L1.5625,16.5731562 Z M9.7584375,2.98104687 L1.65414063,12.8215937 C1.594375,12.4705 1.5625,12.1169844 1.5625,11.7624531 C1.5625,7.49745312 5.68945312,4.45089062 9.7584375,2.98104687 Z M12.4189062,2.20846875 C14.1959375,1.80917187 16.0614062,1.60620312 17.96875,1.60620312 C18.1827344,1.60620312 18.3992187,1.60979687 18.6165625,1.61503125 L14.4089062,7.1383125 C14.1474219,7.48151562 14.21375,7.97175 14.5570312,8.2333125 C14.9017187,8.49589062 15.3916406,8.42690625 15.6519531,8.0851875 L20.4995313,1.72167187 C22.6992969,1.91635938 24.8976562,2.35284375 26.9378906,2.99839062 L24.4271875,6.29370312 L20.3125,6.29370312 C18.589375,6.29370312 17.1875,7.69565625 17.1875,9.41870312 C17.1875,10.9355781 18.2741406,12.203 19.7096875,12.4847969 L13.5960937,20.5097187 C11.3346875,20.6769844 9.07445312,20.2497187 7.11382812,19.2905 L11.8714062,13.0468281 C12.1329687,12.7037031 12.0667187,12.2134687 11.7234375,11.9519844 C11.3800781,11.6903437 10.89,11.7566719 10.6285156,12.0999531 L5.74867187,18.5040156 C5.40617187,18.2740156 5.07585938,18.0260469 4.76171875,17.7619062 C3.61,16.7946406 2.75695312,15.7305 2.21890625,14.5933906 L12.4189062,2.20846875 Z M28.488125,3.54175 C30.4854687,4.31448437 32.1505469,5.25979687 33.3485937,6.29370312 L26.3914062,6.29370312 L28.488125,3.54175 Z M34.375,11.5324531 C33.35375,11.1704219 32.2864844,10.981125 31.2398437,10.981125 L20.3125,10.981125 C19.4509375,10.981125 18.75,10.2802656 18.75,9.418625 C18.75,8.55714062 19.4509375,7.856125 20.3125,7.856125 L34.375,7.856125 L34.375,11.5324531 Z M23.9711719,18.2208125 C21.1958594,18.6621406 18.77125,19.2201875 16.7616406,19.8812812 C16.4564062,19.9815937 16.1475,20.0696406 15.8364062,20.1476094 L21.6292187,12.5437031 L28.2961719,12.5437031 L23.9711719,18.2208125 Z M38.2210156,17.2422187 C37.7746875,17.2349531 37.3246094,17.2312031 36.875,17.2312031 C33.2857031,17.2312031 29.6246094,17.4634687 26.1757031,17.9053437 L30.2603906,12.543625 L31.2398437,12.543625 C34.1867969,12.5437031 37.4217187,14.3966719 38.2210156,17.2422187 Z M0,19.2515156 C0,21.0878437 0.865703125,22.7600312 2.31554687,23.7244844 C5.33492188,25.7345625 8.89773438,26.7968281 12.61875,26.7968281 C14.6899219,26.7968281 16.7410938,26.4674531 18.7153906,25.8179219 C23.3452344,24.2938594 30.4170313,23.422375 37.6274219,23.4866719 C37.6346875,23.4866719 37.6420313,23.48675 37.6492188,23.48675 C38.9507031,23.48675 40,22.4451875 40,21.1469062 L40,18.0453437 C40,17.9144062 39.9674219,17.7912812 39.9104687,17.6827656 C39.8802344,17.4897187 39.8425781,17.2938594 39.7965625,17.0970625 C39.3341406,15.1196406 37.9425,13.3808125 35.9375,12.2450312 L35.9375,7.12526562 C35.9492188,6.9433125 35.8978125,6.75940625 35.7848438,6.60784375 C32.3892187,2.0564375 23.6619531,0.043703125 17.96875,0.043703125 C15.8494531,0.043703125 13.7757813,0.28003125 11.8054688,0.745890625 C5.98648438,2.12096875 0,5.97003125 0,11.7624531 L0,19.2515156 Z" id="Fill-3" fill="#08D9D6" mask="url(#mask-2)"></path>
                    </g>
                </g>
            </g>
        </g>
    </g>
</svg>