<?xml version="1.0" encoding="UTF-8"?>
<svg width="44px" height="39px" viewBox="0 0 44 39" version="1.1" xmlns="http://www.w3.org/2000/svg" xmlns:xlink="http://www.w3.org/1999/xlink">
    <!-- Generator: Sketch 51.2 (57519) - http://www.bohemiancoding.com/sketch -->
    <title>Group 11</title>
    <desc>Created with Sketch.</desc>
    <defs>
        <polygon id="path-1" points="0 39 44 39 44 0 0 0"></polygon>
    </defs>
    <g id="Page-1" stroke="none" stroke-width="1" fill="none" fill-rule="evenodd">
        <g id="Keto_cycle2" transform="translate(-107.000000, -342.000000)">
            <g id="Group-11" transform="translate(107.000000, 342.000000)">
                <path d="M16.536524,12.9639602 L14.4640419,12.9639602 L14.4640419,14.3099457 L16.536524,14.3099457 L16.536524,21.2231737 L12.5783658,21.2231737 C12.2224785,21.2231737 11.8729291,21.249054 11.5305769,21.2983547 L11.1244164,19.7823297 L11.6703322,19.7823297 L11.6703322,18.436772 L10.76391,18.436772 L9.09554742,12.2086213 C10.2569882,11.8200971 11.4793369,11.6149803 12.7126426,11.6149803 L16.536524,11.6149803 L16.536524,12.9639602 Z M7.33523208,23.4669464 L5.41378455,21.5536278 L6.31139821,20.6604393 L5.35545471,19.7088598 L4.45794847,20.6019414 L2.24023258,18.3942086 C2.77239846,17.1806186 3.53519819,16.0531178 4.5091885,15.0643221 C5.47383315,14.0847236 6.60422909,13.2927032 7.83205629,12.7153175 L8.21060949,14.1277147 L7.07462763,15.2586377 L8.03057114,16.2102172 L8.61301025,15.6299441 L10.2159532,21.6150132 C9.10306692,21.9960513 8.11575635,22.6381375 7.33523208,23.4669464 Z M4.65055513,30.4253044 C4.14739305,29.9361468 3.6984788,29.4064577 3.30445691,28.8437233 L5.54559068,28.8437233 C5.67771906,30.0067292 6.10364512,31.1049276 6.79608381,32.0553307 C6.02436809,31.6062767 5.30389241,31.0610809 4.65055513,30.4253044 Z M1.35368333,22.8415433 C1.33305841,21.8030191 1.46529422,20.7807502 1.73921893,19.798692 L4.53346575,22.5808161 L3.29221087,23.8165433 L4.24815437,24.7681227 L5.48940926,23.5325025 L6.50400488,24.5425798 C5.95894843,25.4178019 5.61315877,26.4219974 5.52550286,27.4981655 L2.50126671,27.4981655 C1.78293946,26.0678019 1.38676914,24.4853653 1.35368333,22.8415433 Z M16.5491997,30.7845262 L20.6206876,30.7845262 C20.3055131,32.3573379 18.9082823,33.546331 17.2369119,33.546331 L14.8631126,33.546331 L16.2093183,32.7425469 L15.5139792,31.5883103 L13.3798372,32.8632856 C13.9093176,31.6417818 15.1304846,30.7845262 16.5491997,30.7845262 Z M20.6206876,37.6540145 L16.5491997,37.6540145 C15.1304846,37.6540145 13.9093176,36.7967588 13.3802669,35.575255 L15.5139792,36.8498026 L16.2093183,35.6959937 L14.8631126,34.8918888 L17.2369119,34.8918888 C18.9082823,34.8922096 20.3055131,36.0812027 20.6206876,37.6540145 Z M24.016602,20.4101925 L24.016602,11.6149803 L44,11.6149803 L44,10.2689947 L37.7103665,10.2689947 C37.7464601,10.2339174 37.7834131,10.1996956 37.8186474,10.163335 C38.7304406,9.22758309 39.2113665,7.99313919 39.1718354,6.68768509 C39.0950291,4.1323873 36.8644226,2.05362784 34.1989741,2.05362784 L27.8393018,2.05362784 C27.6429354,2.05362784 27.483522,1.89492432 27.483522,1.69975321 C27.483522,1.50468904 27.6429354,1.34555775 27.8393018,1.34555775 L29.5584748,1.34555775 L29.5584748,0 L27.8393018,0 C26.8977528,0 26.1319453,0.76239717 26.1319453,1.69975321 C26.1319453,2.63678842 26.8977528,3.39961336 27.8393018,3.39961336 L34.1989741,3.39961336 C36.1406168,3.39961336 37.7653663,4.89264561 37.8206884,6.72821652 C37.8488328,7.66685587 37.5039025,8.55373478 36.8484168,9.22629977 C36.1930385,9.89886476 35.3134717,10.2694225 34.3719226,10.2694225 L12.7122129,10.2694225 C9.29653296,10.2694225 5.95475899,11.6734781 3.54400675,14.1219398 C1.19502185,16.5076259 -0.0629907836,19.6140013 0.00242888097,22.868279 C0.0670965954,26.1024515 1.38215002,29.1281918 3.7059983,31.3882198 C5.8817124,33.5040885 8.71742391,34.7297631 11.7470311,34.8768098 L11.7470311,34.8918888 L11.7958005,34.8918888 C12.1251546,37.2103077 14.1304983,39 16.5491997,39 L22.0389731,39 L22.0389731,38.3270072 C22.0389731,36.5824449 21.0948459,35.0539075 19.6895585,34.2192168 C21.0952756,33.3842053 22.0389731,31.855668 22.0389731,30.1115334 L22.0389731,29.4385406 L16.5491997,29.4385406 C14.1405959,29.4385406 12.141053,31.213154 11.7991305,33.5178842 C10.4773096,33.3854886 9.26634753,32.7909921 8.34273788,31.8101102 C7.28947054,30.6918065 6.76460932,29.2288253 6.86483354,27.69077 C7.05163944,24.8187068 9.56132684,22.5688384 12.5783658,22.5688384 L28.8707626,22.5688384 C31.1391814,22.5688384 32.984682,20.7314495 32.984682,18.4727048 L31.6331053,18.4727048 C31.6331053,19.9891576 30.3938914,21.222746 28.8707626,21.222746 L17.8885304,21.222746 L17.8885304,15.8346331 L19.2401071,15.8346331 L19.2401071,14.4890754 L17.8885304,14.4890754 L17.8885304,11.6145525 L22.6645956,11.6145525 L22.6645956,16.5523281 L20.5921135,16.5523281 L20.5921135,17.8983136 L22.6645956,17.8983136 L22.6645956,20.4101925 L24.016602,20.4101925 Z" id="Fill-1" fill="#08D9D6"></path>
                <polygon id="Fill-3" fill="#08D9D6" points="28 15 29 15 29 14 28 14"></polygon>
                <g id="Group-10">
                    <path d="M37.5349834,17.8766755 L39.0281932,17.8766755 L39.0281932,16.5396237 L30.8356078,16.5396237 L30.8356078,17.8766755 L34.3154712,17.8766755 C36.4492566,18.0813458 38.0430224,19.8351768 38.0430224,21.9617926 C38.0430224,24.2319752 36.2014615,26.0787899 33.9218322,26.0787899 L31.8610224,26.0787899 C30.3518224,26.0787899 29.1072663,27.283433 29.1072663,28.7644766 C29.1072663,30.2456264 30.3854127,31.4506946 31.8258224,31.4506946 L31.8258224,30.1136428 C31.1056176,30.1136428 30.4575298,29.520779 30.4575298,28.7644766 C30.4575298,28.0085992 31.0838322,27.4158417 31.8610224,27.4158417 L33.9218322,27.4158417 C36.9460273,27.4158417 39.3937151,24.9691496 39.3937151,21.9617926 C39.3937151,20.3358008 38.6773737,18.8750542 37.5349834,17.8766755" id="Fill-4" fill="#08D9D6"></path>
                    <mask id="mask-2" fill="white">
                        <use xlink:href="#path-1"></use>
                    </mask>
                    <g id="Clip-7"></g>
                    <polygon id="Fill-6" fill="#08D9D6" mask="url(#mask-2)" points="34.2567902 13.6866621 43.3497659 13.6866621 43.3497659 12.3491853 34.2567902 12.3491853"></polygon>
                    <polygon id="Fill-8" fill="#08D9D6" mask="url(#mask-2)" points="32.9962439 15.82603 41.1892585 15.82603 41.1892585 14.4889782 32.9962439 14.4889782"></polygon>
                    <polygon id="Fill-9" fill="#08D9D6" mask="url(#mask-2)" points="12.2890927 19.7487711 15.0801951 19.7487711 15.0801951 18.4112943 12.2890927 18.4112943"></polygon>
                </g>
            </g>
        </g>
    </g>
</svg>