<?xml version="1.0" encoding="UTF-8"?>
<svg width="50px" height="40px" viewBox="0 0 50 40" version="1.1" xmlns="http://www.w3.org/2000/svg" xmlns:xlink="http://www.w3.org/1999/xlink">
    <!-- Generator: Sketch 51.2 (57519) - http://www.bohemiancoding.com/sketch -->
    <title>Fill 1</title>
    <desc>Created with Sketch.</desc>
    <defs></defs>
    <g id="Page-1" stroke="none" stroke-width="1" fill="none" fill-rule="evenodd">
        <g id="Keto_cycle4" transform="translate(-45.000000, -510.000000)" fill="#08D9D6">
            <path d="M85.8781154,547.955136 L84.8573601,547.955136 L84.8573601,544.888798 C84.8573601,544.324706 84.3992599,543.868163 83.8364851,543.868163 C83.2704768,543.868163 82.8123765,544.324706 82.8123765,544.888798 L82.8123765,547.955136 L77.7046481,547.955136 L77.7046481,529.559505 L79.7462783,529.559505 L79.7462783,531.604489 C79.7462783,532.167263 80.2042588,532.625723 80.770387,532.625723 C81.3331617,532.625723 81.7916213,532.167263 81.7916213,531.604489 L81.7916213,529.559505 L85.8781154,529.559505 L85.8781154,547.955136 Z M75.6597842,533.381678 C74.1477538,532.529791 72.5486544,531.58341 70.8653604,530.537744 L70.6473885,528.847504 L71.9919877,526.707666 L75.6597842,529.01218 L75.6597842,533.381678 Z M75.6597842,547.955136 L53.1763417,547.955136 L53.1763417,529.559505 L55.2197684,529.559505 L55.2197684,531.604489 C55.2197684,532.167263 55.6776291,532.625723 56.2419608,532.625723 C56.8066517,532.625723 57.2636741,532.167263 57.2636741,531.604489 L57.2636741,529.559505 L61.3514857,529.559505 L61.3514857,534.670587 C61.3514857,535.233362 61.809586,535.691462 62.3737979,535.691462 C62.9384888,535.691462 63.395631,535.233362 63.395631,534.670587 L63.395631,529.559505 L68.6778567,529.559505 L68.961819,531.760183 C71.4380756,533.317125 73.6625867,534.625675 75.6597842,535.721403 L75.6597842,547.955136 Z M50.2284513,516.78731 C49.3348863,516.225373 48.6512689,514.995509 49.6680719,513.379642 C50.2171934,512.505719 50.9367402,512.043906 51.7479071,512.043906 C52.1755871,512.043906 52.60183,512.169779 52.9817239,512.407871 C57.245949,515.089045 66.6040097,522.697821 70.2267746,525.676132 L69.6519037,526.590656 C65.3988167,524.612741 54.4941136,519.468843 50.2284513,516.78731 Z M87.9234583,536.718325 L90.7903877,538.520905 C90.5072637,538.669174 90.0431752,538.754327 89.4804005,538.754327 C89.091165,538.754327 88.578931,538.715523 87.9234583,538.595758 L87.9234583,536.718325 Z M93.0340611,547.955136 L87.9234583,547.955136 L87.9234583,540.670563 C88.5026408,540.757512 89.0191863,540.797753 89.4804005,540.797753 C93.5898895,540.797753 93.1987377,537.619795 93.1987377,537.619795 L87.9234583,534.305185 L87.9234583,528.537792 C87.9234583,527.973101 87.4649987,527.516078 86.902224,527.516078 L77.1207948,527.516078 L71.3239398,523.931518 C67.5424866,520.825658 58.3753309,513.384792 54.0689486,510.677869 C53.3803011,510.244679 52.5735655,510 51.7479071,510 C50.3758818,510 48.9522378,510.67739 47.9369917,512.291939 C46.3103465,514.878499 47.3069092,517.364576 49.1407476,518.517312 C52.9535792,520.915003 61.7572488,525.144616 66.8028193,527.516078 L52.1535504,527.516078 C51.5894583,527.516078 51.1318371,527.973101 51.1318371,528.537792 L51.1318371,547.955136 L46.0215936,547.955136 C45.4575015,547.955136 45,548.413117 45,548.977808 C45,549.542019 45.4575015,550 46.0215936,550 L93.0340611,550 C93.5973149,550 94.0552954,549.542019 94.0552954,548.977808 C94.0552954,548.413117 93.5973149,547.955136 93.0340611,547.955136 Z" id="Fill-1"></path>
        </g>
    </g>
</svg>