<?xml version="1.0" encoding="utf-8"?>
<!-- Generator: Adobe Illustrator 21.0.0, SVG Export Plug-In . SVG Version: 6.00 Build 0)  -->
<svg version="1.1" id="Layer_1" xmlns="http://www.w3.org/2000/svg" xmlns:xlink="http://www.w3.org/1999/xlink" x="0px" y="0px"
	 viewBox="0 0 19 40" style="enable-background:new 0 0 19 40;" xml:space="preserve">
<style type="text/css">
	.st0{fill:#08D9D6;}
</style>
<title>Group 7</title>
<desc>Created with Sketch.</desc>
<g id="Page-1">
	<g id="Keto_cycle4" transform="translate(-60.000000, -543.000000)">
		<g id="Group-4" transform="translate(25.000000, 146.000000)">
			<g id="Group-7" transform="translate(35.000000, 397.000000)">
				<path id="Fill-1" class="st0" d="M17.4,22.9v15.5H1.6V22.9c0-0.7,0.1-1.4,0.2-2.1h11.1c0.4,0,0.8-0.3,0.8-0.8
					c0-0.4-0.3-0.8-0.8-0.8H2.1C2.4,18,3,16.7,3.7,15.6c1.6-2.4,2.4-5.2,2.4-8.2V1.6h6.7v5.9c0,0,0,0.1,0,0.1h-2.2
					c-0.4,0-0.8,0.3-0.8,0.8c0,0.4,0.3,0.8,0.8,0.8h2.3c0.3,2.3,1,4.5,2.3,6.5C16.7,17.8,17.4,20.3,17.4,22.9 M16.6,14.8
					c-1.4-2.2-2.2-4.7-2.2-7.3V0.8c0-0.4-0.3-0.8-0.8-0.8H5.4C4.9,0,4.6,0.3,4.6,0.8v6.7c0,2.6-0.7,5.1-2.2,7.3
					C0.8,17.2,0,20,0,22.9v16.3C0,39.7,0.3,40,0.8,40h17.4c0.4,0,0.8-0.3,0.8-0.8V22.9C19,20,18.2,17.2,16.6,14.8"/>
				<path id="Fill-3" class="st0" d="M8.3,7.5L8.3,7.5c-0.4,0-0.8,0.3-0.8,0.8C7.5,8.7,7.8,9,8.2,9h0C8.7,9,9,8.7,9,8.3
					C9,7.8,8.7,7.5,8.3,7.5"/>
				<path id="Fill-5" class="st0" d="M14.5,19.8c0,0.4,0.3,0.8,0.7,0.8h0c0.4,0,0.7-0.3,0.7-0.8c0-0.4-0.3-0.8-0.7-0.8h0
					C14.8,19,14.5,19.3,14.5,19.8"/>
			</g>
		</g>
	</g>
</g>
</svg>
