<?xml version="1.0" encoding="UTF-8"?>
<svg width="12px" height="12px" viewBox="0 0 12 12" version="1.1" xmlns="http://www.w3.org/2000/svg" xmlns:xlink="http://www.w3.org/1999/xlink">
    <!-- Generator: Sketch 52.2 (67145) - http://www.bohemiancoding.com/sketch -->
    <title>Shape 2</title>
    <desc>Created with Sketch.</desc>
    <g id="Page-1" stroke="none" stroke-width="1" fill="none" fill-rule="evenodd">
        <g id="5" transform="translate(-39.000000, -618.000000)" fill="#FB5F5C" stroke="#FB5F5C" stroke-width="0.6">
            <g id="Shape-2" transform="translate(40.000000, 619.000000)">
                <path d="M5.653125,5.125 L9.621875,1.078125 C9.7926211,0.891862958 9.78500433,0.603783886 9.60465419,0.426804775 C9.42430405,0.249825665 9.13613255,0.247645224 8.953125,0.421875 L4.990625,4.4625 L0.865625,0.415625 C0.747530194,0.291580524 0.571183808,0.24181847 0.405665775,0.285832062 C0.240147743,0.329845654 0.111810514,0.460627402 0.0709274591,0.626946346 C0.0300444046,0.79326529 0.0831245958,0.968641467 0.209375,1.084375 L4.328125,5.125 L0.209375,9.165625 C0.0351452239,9.34863255 0.0373256646,9.63680405 0.214304775,9.81715419 C0.391283886,9.99750433 0.679362958,10.0051211 0.865625,9.834375 L4.990625,5.7875 L8.953125,9.828125 C9.13613255,10.0023548 9.42430405,10.0001743 9.60465419,9.82319522 C9.78500433,9.64621611 9.7926211,9.35813704 9.621875,9.171875 L5.653125,5.125 Z" id="Shape"></path>
            </g>
        </g>
    </g>
</svg>