<svg width="903" height="734" viewBox="0 0 903 734" fill="none" xmlns="http://www.w3.org/2000/svg">
<path d="M757.315 16.7985C757.315 19.744 754.927 22.1319 751.982 22.1319C749.036 22.1319 746.648 19.744 746.648 16.7985C746.648 13.853 749.036 11.4652 751.982 11.4652C754.927 11.4652 757.315 13.853 757.315 16.7985ZM9.36407 733.571C9.04846 734.025 8.42517 734.136 7.97198 733.821L0.586487 728.677C0.13324 728.362 0.0217285 727.738 0.337341 727.285C0.652954 726.832 1.27625 726.72 1.72943 727.036L8.29437 731.608L12.8662 725.043C13.1818 724.59 13.8051 724.478 14.2583 724.794C14.7115 725.109 14.8231 725.733 14.5074 726.186L9.36407 733.571ZM751.982 16.7985C751.854 17.7903 751.854 17.7903 751.854 17.7903C751.854 17.7903 751.854 17.7903 751.854 17.7903C751.854 17.7903 751.854 17.7903 751.854 17.7903C751.854 17.7903 751.854 17.7903 751.853 17.7902C751.853 17.7902 751.852 17.79 751.851 17.7899C751.848 17.7896 751.845 17.7891 751.84 17.7885C751.831 17.7873 751.816 17.7855 751.797 17.7831C751.759 17.7782 751.703 17.771 751.627 17.7613C751.475 17.7421 751.248 17.7134 750.948 17.6759C750.347 17.6008 749.451 17.49 748.274 17.3475L748.514 15.362C749.694 15.5048 750.592 15.6159 751.196 15.6913C751.498 15.7291 751.726 15.7579 751.879 15.7773C751.955 15.787 752.013 15.7943 752.051 15.7992C752.07 15.8017 752.085 15.8036 752.095 15.8048C752.1 15.8054 752.103 15.8059 752.106 15.8062C752.107 15.8064 752.108 15.8065 752.109 15.8066C752.109 15.8066 752.109 15.8067 752.109 15.8067C752.109 15.8067 752.109 15.8067 752.109 15.8067C752.109 15.8067 752.109 15.8067 752.109 15.8067C752.11 15.8067 752.11 15.8067 751.982 16.7985ZM740.267 16.4081C737.89 16.1368 735.169 15.8322 732.123 15.5004L732.34 13.5121C735.389 13.8444 738.113 14.1494 740.494 14.421L740.267 16.4081ZM723.956 14.6289C721.493 14.3716 718.883 14.1036 716.133 13.8269L716.334 11.837C719.086 12.1139 721.698 12.3821 724.164 12.6398L723.956 14.6289ZM707.82 13.007C705.316 12.7649 702.719 12.5181 700.034 12.2678L700.219 10.2764C702.907 10.5269 705.506 10.774 708.013 11.0163L707.82 13.007ZM691.861 11.5207C689.266 11.288 686.6 11.0534 683.867 10.8176L684.039 8.825C686.774 9.06096 689.442 9.29582 692.04 9.5287L691.861 11.5207ZM675.881 10.1421C673.172 9.91748 670.405 9.69256 667.582 9.46809L667.74 7.47439C670.566 7.69903 673.335 7.92414 676.047 8.14898L675.881 10.1421ZM659.767 8.85921C657.118 8.65699 654.424 8.4557 651.688 8.25587L651.834 6.26118C654.572 6.46117 657.268 6.66263 659.919 6.86501L659.767 8.85921ZM643.479 7.66999C640.886 7.48919 638.258 7.31009 635.597 7.13311L635.73 5.13752C638.393 5.31464 641.023 5.49389 643.619 5.67483L643.479 7.66999ZM627.517 6.60894C624.806 6.43748 622.063 6.26854 619.29 6.10253L619.409 4.10611C622.185 4.27225 624.93 4.44133 627.644 4.61293L627.517 6.60894ZM611.395 5.64263C608.737 5.49215 606.055 5.34461 603.348 5.20035L603.454 3.20319C606.163 3.34756 608.848 3.49522 611.508 3.64583L611.395 5.64263ZM595.156 4.77778C592.512 4.64588 589.846 4.51733 587.16 4.39243L587.253 2.39459C589.941 2.51959 592.609 2.64825 595.256 2.78026L595.156 4.77778ZM579.153 4.03379C576.465 3.91799 573.759 3.80604 571.034 3.69824L571.113 1.69981C573.84 1.8077 576.549 1.91974 579.239 2.03564L579.153 4.03379ZM562.894 3.39063C560.252 3.29549 557.594 3.20443 554.922 3.11769L554.987 1.11875C557.661 1.20556 560.322 1.2967 562.966 1.39192L562.894 3.39063ZM546.862 2.87074C544.161 2.79293 541.447 2.71971 538.72 2.65133L538.77 0.651961C541.5 0.7204 544.216 0.793691 546.919 0.871574L546.862 2.87074ZM530.658 2.46433C527.996 2.40762 525.323 2.35569 522.639 2.30877L522.674 0.309078C525.361 0.356044 528.036 0.408025 530.7 0.464786L530.658 2.46433ZM514.559 2.18327C511.855 2.14661 509.142 2.11518 506.42 2.08924L506.439 0.0893307C509.164 0.1153 511.88 0.146754 514.586 0.183457L514.559 2.18327ZM498.384 2.02893C495.711 2.01432 493.03 2.00514 490.342 2.00163L490.344 0.00162876C493.035 0.00514865 495.719 0.014331 498.395 0.0289576L498.384 2.02893ZM482.257 2.00827C479.555 2.01628 476.848 2.03017 474.134 2.05015L474.12 0.0502066C476.836 0.0302029 479.547 0.0162985 482.251 0.00827497L482.257 2.00827ZM466.098 2.12718C463.417 2.15886 460.732 2.19666 458.043 2.24077L458.01 0.24104C460.702 0.196878 463.391 0.15904 466.074 0.127317L466.098 2.12718ZM449.964 2.39226C447.268 2.44921 444.568 2.51268 441.865 2.58288L441.813 0.583554C444.519 0.513267 447.222 0.449719 449.922 0.392703L449.964 2.39226ZM433.816 2.81184C431.131 2.8949 428.445 2.98478 425.757 3.08168L425.685 1.08298C428.376 0.98595 431.066 0.895956 433.754 0.812793L433.816 2.81184ZM417.69 3.39366C415 3.50481 412.309 3.62319 409.619 3.749L409.525 1.75118C412.219 1.6252 414.914 1.50667 417.607 1.39537L417.69 3.39366ZM401.556 4.14846C398.869 4.28916 396.183 4.43747 393.498 4.5936L393.382 2.59697C396.071 2.44062 398.761 2.29209 401.452 2.15119L401.556 4.14846ZM385.448 5.08564C382.766 5.25763 380.086 5.43763 377.409 5.62586L377.268 3.63078C379.95 3.44227 382.634 3.26198 385.32 3.08974L385.448 5.08564ZM369.338 6.21907C366.651 6.42526 363.967 6.63997 361.288 6.86342L361.121 4.87034C363.805 4.64652 366.493 4.43145 369.185 4.22493L369.338 6.21907ZM353.262 7.56014C350.588 7.80147 347.92 8.05175 345.257 8.31119L345.063 6.32062C347.731 6.06071 350.404 5.80999 353.082 5.56824L353.262 7.56014ZM337.187 9.12741C334.503 9.409 331.826 9.70019 329.155 10.0012L328.931 8.01377C331.607 7.71219 334.29 7.42045 336.978 7.13833L337.187 9.12741ZM321.165 10.9338C318.5 11.2557 315.843 11.5877 313.194 11.93L312.938 9.94654C315.592 9.60351 318.255 9.27081 320.925 8.94823L321.165 10.9338ZM305.141 13.0065C302.466 13.3761 299.801 13.7565 297.145 14.1481L296.853 12.1695C299.515 11.777 302.186 11.3957 304.867 11.0253L305.141 13.0065ZM289.211 15.3564C286.552 15.7744 283.904 16.2038 281.268 16.6451L280.938 14.6725C283.58 14.2302 286.235 13.7996 288.9 13.3807L289.211 15.3564ZM273.257 18.0294C270.6 18.5031 267.956 18.9893 265.326 19.4883L264.953 17.5233C267.591 17.023 270.242 16.5354 272.906 16.0604L273.257 18.0294ZM257.479 21.0233C254.822 21.5591 252.18 22.1084 249.555 22.6715L249.135 20.716C251.769 20.1512 254.419 19.6002 257.084 19.0628L257.479 21.0233ZM241.629 24.425C239.005 25.0238 236.398 25.637 233.809 26.2648L233.338 24.3212C235.935 23.6912 238.551 23.0759 241.184 22.4751L241.629 24.425ZM226.094 28.1944C223.437 28.8793 220.801 29.5804 218.188 30.2979L217.658 28.3693C220.282 27.6489 222.928 26.9451 225.595 26.2577L226.094 28.1944ZM210.415 32.5003C207.847 33.2512 205.302 34.0188 202.782 34.8035L202.187 32.8939C204.719 32.1056 207.275 31.3347 209.854 30.5807L210.415 32.5003ZM195.088 37.2773C192.499 38.1373 189.937 39.0164 187.404 39.915L186.735 38.0301C189.281 37.1268 191.856 36.2433 194.458 35.3792L195.088 37.2773ZM179.893 42.6694C177.381 43.6215 174.901 44.5939 172.453 45.5871L171.701 43.7338C174.164 42.7347 176.658 41.7566 179.184 40.7993L179.893 42.6694ZM164.93 48.75C162.458 49.8269 160.023 50.9267 157.625 52.0496L156.776 50.2384C159.191 49.1076 161.643 48.0004 164.131 46.9165L164.93 48.75ZM150.482 55.5202C148.025 56.7589 145.612 58.024 143.245 59.316L142.286 57.5604C144.674 56.2577 147.106 54.9825 149.581 53.7344L150.482 55.5202ZM136.279 63.2731C133.976 64.6356 131.722 66.0261 129.517 67.4451L128.434 65.7633C130.661 64.3303 132.937 62.9267 135.261 61.5518L136.279 63.2731ZM122.759 71.994C120.563 73.5419 118.423 75.1214 116.341 76.7332L115.117 75.1517C117.223 73.521 119.387 71.9237 121.607 70.3592L122.759 71.994ZM110.14 81.7793C108.073 83.5479 106.074 85.3529 104.144 87.1949L102.763 85.7481C104.72 83.8803 106.746 82.0512 108.839 80.26L110.14 81.7793ZM98.5638 92.8326C96.7188 94.8086 94.9496 96.8246 93.2584 98.8814L91.7136 97.6112C93.4321 95.5211 95.2291 93.4735 97.1019 91.4677L98.5638 92.8326ZM88.382 105.23C86.8319 107.396 85.3643 109.605 83.9814 111.857L82.277 110.811C83.6849 108.518 85.1787 106.27 86.7555 104.066L88.382 105.23ZM80.0469 118.828C78.8239 121.197 77.6902 123.611 76.6485 126.072L74.8068 125.292C75.8685 122.784 77.0238 120.324 78.2698 117.911L80.0469 118.828ZM73.8334 133.497C72.9902 136.007 72.2382 138.562 71.5798 141.164L69.641 140.673C70.3118 138.022 71.0782 135.418 71.9376 132.86L73.8334 133.497ZM69.9019 149.033C69.4559 151.589 69.0963 154.187 68.8254 156.829L66.8359 156.625C67.1115 153.937 67.4775 151.292 67.9316 148.689L69.9019 149.033ZM68.2808 164.888C68.2351 166.254 68.2121 167.631 68.2121 169.019H66.2121C66.2121 167.609 66.2355 166.21 66.2819 164.822L68.2808 164.888ZM68.2121 169.019C68.2121 170.432 68.2323 171.831 68.2725 173.216L66.2733 173.274C66.2325 171.869 66.2121 170.451 66.2121 169.019H68.2121ZM68.752 181.352C68.9907 184.008 69.3076 186.607 69.7012 189.152L67.7247 189.458C67.3245 186.87 67.0024 184.228 66.76 181.531L68.752 181.352ZM71.1635 196.86C71.7672 199.531 72.4612 202.137 73.2433 204.681L71.3316 205.268C70.5344 202.676 69.8275 200.021 69.2127 197.301L71.1635 196.86ZM75.8515 212.124C76.8272 214.593 77.8924 216.999 79.0449 219.343L77.2502 220.226C76.0739 217.833 74.9868 215.378 73.9915 212.859L75.8515 212.124ZM82.8609 226.357C84.223 228.631 85.6747 230.843 87.2136 232.994L85.587 234.157C84.0169 231.963 82.5354 229.706 81.1451 227.384L82.8609 226.357ZM92.0662 239.238C93.7652 241.256 95.5482 243.216 97.4128 245.12L95.9841 246.52C94.0851 244.581 92.2683 242.584 90.5362 240.526L92.0662 239.238ZM103.25 250.664C105.193 252.383 107.209 254.051 109.296 255.671L108.07 257.251C105.95 255.606 103.901 253.91 101.925 252.162L103.25 250.664ZM115.741 260.367C117.958 261.884 120.244 263.354 122.597 264.779L121.561 266.489C119.178 265.046 116.861 263.556 114.612 262.017L115.741 260.367ZM129.365 268.655C131.678 269.907 134.048 271.122 136.473 272.298L135.6 274.098C133.149 272.909 130.753 271.681 128.413 270.413L129.365 268.655ZM143.91 275.717C146.279 276.748 148.695 277.748 151.155 278.717L150.423 280.578C147.941 279.601 145.503 278.592 143.112 277.551L143.91 275.717ZM158.607 281.508C161.135 282.409 163.705 283.28 166.317 284.123L165.703 286.026C163.073 285.178 160.483 284.3 157.936 283.392L158.607 281.508ZM173.971 286.477C176.471 287.21 179.006 287.919 181.575 288.604L181.059 290.537C178.475 289.847 175.925 289.134 173.409 288.396L173.971 286.477ZM189.381 290.593C192.016 291.234 194.684 291.852 197.384 292.448L196.952 294.401C194.24 293.802 191.558 293.18 188.909 292.537L189.381 290.593ZM205.079 294.073C207.657 294.594 210.262 295.096 212.892 295.58L212.53 297.547C209.889 297.061 207.273 296.556 204.683 296.034L205.079 294.073ZM220.861 296.981C223.533 297.43 226.231 297.861 228.952 298.276L228.65 300.253C225.919 299.837 223.212 299.404 220.53 298.954L220.861 296.981ZM236.736 299.411C239.351 299.775 241.987 300.125 244.643 300.462L244.391 302.446C241.728 302.109 239.084 301.757 236.46 301.392L236.736 299.411ZM252.669 301.432C255.364 301.742 258.078 302.039 260.81 302.324L260.603 304.313C257.864 304.028 255.143 303.73 252.441 303.419L252.669 301.432ZM268.673 303.105C271.304 303.354 273.951 303.591 276.614 303.819L276.444 305.812C273.775 305.584 271.122 305.345 268.485 305.096L268.673 303.105ZM284.647 304.471C287.34 304.679 290.047 304.876 292.768 305.064L292.63 307.059C289.904 306.871 287.191 306.673 284.493 306.465L284.647 304.471ZM300.758 305.587C303.396 305.75 306.045 305.905 308.706 306.052L308.596 308.049C305.93 307.902 303.276 307.747 300.635 307.583L300.758 305.587ZM316.725 306.47C319.409 306.602 322.105 306.726 324.811 306.843L324.724 308.842C322.014 308.724 319.315 308.6 316.627 308.468L316.725 306.47ZM332.92 307.173C335.56 307.273 338.209 307.367 340.868 307.455L340.801 309.454C338.14 309.366 335.488 309.272 332.845 309.171L332.92 307.173ZM348.868 307.702C351.544 307.779 354.228 307.85 356.92 307.916L356.871 309.915C354.176 309.849 351.49 309.778 348.811 309.701L348.868 307.702ZM365.019 308.099C367.693 308.154 370.374 308.205 373.063 308.251L373.028 310.251C370.338 310.204 367.654 310.154 364.977 310.098L365.019 308.099ZM381.052 308.376C383.722 308.414 386.398 308.448 389.079 308.478L389.056 310.478C386.373 310.448 383.696 310.414 381.024 310.376L381.052 308.376ZM397.139 308.559C399.831 308.583 402.528 308.603 405.23 308.621L405.217 310.62C402.514 310.603 399.815 310.582 397.121 310.559L397.139 308.559ZM413.252 308.665C415.92 308.677 418.592 308.686 421.268 308.694L421.262 310.694C418.585 310.686 415.912 310.677 413.243 310.665L413.252 308.665ZM429.306 308.71C431.988 308.714 434.674 308.716 437.362 308.716L437.362 310.716C434.673 310.716 431.986 310.714 429.303 310.71L429.306 308.71ZM445.435 308.713C448.109 308.711 450.785 308.707 453.463 308.703L453.466 310.703C450.788 310.707 448.111 310.711 445.437 310.713L445.435 308.713ZM461.497 308.689C464.176 308.683 466.857 308.677 469.538 308.671L469.543 310.671C466.861 310.677 464.18 310.683 461.501 310.689L461.497 308.689ZM477.586 308.653C480.269 308.647 482.952 308.641 485.636 308.635L485.64 310.635C482.957 310.641 480.273 310.647 477.59 310.653L477.586 308.653ZM493.686 308.621C496.369 308.616 499.052 308.613 501.733 308.611L501.735 310.611C499.054 310.613 496.372 310.616 493.689 310.621L493.686 308.621ZM509.776 308.607C512.455 308.607 515.133 308.609 517.81 308.612L517.807 310.612C515.132 310.609 512.454 310.607 509.775 310.607L509.776 308.607ZM525.846 308.628C528.54 308.635 531.231 308.645 533.92 308.656L533.911 310.656C531.224 310.645 528.533 310.635 525.841 310.628L525.846 308.628ZM541.977 308.699C544.66 308.716 547.34 308.736 550.016 308.758L549.999 310.758C547.324 310.736 544.646 310.716 541.964 310.699L541.977 308.699ZM558.032 308.836C560.717 308.865 563.397 308.898 566.072 308.935L566.045 310.934C563.371 310.898 560.693 310.865 558.011 310.836L558.032 308.836ZM574.163 309.057C576.855 309.102 579.543 309.151 582.224 309.205L582.184 311.205C579.505 311.151 576.82 311.102 574.13 311.057L574.163 309.057ZM590.251 309.38C592.921 309.443 595.585 309.511 598.242 309.584L598.187 311.583C595.532 311.51 592.871 311.442 590.204 311.379L590.251 309.38ZM606.311 309.823C609.018 309.909 611.717 310.001 614.409 310.099L614.336 312.097C611.648 312 608.951 311.908 606.247 311.822L606.311 309.823ZM622.46 310.412C625.135 310.523 627.802 310.64 630.46 310.764L630.367 312.762C627.712 312.638 625.049 312.521 622.377 312.41L622.46 310.412ZM638.408 311.158C641.131 311.301 643.844 311.452 646.547 311.611L646.43 313.607C643.731 313.449 641.022 313.298 638.303 313.156L638.408 311.158ZM654.629 312.113C657.312 312.288 659.985 312.473 662.645 312.666L662.5 314.661C659.844 314.468 657.177 314.284 654.499 314.108L654.629 312.113ZM670.59 313.273C673.279 313.489 675.954 313.715 678.616 313.95L678.44 315.943C675.783 315.707 673.113 315.482 670.43 315.267L670.59 313.273ZM686.728 314.705C689.418 314.967 692.093 315.241 694.753 315.526L694.54 317.515C691.886 317.23 689.217 316.957 686.534 316.695L686.728 314.705ZM702.687 316.416C705.337 316.727 707.971 317.051 710.588 317.387L710.333 319.37C707.723 319.035 705.097 318.713 702.454 318.403L702.687 316.416ZM718.71 318.478C721.399 318.856 724.069 319.248 726.72 319.655L726.417 321.632C723.775 321.226 721.113 320.835 718.432 320.459L718.71 318.478ZM734.612 320.921C737.23 321.359 739.828 321.813 742.404 322.282L742.045 324.25C739.479 323.782 736.891 323.33 734.282 322.893L734.612 320.921ZM750.489 323.823C753.16 324.355 755.807 324.905 758.428 325.474L758.004 327.429C755.394 326.862 752.759 326.314 750.099 325.785L750.489 323.823ZM766.216 327.24C768.813 327.854 771.383 328.488 773.925 329.143L773.426 331.08C770.897 330.428 768.34 329.797 765.756 329.186L766.216 327.24ZM781.876 331.285C784.495 332.023 787.082 332.784 789.637 333.57L789.049 335.482C786.51 334.701 783.938 333.944 781.334 333.21L781.876 331.285ZM797.202 336.003C799.778 336.869 802.319 337.762 804.822 338.683L804.131 340.56C801.647 339.646 799.124 338.759 796.565 337.899L797.202 336.003ZM812.46 341.629C814.965 342.642 817.429 343.685 819.851 344.761L819.039 346.589C816.639 345.523 814.196 344.488 811.71 343.483L812.46 341.629ZM827.035 348.107C829.53 349.326 831.975 350.582 834.369 351.877L833.417 353.636C831.049 352.355 828.628 351.111 826.157 349.904L827.035 348.107ZM841.394 355.88C843.684 357.254 845.92 358.668 848.101 360.123L846.992 361.787C844.837 360.35 842.628 358.953 840.365 357.595L841.394 355.88ZM854.802 364.852C856.985 366.484 859.105 368.162 861.159 369.889L859.872 371.42C857.848 369.718 855.758 368.064 853.605 366.455L854.802 364.852ZM867.127 375.219C869.104 377.097 871.011 379.028 872.844 381.013L871.375 382.37C869.572 380.418 867.696 378.518 865.749 376.669L867.127 375.219ZM878.142 387.157C879.832 389.26 881.447 391.42 882.984 393.637L881.341 394.777C879.831 392.599 878.244 390.477 876.583 388.41L878.142 387.157ZM887.332 400.418C888.702 402.735 889.994 405.11 891.204 407.545L889.413 408.435C888.225 406.044 886.956 403.711 885.611 401.436L887.332 400.418ZM894.587 415.021C895.579 417.444 896.496 419.922 897.337 422.455L895.438 423.085C894.612 420.595 893.711 418.16 892.736 415.779L894.587 415.021ZM899.627 430.222C900.313 432.868 900.92 435.57 901.447 438.33L899.483 438.705C898.964 435.987 898.366 433.327 897.691 430.724L899.627 430.222ZM902.696 446.077C903.041 448.685 903.319 451.343 903.528 454.05L901.534 454.204C901.328 451.532 901.054 448.911 900.714 446.339L902.696 446.077ZM903.947 462.32C903.982 463.724 904 465.14 904 466.57H902C902 465.157 901.983 463.757 901.948 462.37L903.947 462.32ZM904 466.57C904 467.996 903.989 469.411 903.967 470.816L901.967 470.784C901.989 469.39 902 467.985 902 466.57H904ZM903.704 479.113C903.572 481.836 903.398 484.517 903.18 487.155L901.187 486.99C901.403 484.375 901.576 481.718 901.706 479.017L903.704 479.113ZM902.401 494.942C902.098 497.497 901.754 500.009 901.368 502.48L899.392 502.172C899.774 499.725 900.115 497.237 900.415 494.707L902.401 494.942ZM899.918 510.62C899.375 513.322 898.78 515.971 898.133 518.569L896.192 518.086C896.832 515.518 897.42 512.899 897.957 510.226L899.918 510.62ZM896.037 526.211C895.287 528.707 894.486 531.153 893.636 533.55L891.751 532.88C892.59 530.516 893.381 528.101 894.122 525.635L896.037 526.211ZM890.703 541.145C889.649 543.664 888.536 546.124 887.364 548.526L885.567 547.649C886.721 545.282 887.819 542.857 888.858 540.373L890.703 541.145ZM883.677 555.558C882.383 557.857 881.032 560.099 879.625 562.283L877.943 561.2C879.329 559.049 880.66 556.842 881.934 554.577L883.677 555.558ZM875.025 568.955C873.431 571.118 871.776 573.22 870.064 575.262L868.531 573.977C870.217 571.966 871.845 569.897 873.415 567.768L875.025 568.955ZM864.75 581.213C862.919 583.14 861.031 585.009 859.087 586.821L857.723 585.358C859.638 583.573 861.498 581.733 863.3 579.835L864.75 581.213ZM853.082 592.091C851.026 593.791 848.915 595.436 846.752 597.026L845.568 595.414C847.701 593.846 849.782 592.225 851.808 590.55L853.082 592.091ZM840.121 601.622C837.934 603.052 835.698 604.432 833.416 605.765L832.408 604.037C834.661 602.722 836.868 601.359 839.027 599.948L840.121 601.622ZM826.432 609.618C824.059 610.854 821.64 612.044 819.177 613.188L818.335 611.374C820.771 610.243 823.162 609.066 825.508 607.844L826.432 609.618ZM811.845 616.406C809.442 617.402 807.001 618.359 804.522 619.276L803.828 617.401C806.283 616.492 808.7 615.545 811.079 614.559L811.845 616.406ZM796.979 621.914C794.428 622.755 791.841 623.559 789.22 624.326L788.658 622.406C791.259 621.645 793.824 620.848 796.352 620.014L796.979 621.914ZM781.549 626.441C779.034 627.093 776.49 627.715 773.917 628.306L773.469 626.357C776.024 625.77 778.551 625.153 781.047 624.505L781.549 626.441ZM766.113 629.989C763.483 630.52 760.826 631.022 758.142 631.495L757.794 629.525C760.463 629.055 763.104 628.556 765.717 628.029L766.113 629.989ZM750.243 632.793C747.68 633.185 745.095 633.552 742.487 633.895L742.226 631.913C744.821 631.571 747.392 631.206 749.941 630.816L750.243 632.793ZM734.599 634.855C731.947 635.152 729.275 635.426 726.581 635.677L726.395 633.685C729.077 633.435 731.738 633.163 734.376 632.868L734.599 634.855ZM718.462 636.362C715.886 636.558 713.292 636.734 710.681 636.891L710.561 634.895C713.162 634.738 715.745 634.562 718.311 634.368L718.462 636.362ZM702.797 637.308C700.152 637.428 697.49 637.531 694.813 637.615L694.749 635.617C697.418 635.532 700.07 635.43 702.706 635.31L702.797 637.308ZM686.732 637.818C684.074 637.868 681.402 637.901 678.714 637.918L678.702 635.918C681.381 635.901 684.046 635.868 686.695 635.819L686.732 637.818ZM670.87 637.924C668.243 637.912 665.602 637.885 662.949 637.845L662.979 635.845C665.626 635.885 668.259 635.912 670.88 635.924L670.87 637.924ZM654.953 637.682C652.276 637.615 649.586 637.534 646.886 637.44L646.955 635.441C649.65 635.534 652.333 635.615 655.004 635.683L654.953 637.682ZM638.905 637.127C636.296 637.013 633.676 636.888 631.047 636.752L631.15 634.754C633.774 634.89 636.388 635.015 638.992 635.128L638.905 637.127ZM623.132 636.311C620.484 636.153 617.827 635.985 615.161 635.807L615.295 633.811C617.956 633.989 620.608 634.157 623.25 634.314L623.132 636.311ZM607.139 635.243C604.485 635.047 601.823 634.841 599.153 634.627L599.314 632.633C601.979 632.847 604.637 633.052 607.286 633.248L607.139 635.243ZM591.3 633.973C588.675 633.746 586.044 633.511 583.406 633.268L583.589 631.277C586.223 631.519 588.851 631.754 591.472 631.98L591.3 633.973ZM575.473 632.517C572.822 632.259 570.165 631.993 567.503 631.721L567.707 629.731C570.366 630.003 573.019 630.269 575.666 630.526L575.473 632.517ZM559.504 630.882C556.893 630.602 554.277 630.316 551.657 630.024L551.879 628.036C554.496 628.328 557.109 628.614 559.717 628.893L559.504 630.882ZM543.783 629.129C541.153 628.825 538.52 628.515 535.883 628.2L536.12 626.214C538.755 626.529 541.386 626.838 544.012 627.142L543.783 629.129ZM527.959 627.239C525.315 626.914 522.667 626.583 520.016 626.248L520.266 624.264C522.915 624.599 525.561 624.929 528.204 625.254L527.959 627.239ZM512.12 625.238C509.501 624.9 506.879 624.557 504.255 624.21L504.517 622.227C507.139 622.574 509.759 622.916 512.377 623.255L512.12 625.238ZM496.376 623.158C493.748 622.804 491.117 622.447 488.486 622.086L488.757 620.104C491.387 620.465 494.016 620.822 496.643 621.176L496.376 623.158ZM480.586 620.995C477.952 620.629 475.318 620.26 472.682 619.888L472.961 617.908C475.596 618.279 478.229 618.648 480.861 619.014L480.586 620.995ZM464.811 618.772C462.186 618.398 459.561 618.021 456.936 617.643L457.221 615.664C459.845 616.042 462.469 616.418 465.093 616.792L464.811 618.772ZM449.061 616.504C446.436 616.123 443.811 615.741 441.187 615.357L441.477 613.378C444.1 613.762 446.724 614.144 449.348 614.525L449.061 616.504ZM433.317 614.204C430.689 613.818 428.061 613.431 425.435 613.044L425.727 611.065C428.353 611.452 430.98 611.839 433.608 612.225L433.317 614.204ZM417.546 611.879C414.918 611.491 412.291 611.103 409.667 610.715L409.959 608.736C412.584 609.124 415.21 609.513 417.838 609.901L417.546 611.879ZM401.8 609.552C399.18 609.165 396.563 608.779 393.948 608.393L394.24 606.415C396.854 606.8 399.472 607.186 402.092 607.573L401.8 609.552ZM386.109 607.24C383.465 606.852 380.823 606.465 378.185 606.08L378.474 604.101C381.113 604.486 383.755 604.873 386.4 605.261L386.109 607.24ZM370.283 604.93C367.653 604.549 365.026 604.17 362.405 603.793L362.689 601.813C365.312 602.19 367.939 602.57 370.57 602.951L370.283 604.93ZM354.553 602.671C351.94 602.3 349.332 601.931 346.729 601.566L347.007 599.585C349.611 599.951 352.22 600.319 354.834 600.691L354.553 602.671ZM338.827 600.464C336.174 600.097 333.526 599.734 330.884 599.375L331.154 597.393C333.797 597.752 336.446 598.116 339.101 598.483L338.827 600.464ZM322.978 598.309C320.349 597.959 317.727 597.613 315.112 597.271L315.371 595.288C317.988 595.63 320.612 595.976 323.243 596.327L322.978 598.309ZM307.288 596.262C304.662 595.928 302.044 595.599 299.434 595.275L299.68 593.291C302.292 593.614 304.913 593.944 307.54 594.278L307.288 596.262ZM291.437 594.3C288.78 593.982 286.132 593.669 283.493 593.364L283.723 591.377C286.365 591.683 289.016 591.995 291.675 592.315L291.437 594.3ZM275.605 592.469C272.985 592.177 270.375 591.893 267.775 591.617L267.986 589.628C270.589 589.905 273.203 590.189 275.826 590.481L275.605 592.469ZM259.956 590.807C257.259 590.535 254.574 590.272 251.901 590.018L252.09 588.027C254.767 588.281 257.456 588.545 260.157 588.817L259.956 590.807ZM243.92 589.286C241.272 589.051 238.636 588.826 236.014 588.612L236.177 586.619C238.804 586.833 241.444 587.058 244.096 587.293L243.92 589.286ZM228.188 588.001C225.558 587.806 222.942 587.621 220.341 587.448L220.474 585.453C223.08 585.626 225.701 585.811 228.336 586.007L228.188 588.001ZM212.244 586.946C209.561 586.792 206.895 586.65 204.245 586.523L204.341 584.525C206.997 584.653 209.67 584.794 212.359 584.949L212.244 586.946ZM196.35 586.183C193.736 586.084 191.14 586 188.562 585.93L188.616 583.931C191.201 584.001 193.805 584.085 196.426 584.185L196.35 586.183ZM180.568 585.762C177.85 585.721 175.154 585.699 172.48 585.695L172.483 583.695C175.166 583.699 177.871 583.721 180.598 583.762L180.568 585.762ZM164.526 585.739C161.899 585.772 159.294 585.825 156.713 585.898L156.657 583.899C159.248 583.826 161.863 583.773 164.501 583.739L164.526 585.739ZM148.887 586.184C146.145 586.308 143.432 586.456 140.75 586.63L140.621 584.634C143.317 584.46 146.042 584.311 148.797 584.187L148.887 586.184ZM132.794 587.226C130.172 587.45 127.582 587.701 125.024 587.978L124.809 585.99C127.382 585.711 129.987 585.459 132.623 585.233L132.794 587.226ZM117.273 588.915C114.545 589.279 111.858 589.678 109.211 590.11L108.888 588.136C111.555 587.701 114.262 587.3 117.008 586.932L117.273 588.915ZM101.394 591.512C98.8298 592.015 96.3082 592.553 93.83 593.128L93.3781 591.179C95.8795 590.599 98.4236 590.056 101.009 589.55L101.394 591.512ZM86.1039 595.079C83.4799 595.798 80.9103 596.563 78.3965 597.375L77.7814 595.472C80.3251 594.65 82.9235 593.877 85.5751 593.15L86.1039 595.079ZM71.0244 599.956C68.5655 600.887 66.167 601.869 63.8306 602.903L63.0208 601.074C65.3922 600.024 67.8247 599.029 70.3164 598.086L71.0244 599.956ZM56.5742 606.393C54.2274 607.617 51.9531 608.903 49.7535 610.253L48.7075 608.548C50.9482 607.173 53.2629 605.864 55.6492 604.619L56.5742 606.393ZM43.3014 614.552C41.1364 616.119 39.0571 617.759 37.0657 619.474L35.7602 617.959C37.7957 616.205 39.9196 614.53 42.129 612.932L43.3014 614.552ZM31.3573 624.852C29.5466 626.719 27.8257 628.665 26.1968 630.691L24.638 629.438C26.3063 627.363 28.0684 625.371 29.9215 623.46L31.3573 624.852ZM21.6008 636.996C20.1618 639.18 18.8163 641.447 17.567 643.799L15.8006 642.861C17.0794 640.453 18.457 638.132 19.9308 635.896L21.6008 636.996ZM14.2183 650.857C13.237 653.187 12.3397 655.593 11.5286 658.076L9.62738 657.455C10.4554 654.92 11.3719 652.463 12.3751 650.081L14.2183 650.857ZM9.35541 665.762C8.74518 668.293 8.21588 670.897 7.76941 673.576L5.79663 673.247C6.25067 670.523 6.78937 667.872 7.41113 665.294L9.35541 665.762ZM6.75793 681.077C6.4903 683.64 6.29266 686.267 6.16638 688.958L4.16858 688.865C4.29657 686.136 4.49701 683.471 4.76874 680.869L6.75793 681.077ZM6.00336 697.229C6.01929 699.731 6.09247 702.285 6.22394 704.892L4.22644 704.992C4.09363 702.357 4.01953 699.774 4.00336 697.242L6.00336 697.229ZM6.76044 712.504C6.99286 715.089 7.2793 717.724 7.62042 720.409L5.63641 720.661C5.29224 717.953 5.00317 715.294 4.76843 712.683L6.76044 712.504ZM8.80902 728.611C9.03473 730.003 9.27429 731.407 9.52783 732.824L7.55908 733.176C7.30365 731.749 7.06226 730.334 6.83484 728.931L8.80902 728.611Z" fill="#00BD90"/>
</svg>
