<?xml version="1.0" encoding="UTF-8"?>
<svg width="192px" height="50px" viewBox="0 0 192 50" version="1.1" xmlns="http://www.w3.org/2000/svg" xmlns:xlink="http://www.w3.org/1999/xlink">
    <!-- Generator: Sketch 51.3 (57544) - http://www.bohemiancoding.com/sketch -->
    <title>Group 25</title>
    <desc>Created with Sketch.</desc>
    <defs>
        <polygon id="path-1" points="0 51 204 51 204 3 0 3"></polygon>
    </defs>
    <g id="Page-1" stroke="none" stroke-width="1" fill="none" fill-rule="evenodd">
        <g id="Keto_Woman_desktop" transform="translate(-78.000000, -50.000000)">
            <g id="Group-25" transform="translate(70.000000, 50.000000)">
                <g id="Group" transform="translate(158.000000, 0.000000)" fill="#8FBB1C">
                    <path d="M13.5,24.4705882 C13.5486064,23.5113541 13.8477226,22.5602148 14.2590075,21.6900235 C14.6740313,20.8117375 15.2087016,20.0063046 15.8031951,19.2696776 C16.9959211,17.7964235 18.439157,16.5781557 19.9908226,15.602732 C20.7797417,15.108949 21.5574439,14.6961141 22.3575799,14.3075636 C23.1577158,13.9271079 23.9765466,13.5830787 24.8103331,13.2876185 C25.6478586,13.000253 26.496601,12.7493141 27.3602991,12.567181 C28.2239973,12.385048 29.0989123,12.2474363 30,12.2352941 C29.2671652,12.7978829 28.5156356,13.2795237 27.767845,13.7530696 C27.0200544,14.2185208 26.2685248,14.6637349 25.5169952,15.0968068 C24.7654657,15.5298788 24.0101971,15.9467611 23.2549286,16.3636434 C22.4996601,16.772431 21.7256968,17.1731237 21.0078178,17.5819112 C19.5533651,18.4156759 18.1549966,19.3587204 16.8575799,20.463661 C15.575119,21.5807437 14.3562203,22.8030589 13.5,24.4705882" id="Fill-1"></path>
                    <path d="M15.1662368,17.2776207 C14.9853892,16.6173894 14.9612762,15.8979066 15.0496905,15.1995851 C15.1581991,14.4970313 15.3752162,13.8156387 15.6645723,13.1723364 C16.2553411,11.8857319 17.1073342,10.7557207 18.0839112,9.76960601 C19.0725447,8.79618809 20.1696867,7.93280873 21.4155256,7.28104195 C22.0344263,6.95939082 22.7095906,6.6885267 23.4128868,6.51500438 C24.1001076,6.34571431 24.7953661,6.24837251 25.4825869,6.19758549 C26.1657889,6.14256622 26.8449721,6.14679847 27.5080799,6.16372748 C28.1711878,6.17642423 28.8182202,6.20181774 29.4773092,6.23990801 C30.775393,6.30762404 32.0413261,6.37534007 33.2710897,6.34994656 C34.5008533,6.30762404 35.6944474,6.16372748 36.7674764,5.79552157 C37.8967692,5.41038666 39.0783067,4.8094069 39.9343187,3.89524052 C40.6456525,3.13766745 41.3087603,2.31237835 42,1.52941176 C41.7990582,1.75795336 41.7950394,2.76522929 41.7387757,3.10380943 C41.4373631,4.87712293 40.9149145,6.60388166 40.2638632,8.28831788 C39.8459043,9.36754209 39.3797194,10.4213728 38.8050259,11.4709712 L38.5759523,11.8645706 L38.3549164,12.224312 L37.9048068,12.9437949 C37.5993754,13.4220393 37.2778685,13.9087483 36.9282299,14.3785282 C36.2289525,15.3265526 35.3649029,16.206861 34.4003825,16.8924858 C33.9181222,17.2310659 33.4157678,17.5273235 32.9053757,17.7897232 C32.386946,18.039426 31.8765539,18.2595031 31.3581241,18.4541867 C30.3172458,18.8477861 29.264311,19.1905985 28.1872631,19.4064433 C26.0412051,19.871991 23.8388833,20.0074231 21.6968441,19.7619525 C23.8388833,19.5334109 25.9286777,19.08056 27.9139823,18.3610771 C28.9066346,17.9928712 29.8791928,17.5908073 30.8155814,17.1040984 C31.7559888,16.6173894 32.6361138,16.0925902 33.411749,15.4577524 C34.1793465,14.8102179 34.8223602,14.0568771 35.3809783,13.1765687 C35.6663156,12.7406468 35.9395964,12.2835636 36.2048395,11.8095514 L36.6027042,11.0943008 L36.803646,10.7303272 L36.9804747,10.391747 C37.4466596,9.47334838 37.8405055,8.4533757 38.2142572,7.43340302 C38.5920277,6.41343033 38.8813838,7.58999633 37.4828291,8.07247304 C36.0842744,8.54225299 34.6656256,8.68191729 33.3032404,8.68614955 C31.9408553,8.69461405 30.6186585,8.55494974 29.3286123,8.43644669 C28.0466039,8.31371139 26.7645954,8.18251158 25.5468883,8.17404708 C24.9360253,8.16981483 24.3372189,8.20790509 23.7544878,8.30524689 C23.1838132,8.39412417 22.6251951,8.57187875 22.0625581,8.80888485 C20.9372842,9.27020029 19.8481799,9.93043157 18.8595464,10.7260949 C17.8709129,11.517526 16.9505996,12.4316924 16.2553411,13.5278456 C15.5560638,14.6070698 15.0738035,15.8936744 15.1662368,17.2776207" id="Fill-3"></path>
                    <path d="M13.1747493,26 C12.6687614,24.3065076 12.1588206,22.7394627 11.6330676,21.1724178 C11.1073146,19.6098888 10.5697026,18.0654238 10.0083723,16.5390227 C9.44308904,15.0171376 8.86594668,13.5042844 8.23346189,12.0230431 C8.07929373,11.6391848 7.90536041,11.2824224 7.74328619,10.9121121 C7.58516499,10.5372858 7.39937258,10.1850394 7.22148624,9.81924502 C7.05545898,9.43538675 6.83804234,9.11023622 6.65224993,8.73089393 C6.56133025,8.53670681 6.44273935,8.37413154 6.33205451,8.20252432 C6.2253227,8.02188513 6.10673181,7.84124595 6,7.64705882 C6.73921659,7.93608152 7.44680894,8.41477536 8.05952858,8.99282075 C8.35995885,9.28184345 8.67224821,9.5798981 8.93314819,9.91408059 C9.20986028,10.2392311 9.48261934,10.5734136 9.71980114,10.930176 C10.7041056,12.3436776 11.4788994,13.9107226 12.083713,15.5500232 C12.6806205,17.1893238 13.1075478,18.909912 13.3407765,20.671144 C13.5542401,22.4233441 13.6016765,24.2613478 13.1747493,26" id="Fill-5"></path>
                    <path d="M12.8619873,7.40569499 C11.8792934,6.36800593 10.6950213,5.52893704 9.42255879,4.90470221 C8.13329804,4.27236044 6.76004637,3.81026453 5.33220059,3.45355891 C3.90855437,3.08874635 2.40091721,5.23303352 2.38411902,7.14221925 C2.37571993,8.09883886 2.34632311,9.05951193 2.36312129,9.95532945 C2.37571993,10.4052649 2.40511675,10.84304 2.45971086,11.2727081 C2.5269036,11.6942693 2.59829589,12.111777 2.72428228,12.5252313 C3.19463148,14.1831017 4.14372896,15.7639561 5.46658608,17.0448536 C6.78524365,18.325751 8.45246357,19.3269588 10.3716563,19.8822846 C8.36427309,19.8903915 6.32749309,19.1769803 4.63507589,17.9852593 C2.9342596,16.7975917 1.57780611,15.0991866 0.81348867,13.1251453 C0.620309536,12.634675 0.485924051,12.119884 0.364137206,11.6010394 C0.254948999,11.0862484 0.19615535,10.5755108 0.149960339,10.0688267 C0.0659694114,9.05545846 0.0659694114,8.1069458 0.040772133,7.15437967 C0.00297621547,5.24519393 -0.00542287733,3.33195472 0.00297621547,1.42276899 L0.0113753083,0 L1.4224229,0.304010468 C2.92166096,0.6282883 4.4460963,0.976886969 5.95373346,1.46735719 C7.45717107,1.96188088 8.94801004,2.59422266 10.300264,3.4697728 C11.660917,4.34532295 12.8409896,5.47624189 13.7018966,6.79767406 C14.5544045,8.11099928 15.0751482,9.65537245 14.9911573,11.1551574 C14.6257968,9.69996065 13.8488807,8.44338405 12.8619873,7.40569499 Z" id="Fill-7"></path>
                </g>
                <path d="M20.6642298,28.2756644 C20.0626632,26.8874414 18.7091384,25.9119333 17.0579634,25.9119333 C15.3660574,25.9119333 13.9373368,26.8874414 13.2605744,28.2756644 L20.6642298,28.2756644 Z M8,30.0015633 C8,25.0145909 12.0198433,21 17.0579634,21 C22.1305483,21 26,25.0145909 26,30.0015633 C26,30.601876 25.9624021,31.2021886 25.8496084,31.7993747 L13.2981723,31.7993747 C13.9749347,33.1500782 15.4036554,34.1255862 17.0579634,34.1255862 C17.7723238,34.1255862 18.4835509,33.9379885 19.0475196,33.6003127 L22.6193211,37.1615425 C21.0402089,38.2871287 19.1227154,39 17.0579634,39 C12.0198433,39 8,35.0260552 8,30.0015633 Z" id="Fill-9" fill="#FFFFFF"></path>
                <path d="M41.4948388,30.0750521 C41.4948388,28.2362752 40.0846435,26.73836 38.2170875,26.73836 C36.390821,26.73836 34.8281721,28.2362752 34.8281721,30.0750521 C34.8281721,31.9513551 36.390821,33.4492703 38.2170875,33.4492703 C40.0846435,33.4492703 41.4948388,31.9513551 41.4948388,30.0750521 Z M49,21.3721334 L49,38.6247394 L42.790694,38.6247394 L42.790694,37.8022933 C41.418612,38.5872133 39.8940765,39 38.2170875,39 C33.1130697,39 29,35.0253648 29,30 C29,25.0121612 33.1130697,21 38.2170875,21 C39.8940765,21 41.418612,21.4096595 42.790694,22.1977067 L42.790694,21.3721334 L49,21.3721334 Z" id="Fill-11" fill="#FFFFFF"></path>
                <path d="M51,33.487754 L55.7791454,33.487754 C55.7791454,34.2756644 56.4674872,34.8759771 57.5905713,34.8759771 C58.6411983,34.8759771 59.2540641,34.3131839 59.2540641,33.487754 C59.2540641,32.6248046 58.6049698,32.099531 57.4818857,32.099531 C54.3330237,32.099531 51.0362285,30.0015633 51.0362285,26.6248046 C51.0362285,23.0635748 54.2605667,21 57.4818857,21 C60.7394333,21 64,23.3637311 64,26.5497655 L59.2540641,26.5497655 C59.2540641,25.9119333 58.6744078,25.2021886 57.4818857,25.2021886 C56.6124013,25.2021886 55.8153739,25.6868161 55.8153739,26.5497655 C55.8153739,27.3751954 56.6124013,27.9379885 57.6630283,27.9379885 C59.7250348,27.9379885 64,29.288692 64,33.6003127 C64,36.8645128 60.6669763,39 57.5543428,39 C53.5329772,39 51,36.2642001 51,33.487754" id="Fill-13" fill="#FFFFFF"></path>
                <path d="M85,21 L85,40.1059197 C85,45.5860597 81.0949752,50 75.2061476,50 L71.1133812,50 L71.1133812,43.8725243 L75.3156635,43.8725243 C77.6812074,43.8725243 78.9953985,42.4255389 78.9953985,40.1059197 L78.9953985,38.3923843 C78.1693355,38.6589342 77.2306276,38.8874056 76.1792748,38.8874056 C71.9018958,38.8874056 68,35.3111938 68,30.399059 L68,21 L73.6666667,21 L73.6666667,30.399059 C73.6666667,31.9983587 74.8306645,33.0645585 76.1041782,33.0645585 C77.7938524,33.0645585 78.9953985,31.884123 78.9953985,30.399059 L78.9953985,21 L85,21 Z" id="Fill-15" fill="#FFFFFF"></path>
                <path d="M105.855211,24.730517 C108.086197,24.730517 109.867887,22.9153974 109.867887,20.5941078 C109.867887,18.2760422 108.086197,16.4157865 105.855211,16.4157865 L101.321972,16.4157865 L101.321972,24.730517 L105.855211,24.730517 Z M94,10 L105.743662,10 C111.392394,10 116,14.7941078 116,20.6714842 C116,26.5101723 111.429577,31.3042802 105.892394,31.3042802 L101.321972,31.3042802 L101.321972,39 L94,39 L94,10 Z" id="Fill-17" fill="#2206A2"></path>
                <path d="M130.494839,30.0750521 C130.494839,28.2362752 129.084643,26.73836 127.217088,26.73836 C125.390821,26.73836 123.828172,28.2362752 123.828172,30.0750521 C123.828172,31.9513551 125.390821,33.4492703 127.217088,33.4492703 C129.084643,33.4492703 130.494839,31.9513551 130.494839,30.0750521 Z M138,21.3721334 L138,38.6247394 L131.790694,38.6247394 L131.790694,37.8022933 C130.418612,38.5872133 128.894077,39 127.217088,39 C122.11307,39 118,35.0253648 118,30 C118,25.0121612 122.11307,21 127.217088,21 C128.894077,21 130.418612,21.4096595 131.790694,22.1977067 L131.790694,21.3721334 L138,21.3721334 Z" id="Fill-19" fill="#2206A2"></path>
                <mask id="mask-2" fill="white">
                    <use xlink:href="#path-1"></use>
                </mask>
                <g id="Clip-22"></g>
                <polygon id="Fill-21" fill="#2206A2" mask="url(#mask-2)" points="143 39 149 39 149 10 143 10"></polygon>
                <path d="M164.66423,28.2756644 C164.062663,26.8874414 162.709138,25.9119333 161.057963,25.9119333 C159.366057,25.9119333 157.937337,26.8874414 157.260574,28.2756644 L164.66423,28.2756644 Z M152,30.0015633 C152,25.0145909 156.022977,21 161.057963,21 C166.130548,21 170,25.0145909 170,30.0015633 C170,30.601876 169.962402,31.2021886 169.849608,31.7993747 L157.298172,31.7993747 C157.974935,33.1500782 159.403655,34.1255862 161.057963,34.1255862 C161.772324,34.1255862 162.483551,33.9379885 163.04752,33.6003127 L166.619321,37.1615425 C165.040209,38.2871287 163.122715,39 161.057963,39 C156.022977,39 152,35.0260552 152,30.0015633 Z" id="Fill-23" fill="#2206A2" mask="url(#mask-2)"></path>
                <path d="M185.323819,30 C185.323819,28.1987491 183.866632,26.6633079 182.035807,26.6633079 C180.05864,26.6633079 178.638817,28.1987491 178.638817,30 C178.638817,31.8356498 180.096004,33.3742182 182.035807,33.3742182 C183.866632,33.3742182 185.323819,31.8356498 185.323819,30 M173,30 C173,25.0496873 177.032174,21 182.001557,21 C186.967826,21 191,25.0496873 191,30 C191,34.9878388 186.967826,39 182.001557,39 C177.032174,39 173,34.9878388 173,30" id="Fill-24" fill="#2206A2" mask="url(#mask-2)"></path>
            </g>
        </g>
    </g>
</svg>