<svg width="31" height="36" viewBox="0 0 31 36" fill="none" xmlns="http://www.w3.org/2000/svg">
<path d="M4.34629 2.84238C4.27387 4.05469 4.45171 5.26892 4.86875 6.40954C5.28579 7.55016 5.9331 8.59274 6.77042 9.47242C5.14299 9.93903 3.68596 10.8679 2.5761 12.1464C1.46624 13.4248 0.751264 14.9979 0.517916 16.6748C-0.0447812 20.6988 0.780736 24.7944 2.85833 28.2863L3.45625 29.2942C3.47891 29.3313 3.50343 29.3672 3.52971 29.4018L5.94871 32.6579C6.46107 33.348 7.11769 33.9182 7.87285 34.3286C8.62801 34.7391 9.46356 34.98 10.3213 35.0347C11.1791 35.0893 12.0385 34.9563 12.8396 34.645C13.6407 34.3337 14.3644 33.8514 14.9602 33.2319C15.0298 33.1595 15.1134 33.1018 15.2059 33.0625C15.2983 33.0231 15.3978 33.0028 15.4983 33.0028C15.5988 33.0028 15.6983 33.0231 15.7907 33.0625C15.8832 33.1018 15.9668 33.1595 16.0364 33.2319C16.6322 33.8514 17.3558 34.3337 18.157 34.645C18.9581 34.9563 19.8175 35.0893 20.6753 35.0347C21.533 34.98 22.3686 34.7391 23.1237 34.3286C23.8789 33.9182 24.5355 33.348 25.0479 32.6579L27.4669 29.4001C27.4926 29.3655 27.5166 29.3296 27.5386 29.2925L28.1383 28.2846C30.2169 24.7943 31.0442 20.7 30.4838 16.6765C30.3184 15.4909 29.9114 14.3519 29.288 13.33C28.6646 12.3081 27.8381 11.425 26.8597 10.7354C25.8812 10.0459 24.7716 9.56449 23.5996 9.32108C22.4275 9.07768 21.218 9.07744 20.0459 9.32038L16.7983 9.99346H16.7932C16.8445 8.66096 17.0529 7.22596 17.4612 5.99938C17.9566 4.51655 18.6433 3.6248 19.4087 3.30705C19.7224 3.17611 19.9713 2.92589 20.1006 2.61144C20.2299 2.297 20.2289 1.94408 20.098 1.63032C19.967 1.31656 19.7168 1.06767 19.4024 0.938401C19.0879 0.809129 18.735 0.810067 18.4212 0.941006C16.6241 1.69096 15.6025 3.46934 15.0302 5.18792L14.9516 5.43051C14.5309 4.6176 13.9876 3.87431 13.3407 3.22676C12.4547 2.33978 11.3904 1.65113 10.2182 1.20643C9.0461 0.761719 7.79286 0.571093 6.5415 0.647173C5.97042 0.680044 5.43128 0.921371 5.02632 1.32538C4.62137 1.72938 4.37879 2.26797 4.34458 2.83896L4.34629 2.84238ZM9.34487 16.193C8.75208 16.3109 8.20883 16.7277 7.86887 17.5221C7.52208 18.3318 7.39908 19.5328 7.77321 21.031C7.85012 21.3587 7.79501 21.7034 7.61979 21.9908C7.44457 22.2782 7.16332 22.485 6.83681 22.5667C6.5103 22.6484 6.16476 22.5983 5.87487 22.4273C5.58498 22.2563 5.37402 21.9781 5.28758 21.6528C4.80925 19.7361 4.89979 17.9458 5.51308 16.5125C6.13321 15.0655 7.29829 13.9875 8.84262 13.68C9.00999 13.6405 9.1836 13.6351 9.3531 13.6641C9.5226 13.6931 9.68454 13.756 9.82924 13.8489C9.97395 13.9418 10.0985 14.0629 10.1954 14.205C10.2923 14.347 10.3596 14.5071 10.3933 14.6758C10.4271 14.8444 10.4265 15.0181 10.3917 15.1865C10.3569 15.3549 10.2885 15.5146 10.1907 15.656C10.0928 15.7974 9.96751 15.9177 9.82221 16.0096C9.6769 16.1016 9.51456 16.1634 9.34487 16.1913V16.193Z" fill="#C5C5C5"/>
</svg>
