<svg width="35" height="39" viewBox="0 0 35 39" fill="none" xmlns="http://www.w3.org/2000/svg">
<path d="M7.71701 27.9299C5.90644 27.9299 4.43381 27.2756 3.32953 25.9768C2.22525 24.6779 1.50055 22.7504 1.07853 19.9461C0.457128 15.8132 1.07373 12.3298 2.81463 10.1381C3.83963 8.84724 5.18494 8.10092 6.70482 7.9808C8.00609 7.8767 9.95119 8.40441 11.8298 11.5042C13.0062 13.4453 13.9006 16.0238 14.2842 18.5783C14.7479 21.6621 14.4027 23.9324 13.2288 25.5171C12.2967 26.7759 10.8633 27.5559 8.96783 27.8394C8.55368 27.9002 8.13561 27.9304 7.71701 27.9299ZM10.8537 38.7188C9.79584 38.7188 8.72359 38.3801 7.75785 37.729C6.36427 36.7847 5.39966 35.3286 5.07363 33.6771C4.84541 32.5031 4.98234 31.5702 5.49164 30.8231C6.31885 29.6099 7.8035 29.3368 9.37463 29.047C9.54039 29.0165 9.70855 28.9861 9.87912 28.9533C10.2411 28.8844 10.611 28.7931 10.9698 28.7042C12.3135 28.3727 13.7037 28.0292 14.8512 28.8444C15.6191 29.3889 16.0523 30.3146 16.1821 31.6727C16.3294 33.2398 15.9931 34.8038 15.2347 36.077C14.4188 37.4471 13.1952 38.3528 11.7914 38.6283C11.4825 38.6886 11.1684 38.7189 10.8537 38.7188ZM27.2833 20.2424C26.8651 20.2409 26.4476 20.2088 26.0341 20.1463C24.1394 19.866 22.706 19.0852 21.7739 17.824C20.6 16.2393 20.2524 13.9698 20.7185 10.8852C21.1021 8.32834 21.9941 5.75222 23.1649 3.81834C25.0339 0.729724 26.9814 0.194002 28.2899 0.288494C29.805 0.399002 31.1479 1.13492 32.1745 2.41857C33.9274 4.61031 34.5488 8.10412 33.925 12.2554C33.503 15.0581 32.7879 16.976 31.674 18.2861C30.5601 19.5961 29.0939 20.2424 27.2833 20.2424ZM24.1466 31.0313C23.8327 31.0313 23.5195 31.0009 23.2113 30.9408C21.8052 30.6653 20.5816 29.7596 19.768 28.3895C19.0096 27.1163 18.6733 25.5523 18.8206 23.9852C18.9488 22.6239 19.3812 21.7014 20.1515 21.1561C21.2991 20.3417 22.6892 20.6844 24.0329 21.0167C24.3917 21.1048 24.7616 21.1961 25.1236 21.2658L25.6273 21.3595C27.1992 21.6485 28.6839 21.92 29.5111 23.1348C30.0204 23.8819 30.1573 24.8164 29.9291 25.9888C29.6033 27.6406 28.6387 29.0971 27.2449 30.0415C26.2735 30.6934 25.2013 31.0313 24.1466 31.0313Z" fill="#C5C5C5"/>
</svg>
