<svg width="30" height="41" viewBox="0 0 30 41" fill="none" xmlns="http://www.w3.org/2000/svg">
<path d="M7.92969 5.125C8.95312 2.13809 11.7344 0 15 0C18.2656 0 21.0469 2.13809 22.0703 5.125H25C27.7578 5.125 30 7.42324 30 10.25V35.875C30 38.7018 27.7578 41 25 41H5C2.24219 41 0 38.7018 0 35.875V10.25C0 7.42324 2.24219 5.125 5 5.125H7.92969ZM17.5 7.6875C17.5 6.27012 16.3828 5.125 15 5.125C13.6172 5.125 12.5 6.27012 12.5 7.6875C12.5 9.10488 13.6172 10.25 15 10.25C16.3828 10.25 17.5 9.10488 17.5 7.6875ZM12.5 29.4688C12.5 30.1734 13.0625 30.75 13.75 30.75H23.75C24.4375 30.75 25 30.1734 25 29.4688C25 28.7641 24.4375 28.1875 23.75 28.1875H13.75C13.0625 28.1875 12.5 28.7641 12.5 29.4688ZM7.5 31.3906C8.53906 31.3906 9.375 30.5338 9.375 29.4688C9.375 28.4037 8.53906 27.5469 7.5 27.5469C6.46094 27.5469 5.625 28.4037 5.625 29.4688C5.625 30.5338 6.46094 31.3906 7.5 31.3906ZM12.5 21.7812C12.5 22.4859 13.0625 23.0625 13.75 23.0625H23.75C24.4375 23.0625 25 22.4859 25 21.7812C25 21.0766 24.4375 20.5 23.75 20.5H13.75C13.0625 20.5 12.5 21.0766 12.5 21.7812ZM7.5 23.7031C8.53906 23.7031 9.375 22.8463 9.375 21.7812C9.375 20.7162 8.53906 19.8594 7.5 19.8594C6.46094 19.8594 5.625 20.7162 5.625 21.7812C5.625 22.8463 6.46094 23.7031 7.5 23.7031Z" fill="#C5C5C5"/>
</svg>
