<?xml version="1.0" encoding="UTF-8" standalone="no"?>
<!DOCTYPE svg PUBLIC "-//W3C//DTD SVG 1.1//EN" "http://www.w3.org/Graphics/SVG/1.1/DTD/svg11.dtd">
<svg width="100%" height="100%" viewBox="0 0 107 32" version="1.1" xmlns="http://www.w3.org/2000/svg" xmlns:xlink="http://www.w3.org/1999/xlink" xml:space="preserve" xmlns:serif="http://www.serif.com/" style="fill-rule:evenodd;clip-rule:evenodd;stroke-linejoin:round;stroke-miterlimit:2;">
    <path d="M47.47,10.149L47.47,20.999L45.688,20.999L45.688,13.264L42.386,18.72L42.169,18.72L38.868,13.249L38.868,20.999L37.085,20.999L37.085,10.149L39.007,10.149L42.278,15.574L45.564,10.149L47.47,10.149Z" style="fill:rgb(25,27,30);fill-rule:nonzero;"/>
    <path d="M50.842,17.837C50.966,18.426 51.251,18.88 51.695,19.201C52.139,19.511 52.682,19.666 53.322,19.666C54.211,19.666 54.878,19.345 55.322,18.705L56.701,19.511C55.937,20.637 54.805,21.2 53.307,21.2C52.046,21.2 51.028,20.818 50.253,20.053C49.478,19.278 49.091,18.302 49.091,17.124C49.091,15.966 49.473,15 50.238,14.225C51.003,13.44 51.984,13.047 53.183,13.047C54.32,13.047 55.25,13.445 55.973,14.241C56.707,15.036 57.073,16.002 57.073,17.139C57.073,17.315 57.053,17.547 57.011,17.837L50.842,17.837ZM50.827,16.473L55.384,16.473C55.27,15.842 55.007,15.367 54.593,15.047C54.19,14.726 53.715,14.566 53.167,14.566C52.547,14.566 52.031,14.737 51.617,15.078C51.204,15.419 50.941,15.884 50.827,16.473Z" style="fill:rgb(25,27,30);fill-rule:nonzero;"/>
    <path d="M64.639,13.249L66.313,13.249L66.313,20.999L64.639,20.999L64.639,19.883C64.009,20.761 63.104,21.2 61.926,21.2C60.862,21.2 59.953,20.807 59.198,20.022C58.444,19.226 58.067,18.26 58.067,17.124C58.067,15.977 58.444,15.01 59.198,14.225C59.953,13.44 60.862,13.047 61.926,13.047C63.104,13.047 64.009,13.481 64.639,14.349L64.639,13.249ZM60.438,18.906C60.903,19.371 61.487,19.604 62.19,19.604C62.893,19.604 63.476,19.371 63.941,18.906C64.406,18.431 64.639,17.837 64.639,17.124C64.639,16.411 64.406,15.822 63.941,15.357C63.476,14.881 62.893,14.644 62.19,14.644C61.487,14.644 60.903,14.881 60.438,15.357C59.973,15.822 59.741,16.411 59.741,17.124C59.741,17.837 59.973,18.431 60.438,18.906Z" style="fill:rgb(25,27,30);fill-rule:nonzero;"/>
    <rect x="68.264" y="9.684" width="1.674" height="11.315" style="fill:rgb(25,27,30);fill-rule:nonzero;"/>
    <path d="M80.143,13.047C81.208,13.047 82.117,13.445 82.871,14.241C83.626,15.026 84.003,15.987 84.003,17.124C84.003,18.271 83.626,19.237 82.871,20.022C82.117,20.807 81.208,21.2 80.143,21.2C78.965,21.2 78.061,20.766 77.431,19.898L77.431,24.099L75.757,24.099L75.757,13.249L77.431,13.249L77.431,14.365C78.061,13.486 78.965,13.047 80.143,13.047ZM78.128,18.906C78.593,19.371 79.177,19.604 79.88,19.604C80.582,19.604 81.166,19.371 81.631,18.906C82.096,18.431 82.329,17.837 82.329,17.124C82.329,16.411 82.096,15.822 81.631,15.357C81.166,14.881 80.582,14.644 79.88,14.644C79.177,14.644 78.593,14.881 78.128,15.357C77.663,15.822 77.431,16.411 77.431,17.124C77.431,17.837 77.663,18.431 78.128,18.906Z" style="fill:rgb(25,27,30);fill-rule:nonzero;"/>
    <rect x="85.52" y="9.684" width="1.674" height="11.315" style="fill:rgb(25,27,30);fill-rule:nonzero;"/>
    <path d="M95.276,13.249L96.95,13.249L96.95,20.999L95.276,20.999L95.276,19.883C94.645,20.761 93.741,21.2 92.563,21.2C91.499,21.2 90.589,20.807 89.835,20.022C89.081,19.226 88.704,18.26 88.704,17.124C88.704,15.977 89.081,15.01 89.835,14.225C90.589,13.44 91.499,13.047 92.563,13.047C93.741,13.047 94.645,13.481 95.276,14.349L95.276,13.249ZM91.075,18.906C91.54,19.371 92.124,19.604 92.827,19.604C93.529,19.604 94.113,19.371 94.578,18.906C95.043,18.431 95.276,17.837 95.276,17.124C95.276,16.411 95.043,15.822 94.578,15.357C94.113,14.881 93.529,14.644 92.827,14.644C92.124,14.644 91.54,14.881 91.075,15.357C90.61,15.822 90.378,16.411 90.378,17.124C90.378,17.837 90.61,18.431 91.075,18.906Z" style="fill:rgb(25,27,30);fill-rule:nonzero;"/>
    <path d="M102.977,13.047C103.866,13.047 104.584,13.331 105.132,13.9C105.679,14.468 105.953,15.248 105.953,16.24L105.953,20.999L104.279,20.999L104.279,16.411C104.279,15.832 104.124,15.388 103.814,15.078C103.504,14.768 103.081,14.613 102.543,14.613C101.954,14.613 101.479,14.799 101.117,15.171C100.756,15.532 100.575,16.09 100.575,16.845L100.575,20.999L98.901,20.999L98.901,13.249L100.575,13.249L100.575,14.241C101.081,13.445 101.882,13.047 102.977,13.047Z" style="fill:rgb(25,27,30);fill-rule:nonzero;"/>
    <path d="M25.012,32L6.988,32C3.129,32 0,28.871 0,25.012L0,6.988C0,3.129 3.129,0 6.988,0L25.012,0C28.871,0 32,3.129 32,6.988L32,25.012C32,28.871 28.871,32 25.012,32" style="fill:rgb(0,207,195);"/>
    <path d="M17,10L17,21L15.112,21L15.112,13.159L11.615,18.69L11.385,18.69L7.888,13.143L7.888,21L6,21L6,10L8.036,10L11.5,15.5L14.981,10L17,10Z" style="fill:rgb(232,255,253);"/>
    <path d="M24.41,16.39C24.181,15.155 23.312,14.514 22.229,14.514C21.009,14.514 20.155,15.231 19.926,16.39L24.41,16.39ZM19.825,17.732C20.069,18.891 20.999,19.531 22.265,19.531C23.134,19.531 23.79,19.211 24.232,18.586L25.59,19.379C24.842,20.493 23.729,21.042 22.25,21.042C21.015,21.042 20.008,20.66 19.245,19.913C18.483,19.15 18.102,18.19 18.102,17.031C18.102,15.887 18.483,14.941 19.23,14.179C19.977,13.401 20.953,13.02 22.128,13.02C23.241,13.02 24.156,13.416 24.873,14.194C25.59,14.972 25.956,15.933 25.956,17.046C25.956,17.214 25.94,17.442 25.895,17.732L19.825,17.732Z" style="fill:rgb(232,255,253);"/>
    <path d="M29.221,19.981C29.221,20.552 28.747,21.025 28.177,21.025C27.606,21.025 27.133,20.552 27.133,19.981C27.133,19.411 27.578,18.938 28.177,18.938C28.747,18.938 29.221,19.411 29.221,19.981" style="fill:rgb(232,255,253);"/>
</svg>
